SplineFontDB: 3.0
FontName: Miama-Regular
FullName: Miama
FamilyName: Miama
Weight: Regular
Copyright: Copyright (c) 2008-2011, Linus Romer, with Reserved Font Name Miama.\n\nThis Font Software is licensed under the SIL Open Font License, Version 1.1.
Version: 0.32.1
ItalicAngle: 16.5
UnderlinePosition: -80
UnderlineWidth: 48
Ascent: 800
Descent: 200
sfntRevision: 0x0000522d
LayerCount: 2
Layer: 0 0 "Back"  1
Layer: 1 0 "Zeichenebene"  0
XUID: [1021 573 979596882 7664732]
FSType: 0
OS2Version: 0
OS2_WeightWidthSlopeOnly: 0
OS2_UseTypoMetrics: 1
CreationTime: 1252426677
ModificationTime: 1310116086
PfmFamily: 65
TTFWeight: 400
TTFWidth: 5
LineGap: 0
VLineGap: 0
Panose: 3 3 5 2 4 7 0 0 0 3
OS2TypoAscent: 1715
OS2TypoAOffset: 0
OS2TypoDescent: -1412
OS2TypoDOffset: 0
OS2TypoLinegap: 0
OS2WinAscent: 1715
OS2WinAOffset: 0
OS2WinDescent: 1412
OS2WinDOffset: 0
HheadAscent: 1715
HheadAOffset: 0
HheadDescent: -1412
HheadDOffset: 0
OS2SubXSize: 700
OS2SubYSize: 650
OS2SubXOff: 0
OS2SubYOff: 140
OS2SupXSize: 700
OS2SupYSize: 650
OS2SupXOff: 0
OS2SupYOff: 477
OS2StrikeYSize: 50
OS2StrikeYPos: 250
OS2FamilyClass: 2565
OS2Vendor: 'free'
OS2CodePages: 20000193.4d000000
OS2UnicodeRanges: a00000af.5000205b.00000000.00000000
Lookup: 1 0 0 "'subs' Subscript lookup 7"  {"'subs' Subscript lookup 7-1" ("inferior" ) } ['subs' ('DFLT' <'dflt' > 'cyrl' <'dflt' > 'grek' <'dflt' > 'latn' <'dflt' > ) ]
Lookup: 6 0 0 "'ss02' Stilgruppe 2 lookup 7"  {"'ss02' Stilgruppe 2 lookup 7-1"  } ['ss02' ('DFLT' <'dflt' > 'cyrl' <'dflt' > 'grek' <'dflt' > 'latn' <'dflt' > ) ]
Lookup: 1 0 0 "'ss02' Stilgruppe 2 lookup 6"  {"'ss02' Stilgruppe 2 lookup 6-1"  } ['ss02' ('DFLT' <'dflt' > 'cyrl' <'dflt' > 'grek' <'dflt' > 'latn' <'dflt' > ) ]
Lookup: 2 0 0 "Multiple Substitution"  {"Multiple Substitution-1"  } []
Lookup: 4 0 1 "'liga' Standard Ligatures lookup 0"  {"'liga' Standard Ligatures lookup"  } ['liga' ('DFLT' <'dflt' > 'cyrl' <'dflt' > 'grek' <'dflt' > 'latn' <'dflt' > ) ]

StartChar: numbersign
Encoding: 35 35 1
Width: 582
VWidth: 2000
Flags: W
HStem: -32 25G<96 102 289 303> 260 74<305.983 408 433.069 450 478 572.429> 548 78<630.246 724.461>
VStem: 92 40<-28.9339 21.4053>
LayerCount: 2
Fore
SplineSet
450 334 m 1
 564 548 l 1
 516 548 468 546 416 544 c 1
 304 324 l 1
 346 326 408 332 450 334 c 1
478 336 m 1
 518 338 568 340 580 340 c 0
 596 340 600 338 600 332 c 0
 600 326 592 318 588 308 c 0
 576 272 548 262 516 262 c 0
 508 262 476 260 444 260 c 1
 324 32 314 -26 292 -28 c 0
 286 -28 268 -22 268 -12 c 0
 268 -4 276 28 408 260 c 1
 380 260 334 258 266 250 c 1
 230 180 172 72 132 -20 c 0
 130 -24 104 -32 100 -32 c 0
 92 -32 92 -24 92 -18 c 0
 92 -6 138 70 232 246 c 1
 198 242 166 238 126 238 c 0
 122 238 120 240 120 244 c 0
 120 250 142 306 186 314 c 0
 204 318 256 322 274 322 c 1
 386 542 l 1
 360 540 320 538 292 532 c 1
 286 532 282 532 282 538 c 0
 282 584 356 598 418 604 c 1
 500 762 570 896 586 898 c 0
 594 898 614 892 614 884 c 0
 614 870 588 872 448 606 c 1
 496 610 550 614 600 618 c 1
 608 634 752 912 766 912 c 0
 770 912 794 908 794 904 c 0
 794 900 792 896 790 892 c 0
 748 832 686 732 628 620 c 1
 676 624 718 626 748 626 c 0
 754 626 762 624 762 618 c 0
 762 612 748 604 740 592 c 0
 726 572 712 548 702 548 c 2
 590 548 l 1
 478 336 l 1
EndSplineSet
EndChar

StartChar: dollar
Encoding: 36 36 2
Width: 760
VWidth: 2000
Flags: W
HStem: -34 42<322.749 411.554> 214 20G<158 161> 740 21G<834 838> 832 52<772 788.808> 842 44<633.156 715.53>
VStem: 76 72<104.938 199> 418 70<606.611 716.867> 624 82<200.577 317.312> 830 70<768.794 792.865>
LayerCount: 2
Fore
SplineSet
534 424 m 1xe780
 322 12 l 1
 338 10 352 8 364 8 c 0
 532 8 624 144 624 228 c 0
 624 300 580 364 534 424 c 1xe780
558 536 m 1
 716 840 l 1
 706 842 694 842 682 842 c 0xef80
 554 842 488 756 488 680 c 0
 488 632 520 584 558 536 c 1
76 136 m 0
 76 144 88 154 100 166 c 0
 132 198 156 234 160 234 c 0
 162 234 166 234 166 230 c 0
 166 226 148 208 148 190 c 0
 148 86 220 38 288 18 c 1
 512 450 l 1
 464 512 418 572 418 638 c 0
 418 776 606 884 740 886 c 1xef80
 810 1020 820 1034 822 1034 c 0
 824 1034 836 1032 842 1032 c 0
 844 1032 846 1032 846 1030 c 0
 846 1020 826 986 772 884 c 1
 866 872 900 800 900 790 c 0
 900 780 872 766 854 752 c 0
 840 742 840 740 836 740 c 0
 832 740 830 742 830 746 c 0
 830 780 796 816 744 832 c 1xf780
 578 512 l 1
 638 442 706 368 706 286 c 0
 706 120 476 -32 300 -34 c 1
 196 -226 l 2
 188 -242 144 -270 132 -270 c 0
 130 -270 128 -268 128 -266 c 0
 128 -264 130 -262 132 -258 c 2
 262 -32 l 1
 124 -18 76 74 76 136 c 0
EndSplineSet
EndChar

StartChar: percent
Encoding: 37 37 3
Width: 886
VWidth: 2000
Flags: W
HStem: -24 36<583.663 683.567> 304 36<647.175 750.744> 522 36<419.663 519.567> 648 20G<955 960.5> 850 36<483.175 586.744>
VStem: 304 56<609.422 731.063> 468 56<63.4224 185.063> 644 56<676.937 798.578> 808 56<130.937 252.578>
LayerCount: 2
Fore
SplineSet
360 680 m 0
 360 606 418 558 486 558 c 0
 594 558 644 666 644 728 c 0
 644 802 588 850 520 850 c 0
 412 850 360 742 360 680 c 0
304 650 m 0
 304 776 456 886 566 886 c 0
 642 886 700 834 700 758 c 0
 700 632 548 522 438 522 c 0
 362 522 304 574 304 650 c 0
924 654 m 2
 938 663 951 668 959 668 c 0
 962 668 963 667 964 666 c 0
 965 665 965 665 965 664 c 0
 965 658 955 647 940 638 c 2
 270 226 l 2
 255 218 240 211 233 211 c 0
 231 211 231 211 230 212 c 0
 229 213 229 213 229 214 c 0
 229 220 239 233 254 242 c 2
 924 654 l 2
524 134 m 0
 524 60 582 12 650 12 c 0
 758 12 808 120 808 182 c 0
 808 256 752 304 684 304 c 0
 576 304 524 196 524 134 c 0
468 104 m 0
 468 230 620 340 730 340 c 0
 806 340 864 288 864 212 c 0
 864 86 712 -24 602 -24 c 0
 526 -24 468 28 468 104 c 0
EndSplineSet
EndChar

StartChar: ampersand
Encoding: 38 38 4
Width: 1016
VWidth: 2000
Flags: W
HStem: -30 44<400.363 564.418> 208 28<971.339 1054.44> 384 10<603.606 650.447> 486 20<556.121 611.506> 566 40<503.244 608.867> 844 40<600.648 738.202>
VStem: 152 72<178.491 350.717> 440 26<603.13 717.016> 518 56<289.347 362.463> 616 50<506.681 554.21> 822 44<750.985 778.392>
LayerCount: 2
Fore
SplineSet
502 566 m 1
 522 540 554 506 588 506 c 0
 610 506 616 516 616 532 c 0
 616 558 564 566 502 566 c 1
666 546 m 0
 666 510 622 486 574 486 c 0
 528 486 480 520 458 562 c 1
 282 534 224 384 224 280 c 0
 224 118 368 14 510 14 c 0
 686 14 780 156 802 286 c 1
 734 328 682 384 622 384 c 0
 596 384 574 358 574 330 c 0
 574 294 620 276 620 266 c 0
 620 262 606 260 592 260 c 2
 584 260 l 2
 564 260 518 264 518 322 c 0
 518 362 574 394 634 394 c 0
 790 394 918 236 1034 236 c 0
 1060 236 1072 246 1090 264 c 0
 1102 276 1110 290 1112 290 c 0
 1114 290 1116 288 1116 286 c 0
 1116 284 1110 274 1096 260 c 1
 1064 224 1040 208 1014 208 c 0
 956 208 908 228 856 256 c 1
 820 152 652 -30 442 -30 c 0
 298 -30 152 74 152 240 c 0
 152 418 302 538 448 586 c 1
 442 602 440 622 440 644 c 0
 440 800 590 884 692 884 c 0
 770 884 866 846 866 790 c 0
 866 780 856 772 846 754 c 0
 834 732 830 722 826 722 c 0
 824 722 822 724 822 726 c 0
 822 794 724 844 660 844 c 0
 540 844 466 768 466 666 c 0
 466 642 472 618 482 596 c 1
 516 602 556 606 576 606 c 0
 616 606 666 588 666 546 c 0
EndSplineSet
EndChar

StartChar: quotesingle
Encoding: 39 39 5
Width: 360
VWidth: 2000
Flags: W
VStem: 292 256
LayerCount: 2
Fore
SplineSet
304 544 m 0
 298 544 292 548 292 556 c 0
 292 560 296 566 316 604 c 2
 462 880 l 2
 466 888 500 900 518 908 c 0
 528 912 536 918 542 918 c 0
 546 918 548 916 548 912 c 0
 548 904 496 854 344 600 c 0
 318 558 312 544 304 544 c 0
EndSplineSet
EndChar

StartChar: parenleft
Encoding: 40 40 6
Width: 482
VWidth: 2000
Flags: W
VStem: 182 70<-18.6268 213.385>
LayerCount: 2
Fore
SplineSet
326 -138 m 0
 202 -88 182 24 182 100 c 0
 182 290 346 716 850 996 c 0
 862 1002 888 1014 892 1014 c 0
 896 1014 898 1012 898 1008 c 0
 898 1004 892 1000 884 996 c 0
 398 710 252 256 252 64 c 0
 252 -84 316 -110 336 -122 c 0
 346 -128 348 -132 348 -136 c 0
 348 -140 344 -142 342 -142 c 0
 338 -142 334 -142 326 -138 c 0
EndSplineSet
Substitution2: "'subs' Subscript lookup 7-1" uni208D
EndChar

StartChar: asterisk
Encoding: 42 42 8
Width: 430
VWidth: 2000
Flags: W
HStem: 446 24<518 560> 456 58<331.317 361.191> 644 36<334 426 504 686.629> 648 46<243.136 319.594> 804 72<339.868 377>
VStem: 216 50<631.244 667> 318 12<528.477 562 586 646> 524 76<462.307 519.862>
LayerCount: 2
Fore
SplineSet
318 586 m 1x1f
 320 646 l 1
 320 646 284 648 274 648 c 0
 268 648 266 646 266 642 c 0
 266 626 302 598 318 586 c 1x1f
436 644 m 1x2f
 330 646 l 1
 330 580 l 1
 344 568 358 560 372 550 c 1
 394 580 416 612 436 644 c 1x2f
450 624 m 1
 430 592 418 572 398 532 c 1
 452 494 508 470 518 470 c 0x8f
 522 470 524 474 524 478 c 0
 524 512 474 578 450 624 c 1
426 680 m 1x2f
 384 750 356 804 346 804 c 0
 338 804 336 732 334 686 c 1
 426 680 l 1x2f
472 706 m 1
 530 802 548 866 568 866 c 0
 576 866 590 838 590 828 c 0
 590 826 590 824 588 822 c 0
 544 764 520 724 492 680 c 1
 678 680 l 2
 688 680 690 676 690 672 c 0
 690 662 674 642 662 642 c 0
 652 642 638 644 622 644 c 2
 504 644 l 1
 538 586 572 528 598 490 c 0
 600 486 600 484 600 482 c 0
 600 460 560 446 560 446 c 1xaf
 530 446 462 478 392 520 c 1
 378 498 364 456 352 456 c 0
 342 456 314 464 314 528 c 0
 314 538 316 560 316 570 c 1
 264 604 216 646 216 660 c 0
 216 674 234 694 270 694 c 0x5f
 286 694 302 690 322 688 c 1
 328 784 322 876 368 876 c 0
 386 876 406 820 472 706 c 1
364 540 m 1
 356 546 338 556 330 562 c 1
 330 538 332 514 338 514 c 0x4f
 344 514 358 530 364 540 c 1
EndSplineSet
EndChar

StartChar: plus
Encoding: 43 43 9
Width: 672
VWidth: 2000
Flags: W
HStem: 76 12<156.546 214.222> 306 50<504.383 695.985> 546 34<379.701 490>
VStem: 112 14<116.024 173.186> 474 70<416.085 535.872>
LayerCount: 2
Fore
SplineSet
402 298 m 1
 268 288 126 228 126 142 c 0
 126 114 148 88 182 88 c 0
 268 88 362 222 402 298 c 1
722 354 m 0
 722 340 663 306 656 306 c 0
 558 306 510 304 468 302 c 1
 368 106 240 76 182 76 c 0
 136 76 112 108 112 136 c 0
 112 212 194 318 422 340 c 1
 446 392 474 452 474 496 c 0
 474 520 454 546 418 546 c 0
 328 546 278 492 268 492 c 0
 266 492 264 492 264 496 c 0
 264 506 360 580 478 580 c 0
 502 580 544 562 544 522 c 0
 544 458 518 400 490 344 c 1
 552 348 604 352 720 356 c 0
 722 356 722 356 722 354 c 0
EndSplineSet
EndChar

StartChar: comma
Encoding: 44 44 10
Width: 320
VWidth: 2000
Flags: W
VStem: 126 74<-77.3135 63.0168>
LayerCount: 2
Fore
SplineSet
160 84 m 0
 194 84 200 28 200 -4 c 0
 198 -132 -8 -268 -22 -268 c 0
 -26 -268 -28 -266 -28 -264 c 0
 -28 -258 -24 -258 10 -232 c 0
 66 -190 126 -126 126 -56 c 0
 126 -2 104 34 104 50 c 0
 104 66 152 84 160 84 c 0
EndSplineSet
EndChar

StartChar: hyphen
Encoding: 45 45 11
Width: 536
VWidth: 2000
Flags: W
HStem: 302 52<186.423 315.271 336.185 564.942>
LayerCount: 2
Fore
SplineSet
480 350 m 0
 500 350 558 352 572 352 c 0
 574 352 576 352 576 350 c 0
 576 346 572 340 566 326 c 0
 560 312 560 298 554 298 c 0
 528 298 414 306 318 306 c 0
 260 306 188 302 172 302 c 0
 170 302 168 302 168 304 c 0
 168 308 178 318 184 328 c 0
 192 342 194 354 200 354 c 0
 248 354 366 350 480 350 c 0
EndSplineSet
EndChar

StartChar: period
Encoding: 46 46 12
Width: 320
VWidth: 2000
Flags: W
HStem: -8 128<148.466 193.634>
VStem: 112 122<32.7403 82.8618>
LayerCount: 2
Fore
SplineSet
112 28 m 0
 112 70 154 120 200 120 c 0
 222 120 234 108 234 84 c 0
 234 42 180 -8 152 -8 c 0
 128 -8 112 4 112 28 c 0
EndSplineSet
EndChar

StartChar: slash
Encoding: 47 47 13
Width: 522
VWidth: 2000
Flags: W
HStem: -70 21G<93 97>
LayerCount: 2
Fore
SplineSet
692 1056 m 2
 698 1066 736 1086 746 1086 c 0
 748 1086 748 1084 748 1084 c 1
 432 489 145 -42 146 -40 c 1
 142 -48 100 -70 94 -70 c 0
 92 -70 92 -68 92 -68 c 1
 92 -66 94 -62 98 -56 c 2
 692 1056 l 2
EndSplineSet
EndChar

StartChar: zero
Encoding: 48 48 14
Width: 726
VWidth: 2000
Flags: W
HStem: -24 46<233 382.626> 840 46<660.127 809>
VStem: 148 88<83.1157 297.924> 810 76<575.088 775.336>
LayerCount: 2
Fore
SplineSet
236 188 m 0
 236 96 274 22 344 22 c 0
 534 22 810 416 810 666 c 0
 810 740 786 840 690 840 c 0
 506 840 236 424 236 188 c 0
758 886 m 0
 860 886 886 788 886 706 c 0
 886 444 568 -24 274 -24 c 0
 192 -24 148 36 148 152 c 0
 148 498 538 886 758 886 c 0
EndSplineSet
Substitution2: "'subs' Subscript lookup 7-1" uni2080
Substitution2: "'onum' Minuskelziffern lookup" uniE000
EndChar

StartChar: one
Encoding: 49 49 15
Width: 540
VWidth: 2000
Flags: W
HStem: -46 21G<218 228>
LayerCount: 2
Fore
SplineSet
616 674 m 1
 467 544 321 426 148 326 c 0
 138 320 114 312 106 312 c 0
 104 312 103 312 103 313 c 0
 103 315 108 319 120 326 c 0
 258 408 350 478 466 574 c 0
 496 600 608 692 642 726 c 1
 666 752 682 828 724 852 c 0
 754 868 784 886 802 886 c 0
 814 886 816 878 816 868 c 0
 816 846 784 798 728 750 c 1
 600 522 458 254 366 52 c 0
 350 16 346 -12 328 -14 c 0
 246 -24 234 -46 222 -46 c 0
 214 -46 212 -42 212 -38 c 0
 212 -32 262 44 308 126 c 0
 410 310 514 490 616 674 c 1
EndSplineSet
Substitution2: "'subs' Subscript lookup 7-1" uni2081
Substitution2: "'onum' Minuskelziffern lookup" uniE001
EndChar

StartChar: two
Encoding: 50 50 16
Width: 650
VWidth: 2000
Flags: W
HStem: -116 48<509.415 673.357> -30 21G<-60 -49> 58 48<74.1868 184.089> 852 34<522.19 638.093>
VStem: 694 96<665.362 801.371>
LayerCount: 2
Fore
SplineSet
624 886 m 0
 726 886 790 826 790 744 c 0
 790 580 528 402 128 102 c 1
 142 106 144 106 154 106 c 0
 296 106 396 -18 538 -56 c 0
 574 -66 608 -68 638 -68 c 0
 698 -68 748 -54 778 -40 c 0
 788 -35 793 -34 793 -36 c 0
 793 -37 792 -39 788 -42 c 0
 778 -50 758 -60 742 -68 c 0
 676 -98 608 -116 544 -116 c 0
 516 -116 490 -114 464 -106 c 0
 322 -66 222 58 84 58 c 0
 78 58 72 56 64 54 c 1
 -36 -26 -40 -30 -58 -30 c 0
 -62 -30 -66 -28 -66 -24 c 0
 -66 -12 68 90 154 164 c 0
 372 354 694 584 694 732 c 0
 694 794 646 852 580 852 c 0
 554 852 472 842 412 782 c 0
 400 770 394 762 390 762 c 0
 386 762 384 764 384 768 c 0
 384 772 392 782 406 796 c 0
 472 864 556 886 624 886 c 0
EndSplineSet
Substitution2: "'subs' Subscript lookup 7-1" uni2082
Substitution2: "'onum' Minuskelziffern lookup" uniE002
EndChar

StartChar: three
Encoding: 51 51 17
Width: 620
VWidth: 2000
Flags: W
HStem: -26 48<174.317 335.051> 460 50<378.25 418.333> 848 48<551.905 666.589>
VStem: 10 70<54 129> 594 78<260.814 393.956> 710 80<702.409 807.176>
LayerCount: 2
Fore
SplineSet
610 588 m 1
 652 612 710 656 710 738 c 0
 710 826 644 848 582 848 c 0
 540 848 514 838 488 810 c 0
 474 796 438 774 418 774 c 0
 416 774 414 776 414 778 c 0
 414 786 530 896 650 896 c 0
 770 896 790 828 790 782 c 0
 790 700 730 634 620 570 c 1
 586 552 550 534 516 518 c 1
 616 510 672 426 672 356 c 0
 672 152 390 -26 222 -26 c 0
 104 -26 10 30 10 78 c 0
 10 86 14 94 18 98 c 0
 54 126 92 162 94 162 c 0
 98 162 100 160 100 156 c 0
 100 154 80 138 80 120 c 0
 80 100 150 22 290 22 c 0
 452 22 594 170 594 312 c 0
 594 408 522 472 420 472 c 0
 384 472 376 460 360 460 c 0
 358 460 352 462 352 466 c 0
 352 476 396 502 430 510 c 0
 450 514 560 558 610 588 c 1
EndSplineSet
Substitution2: "'subs' Subscript lookup 7-1" uni2083
Substitution2: "'onum' Minuskelziffern lookup" uniE003
EndChar

StartChar: four
Encoding: 52 52 18
Width: 676
VWidth: 2000
Flags: W
HStem: -46 21G<318 328> 400 42<297.115 551.877>
VStem: 176 84<434 518.622>
LayerCount: 2
Fore
SplineSet
850 516 m 0
 852 516 854 514 854 514 c 1
 854 508 812 482 802 478 c 0
 752 460 702 444 652 434 c 1
 578 296 504 152 458 52 c 0
 442 16 438 -12 420 -14 c 0
 338 -24 334 -46 322 -46 c 0
 314 -46 312 -42 312 -38 c 0
 312 -32 364 44 410 126 c 2
 576 420 l 1
 476 404 386 400 322 400 c 0
 278 400 176 406 176 462 c 0
 176 552 348 652 492 768 c 1
 524 796 552 822 576 854 c 0
 582 862 644 892 656 892 c 0
 658 892 658 890 658 890 c 1
 658 874 582 812 508 750 c 0
 418 674 260 574 260 506 c 0
 260 454 364 442 432 442 c 0
 488 442 544 448 596 456 c 1
 776 772 l 2
 798 810 802 822 828 838 c 0
 862 858 890 886 908 886 c 0
 914 886 914 884 914 882 c 0
 914 868 888 856 872 830 c 0
 844 786 760 636 670 470 c 1
 770 492 842 516 850 516 c 0
EndSplineSet
Substitution2: "'subs' Subscript lookup 7-1" uni2084
Substitution2: "'onum' Minuskelziffern lookup" uniE004
EndChar

StartChar: five
Encoding: 53 53 19
Width: 620
VWidth: 2000
Flags: W
HStem: -42 44<124.014 296.693> 482 48<378.729 514.192> 768 64<514.812 786.238>
VStem: -2 78<43.3453 104.364> 600 78<251.877 398.541>
LayerCount: 2
Fore
SplineSet
154 -42 m 0
 94 -42 -2 -24 -2 50 c 0
 -2 116 80 152 130 202 c 0
 134 206 136 206 138 206 c 0
 142 206 142 204 142 204 c 1
 142 186 76 170 76 94 c 0
 76 58 110 2 224 2 c 0
 418 2 600 132 600 310 c 0
 600 412 530 482 420 482 c 0
 376 482 340 472 304 454 c 1
 288 448 276 436 262 436 c 0
 254 436 254 442 254 444 c 0
 254 454 374 590 466 836 c 0
 472 852 476 858 498 858 c 0
 526 858 510 832 688 832 c 0
 732 832 824 834 904 866 c 0
 914 870 914 880 918 880 c 0
 920 880 924 880 924 874 c 0
 924 870 894 822 830 802 c 0
 754 778 668 768 596 768 c 0
 564 768 502 776 484 778 c 1
 444 678 402 596 332 490 c 1
 384 512 436 530 494 530 c 0
 642 530 678 418 678 348 c 0
 678 132 380 -42 154 -42 c 0
EndSplineSet
Substitution2: "'subs' Subscript lookup 7-1" uni2085
Substitution2: "'onum' Minuskelziffern lookup" uniE005
EndChar

StartChar: six
Encoding: 54 54 20
Width: 628
VWidth: 2000
Flags: W
HStem: -42 48<159 325.465> 398 48<422.586 559.027>
VStem: 68 80<52.8343 189.545> 602 80<250.999 357.101>
LayerCount: 2
Fore
SplineSet
462 398 m 0
 402 398 302 370 158 200 c 1
 150 172 148 146 148 120 c 0
 148 52 200 6 262 6 c 0
 434 6 602 164 602 288 c 0
 602 354 566 398 462 398 c 0
532 446 m 0
 614 446 682 424 682 332 c 0
 682 182 434 -42 188 -42 c 0
 130 -42 68 6 68 76 c 0
 68 366 560 774 966 900 c 0
 970 902 974 902 976 902 c 0
 978 902 980 902 980 900 c 0
 980 892 934 846 910 838 c 0
 626 744 300 508 188 276 c 1
 242 326 394 446 532 446 c 0
EndSplineSet
Substitution2: "'subs' Subscript lookup 7-1" uni2086
Substitution2: "'onum' Minuskelziffern lookup" uniE006
EndChar

StartChar: seven
Encoding: 55 55 21
Width: 620
VWidth: 2000
Flags: W
HStem: -58 21G<103 112> 362 42<275.519 440.984> 380 24<516 684.346> 762 66<447.925 819.065>
VStem: 338 56<804 888>
LayerCount: 2
Fore
SplineSet
208 -4 m 0xb8
 200 -16 176 -18 166 -22 c 0
 136 -34 118 -58 106 -58 c 0
 100 -58 96 -56 96 -50 c 0
 96 -46 98 -40 108 -26 c 0
 248 154 340 264 446 376 c 1
 338 370 294 362 278 362 c 0
 270 362 266 364 266 368 c 0
 266 372 270 376 276 384 c 0
 282 392 290 404 302 404 c 2xd8
 472 404 l 1
 856 792 l 1
 816 782 716 762 590 762 c 0
 514 762 438 762 378 778 c 0
 356 784 338 792 338 804 c 0
 338 814 354 832 362 848 c 0
 376 874 384 892 390 892 c 0
 392 892 394 892 394 888 c 0
 394 838 584 828 628 828 c 0
 690 828 898 842 930 866 c 0
 946 878 958 888 962 888 c 0
 970 888 970 882 970 876 c 0
 970 870 962 858 878 778 c 0
 722 628 608 510 516 404 c 1
 694 404 l 2
 698 404 702 402 702 398 c 0
 702 384 564 380 494 380 c 1
 382 248 300 134 208 -4 c 0xb8
EndSplineSet
Substitution2: "'subs' Subscript lookup 7-1" uni2087
Substitution2: "'onum' Minuskelziffern lookup" uniE007
EndChar

StartChar: eight
Encoding: 56 56 22
Width: 660
VWidth: 2000
Flags: W
HStem: -24 52<210.34 395.85> 598 20G<731 742> 626 18<666.047 725.567> 854 32<673.988 791.924>
VStem: 56 88<86.8421 221.995> 412 70<591.843 696.417> 634 64<232.778 336.752> 788 88<735.911 830.097>
LayerCount: 2
Fore
SplineSet
484 482 m 1
 298 390 144 278 144 152 c 0
 144 102 176 28 320 28 c 0
 516 28 634 160 634 256 c 0
 634 360 546 412 484 482 c 1
876 802 m 0
 876 712 754 626 680 626 c 0
 670 626 666 630 666 636 c 0
 666 640 670 644 678 644 c 0
 684 644 688 640 698 640 c 0
 732 640 788 716 788 776 c 0
 788 808 770 854 696 854 c 0
 596 854 482 752 482 666 c 0
 482 612 508 578 546 542 c 1
 620 564 722 618 740 618 c 1
 740 618 742 618 742 616 c 0
 742 610 592 542 560 528 c 1
 606 480 698 406 698 316 c 0
 698 176 494 -24 272 -24 c 0
 142 -24 56 42 56 132 c 0
 56 322 320 426 470 500 c 1
 448 528 412 562 412 624 c 0
 412 764 646 886 754 886 c 0
 828 886 876 852 876 802 c 0
EndSplineSet
Substitution2: "'subs' Subscript lookup 7-1" uni2088
Substitution2: "'onum' Minuskelziffern lookup" uniE008
EndChar

StartChar: nine
Encoding: 57 57 23
Width: 634
VWidth: 2000
Flags: W
HStem: -24 32<219.34 349.721> 268 12<223.81 259.823> 470 32<478.615 607.604> 852 34<602.518 746>
VStem: 74 80<61.1055 209.436> 340 74<551.752 675.81> 760 92<671.89 805.208>
LayerCount: 2
Fore
SplineSet
340 596 m 0
 340 720 504 886 718 886 c 0
 774 886 852 852 852 764 c 0
 852 682 772 552 754 516 c 0
 496 6 374 -24 246 -24 c 0
 148 -24 74 36 74 120 c 0
 74 214 120 250 170 258 c 0
 204 264 230 280 246 280 c 0
 254 280 260 280 260 272 c 0
 260 268 258 266 254 266 c 0
 250 266 244 268 236 268 c 0
 192 268 154 198 154 128 c 0
 154 60 206 8 294 8 c 0
 452 8 536 200 684 514 c 1
 628 486 554 470 506 470 c 0
 426 470 340 500 340 596 c 0
644 852 m 0
 530 852 414 744 414 620 c 0
 414 538 482 502 552 502 c 0
 598 502 660 518 698 550 c 1
 734 634 760 692 760 746 c 0
 760 786 722 852 644 852 c 0
EndSplineSet
Substitution2: "'subs' Subscript lookup 7-1" uni2089
Substitution2: "'onum' Minuskelziffern lookup" uniE009
EndChar

StartChar: less
Encoding: 60 60 26
Width: 490
VWidth: 2000
Flags: W
HStem: 598 20G<546 553>
VStem: 176 60<283.967 343.972>
LayerCount: 2
Fore
SplineSet
236 330 m 0
 236 304 370 112 370 94 c 0
 370 86 350 84 340 78 c 0
 328 72 320 66 310 66 c 0
 300 66 176 272 176 302 c 0
 176 322 196 344 206 352 c 0
 312 424 540 618 552 618 c 0
 554 618 558 614 558 610 c 0
 558 606 548 596 544 594 c 0
 238 352 236 354 236 330 c 0
EndSplineSet
EndChar

StartChar: question
Encoding: 63 63 29
Width: 518
VWidth: 2000
Flags: W
HStem: -8 128<160.466 205.634> 838 48<501.556 646>
VStem: 124 122<32.7403 82.8618> 248 70<320.528 407.403> 656 78<698.583 794>
LayerCount: 2
Fore
SplineSet
538 838 m 0
 452 838 372 754 356 754 c 0
 350 754 348 756 348 758 c 0
 348 760 348 762 354 768 c 0
 424 828 504 886 610 886 c 0
 682 886 734 844 734 766 c 0
 734 656 586 600 498 552 c 0
 436 518 318 458 318 374 c 0
 318 332 392 254 392 250 c 0
 392 236 362 234 346 228 c 0
 328 222 320 220 312 220 c 0
 300 220 248 300 248 344 c 0
 250 438 382 512 480 566 c 0
 548 604 656 636 656 734 c 0
 656 792 606 838 538 838 c 0
EndSplineSet
Refer: 12 46 N 1 0 0 1 12 0 2
EndChar

StartChar: at
Encoding: 64 64 30
Width: 926
VWidth: 2000
Flags: W
HStem: -30 40<372.016 593.058> 190 40<643 764.455> 208 30<427 517.191> 558 8<629.982 680.999> 754 40<607.246 797.726>
VStem: 148 66<164.729 376.2> 370 74<245.304 380.485> 592 74<236.181 264> 956 66<456.61 619.805>
LayerCount: 2
Fore
SplineSet
600 288 m 1xbf80
 624 368 666 440 726 510 c 1
 716 540 690 558 656 558 c 0
 556 558 444 400 444 300 c 0
 444 278 454 238 486 238 c 0
 520 238 566 266 600 288 c 1xbf80
712 230 m 0xdf80
 876 230 956 436 956 530 c 0
 956 676 814 754 694 754 c 0
 380 754 214 506 214 272 c 0
 214 116 336 10 464 10 c 0
 622 10 748 44 852 140 c 0
 866 152 896 168 908 168 c 0
 910 168 912 168 912 166 c 1
 912 166 740 -30 430 -30 c 0
 274 -30 148 92 148 236 c 0
 148 572 470 794 752 794 c 0
 874 794 1022 714 1022 566 c 0
 1022 390 850 190 664 190 c 0xdf80
 622 190 592 216 592 250 c 0
 592 254 594 260 594 264 c 1
 562 242 502 208 450 208 c 0xbf80
 404 208 370 244 370 292 c 0
 370 424 520 566 644 566 c 0
 682 566 728 562 742 524 c 1
 752 534 768 542 774 544 c 0
 782 548 798 554 814 554 c 0
 820 554 820 550 820 548 c 0
 820 544 812 538 806 532 c 0
 770 496 748 466 718 416 c 0
 698 382 666 318 666 270 c 0
 666 248 686 230 712 230 c 0xdf80
EndSplineSet
EndChar

StartChar: A
Encoding: 65 65 31
Width: 980
VWidth: 2000
Flags: W
HStem: -14 22<-49.5476 -8.65771> -8 34<745 868.907> 234 20G<1155 1157> 286 32<529.994 700.107> 308 34<404 511.345>
VStem: 692 88<52.6477 294.405>
AnchorPoint: "below" 356 -100 basechar 0
AnchorPoint: "cedilla" 790 0 basechar 0
AnchorPoint: "above" 940 1000 basechar 0
LayerCount: 2
Fore
SplineSet
404 342 m 1x2c
 438 342 l 2x2c
 516 342 596 318 666 318 c 0x34
 676 318 690 318 706 320 c 1
 732 526 806 798 806 802 c 0
 806 806 806 808 804 808 c 0
 800 808 786 794 776 780 c 1
 404 342 l 1x2c
372 306 m 1
 260 178 160 70 102 22 c 1
 78 4 54 -2 16 -6 c 0
 0 -8 -18 -14 -38 -14 c 0
 -44 -14 -50 -12 -50 -6 c 0
 -50 2 -42 6 -34 8 c 0xac
 -16 14 12 28 30 44 c 0
 198 190 398 378 746 784 c 0
 818 868 822 862 876 884 c 0
 888 888 910 902 920 902 c 0
 924 902 928 898 928 894 c 2
 928 892 l 2
 928 874 908 840 906 830 c 1
 870 734 816 512 792 332 c 1
 880 354 926 408 936 408 c 0
 940 408 942 408 942 402 c 0
 942 392 862 332 790 314 c 1
 784 262 780 216 780 178 c 0
 780 62 806 26 844 26 c 0
 898 26 992 92 1050 142 c 0
 1102 188 1140 236 1148 248 c 0
 1152 254 1154 254 1156 254 c 0
 1158 254 1160 252 1160 250 c 0
 1160 248 1160 248 1158 244 c 0
 1084 146 1018 90 926 36 c 0
 874 6 824 -8 786 -8 c 0
 704 -8 692 48 692 154 c 0
 692 202 696 254 702 296 c 1
 630 288 606 286 582 286 c 0x74
 508 286 434 308 392 308 c 0
 384 308 378 308 372 306 c 1
EndSplineSet
EndChar

StartChar: B
Encoding: 66 66 32
Width: 900
VWidth: 2000
Flags: W
HStem: -24 24<439.252 554.124> 442 21G<571 590> 476 16<661.516 748.456> 842 44<715.686 838>
VStem: 266 70<77.1639 135.669> 810 90<251.851 427.217> 834 92<703.652 814.618>
AnchorPoint: "below" 396 -100 basechar 0
AnchorPoint: "above" 868 1000 basechar 0
LayerCount: 2
Fore
SplineSet
284 258 m 0xfa
 194 76 164 0 126 -110 c 0
 122 -124 104 -124 82 -132 c 0
 66 -138 54 -146 44 -146 c 0
 40 -146 36 -144 36 -138 c 0
 36 -128 40 -122 238 260 c 0
 434 640 624 886 812 886 c 0
 864 886 926 864 926 796 c 0xfa
 926 654 770 520 660 486 c 1
 680 488 718 492 736 492 c 0
 820 492 900 458 900 340 c 0
 900 240 808 142 742 86 c 0
 678 32 588 -24 448 -24 c 0
 344 -24 266 52 266 124 c 0
 266 132 290 134 308 144 c 0
 330 156 334 162 338 162 c 0
 340 162 342 160 342 158 c 0
 342 154 336 152 336 146 c 0
 336 74 408 0 502 0 c 0
 614 0 810 142 810 370 c 1xfc
 808 428 774 476 708 476 c 0
 632 476 606 442 574 442 c 0
 568 442 564 450 560 456 c 0
 558 460 552 462 552 468 c 0
 552 482 598 480 616 486 c 0
 712 518 834 648 834 762 c 0
 834 812 792 842 738 842 c 0
 650 842 516 726 284 258 c 0xfa
EndSplineSet
EndChar

StartChar: C
Encoding: 67 67 33
Width: 860
VWidth: 2000
Flags: W
HStem: -24 32<380.628 552.241> 220 20G<800 809> 736 21G<932 936> 842 44<703.727 862.709>
VStem: 160 96<129.438 357.143> 790 44<166.979 235.37>
AnchorPoint: "above" 850 1000 basechar 0
AnchorPoint: "cedilla" 414 0 basechar 0
LayerCount: 2
Fore
SplineSet
944 744 m 0
 940 738 938 736 934 736 c 0
 930 736 928 740 928 744 c 0
 928 788 854 842 784 842 c 0
 686 842 626 808 592 788 c 1
 420 676 256 464 256 228 c 0
 256 106 340 8 456 8 c 0
 664 8 756 110 790 216 c 0
 794 230 798 240 802 240 c 0
 816 240 834 208 834 194 c 0
 834 154 696 -24 422 -24 c 0
 272 -24 160 86 160 234 c 0
 160 450 354 684 578 810 c 1
 668 862 758 886 848 886 c 0
 952 886 992 820 992 808 c 0
 992 790 960 772 944 744 c 0
EndSplineSet
EndChar

StartChar: D
Encoding: 68 68 34
Width: 1194
VWidth: 2000
Flags: W
HStem: -20 26<716.12 863.342> -16 42<201.369 304.488> 296 56<352.053 448> 582 21G<388 394> 868 18<682.071 822> 1006 24<702.322 805.365>
VStem: 130 56<41.4607 130.934> 336 56<607.914 684.229> 840 80<884.385 985.748> 1170 86<361.671 620.414>
AnchorPoint: "cedilla" 716 0 basechar 0
AnchorPoint: "below" 456 -100 basechar 0
AnchorPoint: "above" 916 1060 basechar 0
LayerCount: 2
Fore
SplineSet
480 186 m 1x7fc0
 440 242 404 296 360 296 c 0
 276 296 186 162 186 90 c 0
 186 52 206 26 266 26 c 0
 314 26 400 68 480 186 c 1x7fc0
558 240 m 1
 608 152 640 6 778 6 c 0xbfc0
 1016 6 1170 286 1170 516 c 0
 1170 716 1072 820 904 854 c 1
 904 854 692 428 558 240 c 1
392 614 m 0
 392 594 398 590 398 586 c 0
 398 584 396 582 392 582 c 0
 384 582 376 590 364 602 c 0
 350 616 336 620 336 636 c 0
 336 780 576 886 766 886 c 0
 788 886 810 886 830 884 c 1
 836 898 840 914 840 928 c 0
 840 984 810 1006 740 1006 c 0
 672 1006 614 954 606 954 c 0
 602 954 600 956 600 960 c 0
 600 964 676 1030 774 1030 c 0
 828 1030 920 1012 920 926 c 0
 920 910 916 892 910 874 c 1
 1142 836 1256 696 1256 468 c 0
 1256 212 1040 -20 780 -20 c 0xbfc0
 630 -20 582 54 498 162 c 1
 468 128 438 96 408 70 c 0
 344 16 270 -16 226 -16 c 0x7fc0
 178 -16 130 4 130 56 c 0
 130 166 314 352 428 352 c 0
 468 352 504 318 534 276 c 1
 662 504 774 744 822 866 c 1
 802 868 782 868 760 868 c 0
 594 868 392 740 392 614 c 0
EndSplineSet
EndChar

StartChar: E
Encoding: 69 69 35
Width: 834
VWidth: 2000
Flags: W
HStem: -24 42<371.433 558.997> 730 21G<951 957> 862 24<682.924 830.061>
VStem: 158 100<115.56 299.516> 484 68<658.958 754.402> 778 40<182.606 268.615> 946 48<760.047 783.444>
AnchorPoint: "below" 356 -100 basechar 0
AnchorPoint: "cedilla" 432 0 basechar 0
AnchorPoint: "above" 844 1000 basechar 0
LayerCount: 2
Fore
SplineSet
430 -24 m 0
 308 -24 158 56 158 190 c 0
 158 480 556 536 556 554 c 0
 556 556 556 562 544 570 c 0
 500 600 484 646 484 684 c 0
 484 764 582 886 782 886 c 0
 826 886 994 868 994 806 c 0
 994 786 980 780 966 746 c 0
 962 738 960 730 954 730 c 0
 948 730 948 736 946 742 c 0
 934 784 872 862 760 862 c 0
 578 862 552 776 552 736 c 0
 552 688 582 626 628 600 c 1
 658 586 668 582 668 576 c 0
 668 558 664 540 626 536 c 0
 322 500 258 336 258 204 c 0
 258 64 386 18 474 18 c 0
 670 18 778 140 778 250 c 0
 778 262 774 270 774 276 c 0
 774 278 774 282 778 282 c 0
 780 282 790 274 802 266 c 1
 812 258 818 256 818 244 c 0
 818 170 680 -24 430 -24 c 0
EndSplineSet
EndChar

StartChar: F
Encoding: 70 70 36
Width: 768
VWidth: 2000
Flags: W
HStem: -28 21G<146 168> 404 40<311.077 434 542 708.25> 432 20G<542 733> 824 46<442.366 640 742 937.252> 1066 20<530.359 617.267>
VStem: 668 84<873.099 1025.7> 732 4<451.692 452>
AnchorPoint: "above" 748 1060 basechar 0
LayerCount: 2
Fore
SplineSet
726 830 m 1xdc
 694 742 634 616 542 444 c 1xdc
 732 450 732 452 732 452 c 2
 734 452 736 452 736 450 c 0
 736 446 730 440 720 432 c 0xba
 696 414 698 404 520 404 c 1
 414 208 310 32 286 -2 c 0
 278 -12 262 -22 254 -22 c 0
 238 -24 180 -28 156 -28 c 2
 148 -28 l 2
 144 -28 142 -26 142 -22 c 0
 142 -16 168 -18 192 16 c 0
 264 116 354 260 434 402 c 1
 264 402 262 378 246 378 c 1
 246 378 244 378 244 380 c 0
 244 386 262 400 282 410 c 0
 312 426 334 442 456 442 c 1
 534 586 604 726 640 828 c 1
 612 828 580 826 548 824 c 0
 302 812 304 762 292 762 c 0
 288 762 286 764 286 768 c 0
 286 772 294 782 308 796 c 0
 330 818 372 842 424 852 c 0
 488 864 566 868 654 870 c 1
 664 902 668 928 668 948 c 0
 668 996 656 1066 570 1066 c 0
 502 1066 470 1030 454 1016 c 0
 448 1010 442 1002 438 1002 c 0
 436 1002 432 1002 432 1006 c 0
 432 1010 442 1020 448 1026 c 0
 484 1060 532 1086 586 1086 c 0
 688 1086 752 1046 752 938 c 0
 752 920 750 898 742 872 c 1
 844 874 956 880 1076 894 c 0
 1104 898 1116 898 1122 898 c 2
 1130 898 l 2
 1132 898 1142 898 1142 894 c 0
 1142 892 1140 890 1136 888 c 0
 1094 860 1058 852 1006 846 c 0
 896 834 812 832 726 830 c 1xdc
EndSplineSet
EndChar

StartChar: G
Encoding: 71 71 37
Width: 1110
VWidth: 2000
Flags: W
HStem: -808 18<175.035 283.682> -22 24<331.662 456.636> 234 20G<1285 1287> 718 21G<1053 1059> 866 18<876.361 980.296>
VStem: 14 76<-678.759 -456.282> 164 86<85.6724 286.827> 1046 56<771.046 823.026> 1154 98<695.348 745>
AnchorPoint: "below" 120 -940 basechar 0
AnchorPoint: "above" 1030 1000 basechar 0
LayerCount: 2
Fore
SplineSet
734 -88 m 1
 596 -112 474 -136 392 -168 c 1
 170 -258 90 -434 90 -596 c 0
 90 -700 122 -790 224 -790 c 0
 342 -790 422 -704 470 -620 c 0
 556 -472 664 -244 734 -88 c 1
742 -68 m 1
 814 82 834 118 912 262 c 1
 804 172 544 -22 382 -22 c 0
 276 -22 164 42 164 180 c 0
 164 282 214 406 290 506 c 0
 430 688 714 884 960 884 c 0
 994 884 1102 864 1102 814 c 0
 1102 804 1088 788 1078 766 c 0
 1068 744 1062 718 1056 718 c 0
 1050 718 1044 720 1044 724 c 0
 1044 732 1046 740 1046 758 c 0
 1046 804 1012 866 936 866 c 0
 818 866 608 742 468 602 c 1
 358 494 252 308 250 170 c 1
 250 68 304 2 388 2 c 0
 542 2 788 192 904 300 c 1
 950 346 1078 566 1154 736 c 0
 1162 756 1168 770 1178 770 c 0
 1188 770 1252 742 1252 718 c 0
 1252 674 1194 570 1128 494 c 0
 1068 424 1026 330 986 254 c 2
 828 -50 l 1
 962 -12 1094 68 1180 142 c 0
 1232 188 1270 236 1278 248 c 0
 1282 254 1284 254 1286 254 c 0
 1288 254 1290 252 1290 250 c 0
 1290 248 1290 248 1288 244 c 0
 1214 146 1148 90 1056 36 c 0
 980 -8 900 -46 816 -70 c 1
 756 -186 706 -318 612 -480 c 1
 536 -604 408 -808 222 -808 c 0
 94 -808 14 -704 14 -568 c 1
 16 -354 230 -202 414 -140 c 0
 498 -112 640 -86 742 -68 c 1
EndSplineSet
EndChar

StartChar: H
Encoding: 72 72 38
Width: 1044
VWidth: 2000
Flags: W
HStem: -24 48<739 905.431> 234 20G<1219 1221> 368 36<442 675.335> 858 28<364.362 466.07>
VStem: 496 78<703.874 837.045> 678 100<42.0022 161.151>
AnchorPoint: "cedilla" 138 0 basechar 0
AnchorPoint: "below" 396 -100 basechar 0
AnchorPoint: "above" 838 1000 basechar 0
LayerCount: 2
Fore
SplineSet
984 36 m 1
 904 -10 848 -24 784 -24 c 0
 694 -24 678 32 678 72 c 0
 678 134 748 280 814 406 c 1
 690 382 586 368 456 368 c 0
 428 368 402 370 380 374 c 1
 320 262 236 106 192 10 c 0
 184 -6 150 -4 120 -10 c 0
 92 -16 98 -20 88 -20 c 0
 84 -20 82 -18 82 -16 c 0
 82 -8 92 8 148 106 c 2
 322 410 l 1
 318 418 314 432 314 440 c 0
 314 460 342 472 356 472 c 1
 410 568 496 724 496 782 c 0
 496 816 476 858 418 858 c 0
 360 858 314 842 254 782 c 0
 242 770 236 760 232 760 c 0
 228 760 226 762 226 766 c 0
 226 770 234 782 248 796 c 0
 314 864 382 886 454 886 c 0
 538 886 574 840 574 786 c 0
 574 724 508 612 416 442 c 1
 480 410 542 404 596 404 c 0
 670 404 754 416 828 432 c 1
 902 570 978 706 1054 842 c 0
 1064 860 1086 860 1118 868 c 0
 1142 874 1156 886 1176 886 c 0
 1180 886 1182 884 1182 880 c 0
 1182 866 1142 820 1130 804 c 1
 1040 670 962 526 922 454 c 1
 990 470 998 478 1006 478 c 0
 1010 478 1012 476 1012 472 c 0
 1012 448 956 440 910 428 c 1
 856 322 778 156 778 102 c 0
 778 52 802 24 856 24 c 0
 920 24 964 44 990 58 c 1
 1002 66 1042 86 1112 142 c 1
 1166 188 1202 236 1212 248 c 0
 1216 254 1218 254 1220 254 c 0
 1222 254 1224 252 1224 250 c 0
 1224 248 1224 248 1222 244 c 0
 1148 146 1090 100 984 36 c 1
EndSplineSet
EndChar

StartChar: I
Encoding: 73 73 39
Width: 690
VWidth: 2000
Flags: W
HStem: -12 18<203 318.682> 214 20G<158 161> 776 20<442.637 548> 950 24<491.547 570.611>
VStem: 76 70<87.4158 189.887> 340 56<815.803 893.698> 602 46<854.179 931.1>
AnchorPoint: "cedilla" 202 0 basechar 0
AnchorPoint: "above" 806 1000 basechar 0
LayerCount: 2
Fore
SplineSet
564 796 m 1
 582 822 602 856 602 882 c 0
 602 926 568 950 524 950 c 0
 472 950 396 926 396 854 c 0
 396 796 484 796 564 796 c 1
146 162 m 0
 146 90 212 6 282 6 c 0
 358 6 412 84 470 208 c 0
 590 460 704 648 820 810 c 1
 774 796 630 778 576 776 c 1
 540 730 436 630 370 574 c 0
 366 570 350 558 346 558 c 0
 344 558 342 560 342 562 c 0
 342 566 348 574 358 582 c 0
 398 614 508 726 548 776 c 1
 458 776 340 784 340 844 c 0
 340 926 500 974 564 974 c 0
 608 974 648 960 648 918 c 0
 648 884 614 832 592 798 c 1
 666 802 746 812 812 836 c 0
 838 846 912 856 938 856 c 0
 944 856 946 854 946 850 c 0
 946 844 926 838 918 826 c 0
 772 616 692 476 568 224 c 0
 512 110 416 -12 242 -12 c 0
 164 -12 76 42 76 136 c 0
 76 144 88 154 100 166 c 0
 132 198 156 234 160 234 c 0
 162 234 166 234 166 230 c 0
 166 226 146 216 146 162 c 0
EndSplineSet
EndChar

StartChar: J
Encoding: 74 74 40
Width: 704
VWidth: 2000
Flags: W
HStem: -848 28<-196.333 -105.638> 234 20G<879 881> 776 20<436.637 542> 950 24<485.547 564.611>
VStem: -334 78<-758.982 -516.355> 334 56<815.803 893.698> 596 46<854.179 931.1>
AnchorPoint: "above" 780 1000 basechar 0
LayerCount: 2
Fore
SplineSet
352 -58 m 1
 270 -78 190 -100 122 -134 c 0
 -138 -268 -254 -400 -256 -642 c 0
 -256 -752 -218 -820 -150 -820 c 0
 -68 -820 -10 -758 46 -676 c 0
 194 -456 272 -254 352 -58 c 1
806 836 m 0
 832 846 906 856 932 856 c 0
 938 856 940 854 940 850 c 0
 940 844 922 838 912 826 c 0
 756 638 688 478 568 224 c 2
 458 -10 l 1
 524 6 586 22 644 52 c 0
 690 76 738 112 774 142 c 1
 826 188 864 236 872 248 c 0
 876 254 878 254 880 254 c 0
 882 254 884 252 884 250 c 0
 884 248 884 248 882 244 c 0
 808 146 744 88 650 38 c 0
 588 4 516 -18 444 -36 c 1
 334 -264 212 -500 92 -668 c 0
 36 -746 -58 -848 -182 -848 c 0
 -276 -848 -334 -780 -334 -636 c 0
 -334 -460 -200 -244 118 -104 c 0
 204 -66 286 -46 364 -30 c 1
 396 50 430 128 470 208 c 1
 542 360 632 534 722 670 c 2
 814 810 l 1
 768 796 624 778 570 776 c 1
 534 730 430 630 364 574 c 0
 360 570 344 558 340 558 c 0
 338 558 336 560 336 562 c 0
 336 566 342 574 352 582 c 0
 392 614 502 726 542 776 c 1
 452 776 334 784 334 844 c 0
 334 926 494 974 558 974 c 0
 602 974 642 960 642 918 c 0
 642 884 608 832 586 798 c 1
 660 802 740 812 806 836 c 0
558 796 m 1
 576 822 596 856 596 882 c 0
 596 926 562 950 518 950 c 0
 466 950 390 926 390 854 c 0
 390 796 478 796 558 796 c 1
EndSplineSet
EndChar

StartChar: K
Encoding: 75 75 41
Width: 814
VWidth: 2000
Flags: W
HStem: -206 22<825.351 945.981> -28 21G<36 97> 446 21G<226 231> 858 28<364.362 466.685>
VStem: 500 82<688.748 835.162>
AnchorPoint: "above" 756 1000 basechar 0
AnchorPoint: "below" 312 -100 basechar 0
LayerCount: 2
Fore
SplineSet
370 448 m 1
 396 494 l 1
 378 488 356 480 350 478 c 1
 356 466 362 458 370 448 c 1
454 886 m 0
 538 886 582 840 582 786 c 0
 582 724 540 632 506 566 c 1
 652 632 938 770 1016 828 c 0
 1038 844 1094 876 1108 876 c 0
 1110 876 1112 874 1112 872 c 0
 1112 860 990 752 848 694 c 1
 490 534 l 1
 408 384 l 1
 474 272 518 190 610 50 c 0
 684 -62 760 -184 888 -184 c 0
 960 -184 1014 -158 1074 -112 c 0
 1076 -110 1080 -108 1082 -108 c 1
 1082 -108 1084 -108 1084 -110 c 0
 1084 -148 966 -206 866 -206 c 0
 710 -206 642 -152 544 -4 c 0
 484 88 422 190 362 300 c 1
 298 186 230 74 172 -2 c 0
 162 -14 152 -28 42 -28 c 0
 30 -28 28 -28 28 -22 c 0
 28 -16 52 -16 80 16 c 0
 158 106 250 242 324 368 c 1
 306 398 266 450 248 450 c 0
 242 450 234 446 228 446 c 0
 224 446 220 450 220 454 c 0
 220 460 360 510 414 528 c 1
 448 590 500 686 500 758 c 0
 500 822 476 858 418 858 c 0
 360 858 314 842 254 782 c 0
 242 770 236 760 232 760 c 0
 228 760 226 762 226 766 c 0
 226 770 234 782 248 796 c 0
 314 864 382 886 454 886 c 0
EndSplineSet
EndChar

StartChar: L
Encoding: 76 76 42
Width: 768
VWidth: 2000
Flags: W
HStem: -304 50<895.627 1102.81> -24 42<141 238.947> 256 54<304.148 384.619> 848 38<574.155 668.172>
VStem: 94 60<-1 86.0869> 680 78<705.569 838.806>
AnchorPoint: "middleright" 770 400 basechar 0
AnchorPoint: "aboveright" 884 766 basechar 0
AnchorPoint: "below" 324 -100 basechar 0
AnchorPoint: "above" 734 1000 basechar 0
LayerCount: 2
Fore
SplineSet
482 782 m 0
 470 770 464 760 460 760 c 0
 456 760 454 762 454 766 c 0
 454 770 462 782 476 796 c 0
 520 842 584 886 658 886 c 0
 700 886 758 868 758 796 c 0
 758 676 530 302 452 194 c 1
 528 -34 794 -254 1026 -254 c 0
 1120 -254 1172 -226 1218 -182 c 0
 1238 -162 1244 -142 1254 -142 c 0
 1256 -142 1258 -144 1258 -148 c 0
 1258 -156 1252 -172 1230 -198 c 0
 1172 -266 1080 -304 970 -304 c 0
 788 -304 512 -200 408 138 c 1
 344 60 248 -24 156 -24 c 0
 126 -24 94 -18 94 16 c 0
 94 112 278 310 368 310 c 0
 400 310 420 276 436 238 c 1
 610 512 680 718 680 776 c 0
 680 812 672 848 628 848 c 0
 602 848 542 842 482 782 c 0
396 178 m 1
 384 220 360 256 334 256 c 0
 258 256 154 136 154 56 c 0
 154 36 166 18 192 18 c 0
 274 18 338 96 396 178 c 1
EndSplineSet
EndChar

StartChar: M
Encoding: 77 77 43
Width: 1170
VWidth: 2000
Flags: W
HStem: -302 48<1136.73 1292.43> -28 21G<36 97> 816 48<698.412 778.905> 850 36<356.602 441.811> 852 48<1127.47 1212.3>
VStem: 464 86<694.922 831.342> 812 80<720 780.298> 922 82<-104.179 142.53> 1238 90<733.822 825.871>
AnchorPoint: "below" 542 -100 basechar 0
AnchorPoint: "above" 974 1088 basechar 0
LayerCount: 2
Fore
SplineSet
536 706 m 1xd780
 602 774 690 864 776 864 c 0xe780
 836 864 892 836 892 720 c 1
 1034 850 1152 900 1216 900 c 0
 1272 900 1328 870 1328 812 c 0
 1328 652 1004 416 1004 34 c 0
 1004 -176 1118 -254 1226 -254 c 0
 1328 -254 1396 -186 1430 -144 c 0
 1452 -116 1450 -112 1456 -112 c 0
 1458 -112 1460 -114 1460 -116 c 0
 1460 -154 1346 -302 1192 -302 c 0
 1042 -302 922 -202 922 -12 c 0
 922 346 1238 586 1238 772 c 0
 1238 832 1186 852 1150 852 c 0
 1148 852 1146 852 1144 852 c 0xcf80
 1082 850 1014 804 880 670 c 1
 870 646 860 622 846 602 c 0
 832 582 770 550 752 550 c 0
 748 550 744 550 744 554 c 0
 744 574 790 618 804 632 c 1
 810 648 812 666 812 688 c 0
 812 802 754 816 722 816 c 0xe780
 672 816 556 700 492 608 c 1
 346 370 234 104 166 -2 c 0
 158 -16 152 -28 42 -28 c 0
 30 -28 28 -28 28 -22 c 0
 28 -16 54 -18 80 16 c 0
 126 74 168 158 216 248 c 0
 360 514 464 680 464 772 c 0
 464 824 434 850 396 850 c 0
 370 850 314 842 254 782 c 0
 242 770 236 762 232 762 c 0
 228 762 226 764 226 768 c 0
 226 772 234 782 248 796 c 0
 314 864 396 886 434 886 c 0
 518 886 550 840 550 786 c 0
 550 756 546 734 536 706 c 1xd780
EndSplineSet
EndChar

StartChar: N
Encoding: 78 78 44
Width: 910
VWidth: 2000
Flags: W
HStem: -32 29G<90 98 618 644> 294 34<149 195> 798 76<1121.53 1192.81> 808 64<577.786 659>
VStem: 170 70<248 291.435> 594 82<74 807.997>
AnchorPoint: "below" 326 -100 basechar 0
AnchorPoint: "above" 912 1000 basechar 0
LayerCount: 2
Fore
SplineSet
710 36 m 0xec
 692 -10 654 -24 634 -24 c 0
 602 -24 594 18 594 72 c 2
 598 760 l 2
 598 804 598 808 592 808 c 0
 580 808 570 788 562 772 c 2
 174 36 l 2
 158 4 138 4 118 -10 c 0
 102 -20 104 -32 92 -32 c 0
 88 -32 86 -30 86 -28 c 0
 86 -22 110 26 130 76 c 1
 148 124 170 180 170 230 c 0
 170 262 164 294 154 294 c 0
 144 294 136 284 128 284 c 0
 126 284 124 288 124 290 c 0
 124 292 140 300 156 310 c 0
 170 318 180 328 188 328 c 0
 202 328 224 314 232 292 c 0
 236 280 240 264 240 248 c 1
 548 814 l 1
 562 844 596 872 648 872 c 0xdc
 670 872 682 858 682 812 c 2
 676 74 l 1
 706 150 996 736 1064 802 c 1
 1084 820 1130 874 1182 874 c 0
 1208 874 1230 860 1230 852 c 0
 1230 842 1224 838 1208 824 c 0
 1184 802 1158 774 1152 774 c 0
 1148 774 1146 778 1146 780 c 0
 1146 788 1136 798 1122 798 c 0
 1102 798 1086 788 1070 764 c 0
 948 586 742 118 710 36 c 0xec
EndSplineSet
EndChar

StartChar: O
Encoding: 79 79 45
Width: 960
VWidth: 2000
Flags: W
HStem: -24 60<372.986 569.357> 696 21G<887 893> 852 34<642.151 798.338>
VStem: 154 82<184.991 382.094> 880 56<736.006 784.713> 1008 62<485.604 721.867>
AnchorPoint: "below" 388 -100 basechar 0
AnchorPoint: "cedilla" 438 0 basechar 0
AnchorPoint: "above" 840 1000 basechar 0
LayerCount: 2
Fore
SplineSet
1070 630 m 0
 1070 272 692 -24 446 -24 c 0
 298 -24 154 72 154 248 c 0
 154 384 236 552 318 652 c 0
 436 796 600 886 768 886 c 0
 836 886 936 832 936 778 c 0
 936 770 924 756 914 736 c 0
 904 718 896 696 890 696 c 0
 884 696 880 700 880 706 c 0
 880 822 780 852 726 852 c 0
 568 852 446 768 356 634 c 0
 294 542 236 422 236 306 c 0
 236 146 330 36 472 36 c 0
 732 36 1008 308 1008 594 c 0
 1008 714 942 832 942 834 c 0
 942 840 978 888 994 888 c 0
 1036 888 1070 726 1070 630 c 0
EndSplineSet
EndChar

StartChar: P
Encoding: 80 80 46
Width: 840
VWidth: 2000
Flags: W
HStem: -32 21G<74 80> 635 39<372.705 405.991> 830 56<778.669 887.085>
VStem: 930 84<678.406 786.611>
AnchorPoint: "above" 922 1000 basechar 0
LayerCount: 2
Fore
SplineSet
364 364 m 1
 480 394 548 416 644 452 c 0
 772 500 930 616 930 720 c 0
 930 774 894 830 820 830 c 0
 634 830 454 530 364 364 c 1
100 34 m 0
 160 132 214 224 262 312 c 1
 288 362 406 578 406 620 c 0
 406 632 393 635 378 635 c 0
 369 635 360 634 352 634 c 0
 344 634 342 636 342 642 c 0
 342 652 462 674 474 674 c 0
 482 674 488 670 488 664 c 0
 488 656 450 580 418 516 c 1
 442 560 470 604 506 650 c 1
 606 772 754 886 876 886 c 0
 954 886 1014 844 1014 760 c 0
 1014 600 782 480 644 426 c 0
 532 382 458 362 356 332 c 1
 294 208 224 64 200 4 c 0
 190 -20 152 0 104 -18 c 0
 84 -26 84 -32 76 -32 c 0
 72 -32 66 -30 66 -26 c 0
 66 -20 92 20 100 34 c 0
EndSplineSet
EndChar

StartChar: Q
Encoding: 81 81 47
Width: 960
VWidth: 2000
Flags: W
HStem: -372 52<885.607 1085.04> -24 60<372.986 568.378> 696 21G<887 893> 852 34<642.151 798.338>
VStem: 154 82<184.991 382.094> 526 76<151.953 390.735> 880 56<736.006 784.713> 1008 62<488.969 721.867> 1298 28<-158.645 -116.006>
AnchorPoint: "below" 388 -100 basechar 0
AnchorPoint: "cedilla" 438 0 basechar 0
AnchorPoint: "above" 840 1000 basechar 0
LayerCount: 2
Fore
SplineSet
954 -372 m 0
 806 -372 672 -262 584 2 c 1
 536 -14 488 -24 446 -24 c 0
 298 -24 154 72 154 248 c 0
 154 384 236 552 318 652 c 0
 436 796 600 886 768 886 c 0
 836 886 936 832 936 778 c 0
 936 770 924 756 914 736 c 0
 904 718 896 696 890 696 c 0
 884 696 880 700 880 706 c 0
 880 822 780 852 726 852 c 0
 568 852 446 768 356 634 c 0
 294 542 236 422 236 306 c 0
 236 146 330 36 472 36 c 0
 504 36 538 40 570 48 c 1
 538 172 526 298 526 372 c 0
 526 380 580 412 596 412 c 0
 600 412 602 410 602 408 c 0
 598 366 596 326 596 288 c 0
 596 204 604 130 618 64 c 1
 826 140 1008 362 1008 594 c 0
 1008 714 942 832 942 834 c 0
 942 840 978 888 994 888 c 0
 1036 888 1070 726 1070 630 c 0
 1070 354 846 114 630 20 c 1
 676 -162 812 -320 1002 -320 c 0
 1172 -320 1286 -192 1298 -134 c 0
 1300 -124 1304 -116 1312 -116 c 0
 1322 -116 1326 -122 1326 -128 c 0
 1326 -144 1216 -372 954 -372 c 0
EndSplineSet
EndChar

StartChar: R
Encoding: 82 82 48
Width: 780
VWidth: 2000
Flags: W
HStem: -266 22<777.627 889.465> -32 21G<90 96> 846 40<733.22 883>
VStem: 894 74<702.004 801.252>
AnchorPoint: "below" 308 -100 basechar 0
AnchorPoint: "above" 902 1000 basechar 0
LayerCount: 2
Fore
SplineSet
316 414 m 1
 326 434 l 1
 314 432 306 430 306 430 c 1
 306 430 310 424 316 414 c 1
430 478 m 1
 516 496 894 582 894 738 c 0
 894 788 856 846 778 846 c 0
 632 846 540 686 430 478 c 1
92 -32 m 0
 88 -32 82 -30 82 -26 c 0
 82 -20 114 24 122 38 c 0
 240 254 224 238 298 378 c 1
 284 406 270 438 270 444 c 0
 270 448 296 452 340 460 c 1
 378 532 402 580 452 654 c 1
 546 804 726 886 848 886 c 0
 918 886 968 848 968 778 c 0
 968 648 820 538 416 452 c 1
 360 344 l 1
 582 -22 l 1
 662 -166 732 -244 842 -244 c 0
 918 -244 976 -206 1010 -158 c 1
 1018 -150 1032 -144 1042 -144 c 0
 1050 -144 1056 -148 1056 -152 c 2
 1056 -158 l 1
 994 -216 910 -266 808 -266 c 0
 720 -266 648 -238 594 -158 c 0
 518 -44 414 172 338 304 c 1
 286 194 238 56 216 4 c 0
 206 -20 168 0 120 -18 c 0
 100 -26 100 -32 92 -32 c 0
EndSplineSet
EndChar

StartChar: S
Encoding: 83 83 49
Width: 752
VWidth: 2000
Flags: W
HStem: -34 42<259.093 416.573> 214 20G<158 161> 740 21G<834 838> 842 44<631.484 772.111>
VStem: 76 72<105.096 199> 418 70<606.857 717.353> 624 82<200.15 312.949> 830 70<768.794 794.637>
AnchorPoint: "cedilla" 300 0 basechar 0
AnchorPoint: "below" 256 -100 basechar 0
AnchorPoint: "above" 788 1000 basechar 0
LayerCount: 2
Fore
SplineSet
76 136 m 0
 76 144 88 154 100 166 c 0
 132 198 156 234 160 234 c 0
 162 234 166 234 166 230 c 0
 166 226 148 208 148 190 c 0
 148 44 290 8 364 8 c 0
 532 8 624 144 624 228 c 0
 624 386 418 498 418 638 c 0
 418 778 612 886 746 886 c 0
 858 886 900 800 900 790 c 0
 900 780 872 766 854 752 c 0
 840 742 840 740 836 740 c 0
 832 740 830 742 830 746 c 0
 830 792 770 842 682 842 c 0
 554 842 488 756 488 680 c 0
 488 550 706 434 706 286 c 0
 706 118 472 -34 296 -34 c 0
 132 -34 76 68 76 136 c 0
EndSplineSet
EndChar

StartChar: T
Encoding: 84 84 50
Width: 728
VWidth: 2000
Flags: W
HStem: -28 21G<150 211> 824 46<441.451 636 740 937.476> 1032 42<391.804 428.715> 1088 16<493.998 600.256>
VStem: 666 86<873.38 1021.58>
AnchorPoint: "below" 170 -100 basechar 0
AnchorPoint: "above" 748 1060 basechar 0
AnchorPoint: "cedilla" 226 0 basechar 0
LayerCount: 2
Fore
SplineSet
286 -2 m 1
 276 -14 266 -28 156 -28 c 0
 144 -28 142 -28 142 -22 c 0
 142 -16 168 -18 192 16 c 1
 316 180 554 582 636 828 c 5
 588 828 540 826 488 824 c 4
 242 812 244 762 232 762 c 4
 228 762 226 764 226 768 c 4
 226 772 234 782 248 796 c 4
 270 818 312 842 364 852 c 4
 440 866 538 868 650 870 c 5
 660 908 666 940 666 966 c 0
 666 1016 658 1088 550 1088 c 0
 506 1088 480 1080 442 1062 c 0
 430 1056 406 1032 392 1032 c 0
 386 1032 382 1032 382 1038 c 0
 382 1046 386 1054 432 1074 c 1
 470 1092 512 1104 560 1104 c 0
 688 1104 752 1036 752 932 c 0
 752 918 748 898 740 872 c 1
 834 874 934 878 1036 890 c 0
 1082 896 1086 898 1090 898 c 0
 1093 898 1102 898 1102 894 c 0
 1102 893 1100 891 1096 888 c 0
 1054 860 1018 852 966 846 c 0
 878 836 800 832 726 830 c 1
 634 588 336 70 286 -2 c 1
EndSplineSet
EndChar

StartChar: U
Encoding: 85 85 51
Width: 1016
VWidth: 2000
Flags: W
HStem: -16 48<340.091 473.506> -8 38<770.614 887.061> 234 20G<1191 1193> 858 28<364.362 469.041>
VStem: 202 94<77.4826 230.521> 498 84<721.068 838.411> 720 76<35.8979 159.029>
AnchorPoint: "below" 376 -100 basechar 0
AnchorPoint: "cedilla" 382 0 basechar 0
AnchorPoint: "above" 842 1000 basechar 0
LayerCount: 2
Fore
SplineSet
582 788 m 0xbe
 582 662 296 308 296 158 c 0
 296 70 348 32 412 32 c 0xbe
 550 32 710 196 798 302 c 1
 938 602 988 686 1078 800 c 0
 1096 822 1132 858 1160 858 c 0
 1166 858 1172 854 1172 850 c 0
 1172 794 974 504 948 464 c 0
 898 388 796 168 796 72 c 0
 796 46 808 30 856 30 c 0
 916 30 1016 92 1078 142 c 0
 1134 188 1176 236 1184 248 c 0
 1188 254 1190 254 1192 254 c 0
 1194 254 1196 252 1196 250 c 0
 1196 248 1196 248 1194 244 c 0
 1114 146 1044 90 944 36 c 0
 888 6 834 -8 792 -8 c 0x7e
 740 -8 720 24 720 64 c 0
 720 118 750 184 766 220 c 1
 652 112 516 -16 366 -16 c 0
 270 -16 202 42 202 140 c 0
 202 296 498 696 498 780 c 0
 498 824 476 858 418 858 c 0
 360 858 314 842 254 782 c 0
 242 770 236 762 232 762 c 0
 228 762 226 764 226 768 c 0
 226 772 234 782 248 796 c 0
 314 864 382 886 454 886 c 0
 538 886 582 842 582 788 c 0xbe
EndSplineSet
MultipleSubs2: "Multiple Substitution-1" uniE00D U
EndChar

StartChar: V
Encoding: 86 86 52
Width: 838
VWidth: 2000
Flags: W
HStem: -34 21G<196 206> 850 36<356.602 438.262> 870 24<1150.44 1186.66>
VStem: 462 88<609.907 829.333>
AnchorPoint: "below" 184 -100 basechar 0
AnchorPoint: "above" 786 1000 basechar 0
LayerCount: 2
Fore
SplineSet
362 162 m 1xd0
 486 332 646 506 848 676 c 0
 978 786 1078 852 1158 886 c 0xd0
 1168 890 1180 894 1184 894 c 0
 1188 894 1194 892 1194 888 c 0
 1194 884 1178 878 1162 870 c 0xb0
 1110 842 1024 800 856 650 c 0
 656 472 496 292 372 118 c 0
 310 30 330 60 306 18 c 0
 298 4 272 -6 254 -16 c 1
 240 -22 210 -34 202 -34 c 0
 190 -34 184 -32 184 -22 c 0
 184 14 252 118 278 170 c 0
 372 366 462 590 462 752 c 0
 462 820 434 850 396 850 c 0
 370 850 314 842 254 782 c 0
 242 770 236 762 232 762 c 0
 228 762 226 764 226 768 c 0
 226 772 234 782 248 796 c 0
 314 864 396 886 434 886 c 0
 518 886 550 814 550 750 c 0
 550 586 424 300 362 162 c 1xd0
EndSplineSet
EndChar

StartChar: W
Encoding: 87 87 53
Width: 1202
VWidth: 2000
Flags: W
HStem: -56 20<833.676 931.996> -24 21G<78 86> 270 54<546.868 672> 850 38<356.804 453.083> 874 20<798.939 940.869>
VStem: 478 90<701.24 829.221> 1180 70<291.073 585.413>
AnchorPoint: "below" 468 -100 basechar 0
AnchorPoint: "above" 836 1000 basechar 0
LayerCount: 2
Fore
SplineSet
442 888 m 0xf6
 544 888 568 830 568 776 c 0
 568 674 448 496 180 40 c 1
 260 118 500 324 634 324 c 0
 710 324 718 274 726 246 c 0
 774 82 764 -36 880 -36 c 0
 1120 -36 1180 324 1180 420 c 0
 1180 562 1118 874 874 874 c 0
 826 874 786 864 758 846 c 0
 748 840 740 838 732 838 c 0
 724 838 716 842 716 848 c 1
 714 854 722 862 734 868 c 0
 748 874 804 894 878 894 c 0xee
 1176 894 1250 638 1250 456 c 0
 1250 230 1132 -54 858 -56 c 1
 674 -56 656 66 626 220 c 0
 618 258 606 270 586 270 c 0
 478 270 186 14 152 -10 c 1
 136 -20 90 -24 82 -24 c 0
 74 -24 70 -20 70 -8 c 0
 70 0 80 18 86 30 c 0
 126 108 226 278 302 410 c 1
 326 456 478 696 478 780 c 0
 478 814 454 850 396 850 c 0
 370 850 314 842 254 782 c 0
 242 770 236 762 232 762 c 0
 228 762 226 764 226 768 c 0
 226 772 234 782 248 796 c 0
 314 864 394 888 442 888 c 0xf6
EndSplineSet
EndChar

StartChar: X
Encoding: 88 88 54
Width: 890
VWidth: 2000
Flags: W
HStem: -106 48<786.408 904.402> -8 50<22.0255 160.734> 834 52<420.777 551.207 1063.89 1176.32>
VStem: 1134 76<794 855>
AnchorPoint: "above" 836 1000 basechar 0
AnchorPoint: "below" 428 -100 basechar 0
LayerCount: 2
Fore
SplineSet
52 82 m 0
 60 82 62 42 130 42 c 0
 174 42 210 56 220 64 c 1
 306 114 414 234 574 412 c 1
 552 660 544 834 440 834 c 0
 420 834 390 830 342 782 c 0
 330 770 324 762 320 762 c 0
 316 762 314 764 314 768 c 0
 314 772 322 782 336 796 c 0
 392 856 448 886 492 886 c 0
 610 886 630 716 650 496 c 1
 820 682 910 766 988 822 c 1
 1004 832 1084 886 1148 886 c 0
 1200 886 1210 858 1210 852 c 0
 1210 840 1200 838 1182 822 c 0
 1166 808 1138 776 1130 776 c 0
 1128 776 1126 778 1126 780 c 0
 1126 786 1134 786 1134 802 c 0
 1134 818 1114 838 1076 838 c 0
 1052 838 1038 832 998 798 c 1
 922 736 818 630 654 448 c 1
 672 250 686 126 714 54 c 0
 746 -30 808 -58 868 -58 c 0
 898 -58 940 -52 966 -26 c 0
 972 -20 978 -12 984 -12 c 0
 990 -12 992 -18 992 -20 c 0
 992 -38 906 -106 800 -106 c 0
 732 -106 660 -74 626 42 c 0
 606 112 592 216 578 362 c 1
 474 244 352 116 228 44 c 0
 206 32 126 -8 58 -8 c 0
 20 -8 -20 14 -20 20 c 0
 -20 26 -4 36 12 48 c 0
 30 62 42 82 52 82 c 0
EndSplineSet
EndChar

StartChar: Y
Encoding: 89 89 55
Width: 1016
VWidth: 2000
Flags: W
HStem: -966 30<-88.7142 20.8188> -16 48<351.006 484.246> 234 20G<1191 1193> 858 28<364.362 469.346>
VStem: -224 98<-908.094 -729.429> 214 94<74.4378 226.119> 500 80<718.611 837.684>
AnchorPoint: "above" 842 1000 basechar 0
AnchorPoint: "cedilla" 394 0 basechar 0
LayerCount: 2
Fore
SplineSet
582 -168 m 1
 338 -288 -126 -534 -126 -838 c 0
 -126 -894 -100 -936 -34 -936 c 0
 140 -936 270 -750 348 -606 c 1
 484 -362 516 -304 582 -168 c 1
944 464 m 1
 844 300 776 92 676 -96 c 1
 808 -34 960 52 1078 142 c 1
 1134 188 1176 236 1184 248 c 0
 1188 254 1190 254 1192 254 c 0
 1194 254 1196 252 1196 250 c 0
 1196 248 1196 248 1194 244 c 0
 1154 194 1118 156 1076 122 c 0
 994 54 824 -48 658 -130 c 1
 594 -258 524 -382 396 -598 c 1
 314 -734 136 -966 -62 -966 c 0
 -174 -966 -224 -910 -224 -830 c 0
 -224 -528 338 -252 600 -130 c 1
 766 220 l 1
 652 112 528 -16 378 -16 c 0
 282 -16 214 38 214 136 c 0
 214 296 500 696 500 780 c 0
 500 824 476 858 418 858 c 0
 360 858 314 842 254 782 c 0
 242 770 236 760 232 760 c 0
 228 760 226 762 226 766 c 0
 226 770 234 782 248 796 c 0
 314 864 382 886 454 886 c 0
 538 886 580 840 580 786 c 0
 580 698 308 322 308 154 c 0
 308 66 360 32 424 32 c 0
 562 32 710 196 798 302 c 1
 938 602 980 706 1070 820 c 0
 1088 842 1100 858 1128 858 c 0
 1134 858 1140 854 1140 850 c 0
 1140 794 970 504 944 464 c 1
EndSplineSet
MultipleSubs2: "Multiple Substitution-1" uniE00D Y
EndChar

StartChar: Z
Encoding: 90 90 56
Width: 834
VWidth: 2000
Flags: W
HStem: -178 48<860.674 1044.4> -40 20G<1139 1145> -4 21G<118 140> 30 60<221.702 419.54> 782 36<673.638 897.51> 820 42<428.53 629.764>
VStem: 1136 30<-58.2812 -30.7086>
AnchorPoint: "below" 324 -100 basechar 0
AnchorPoint: "above" 762 1000 basechar 0
LayerCount: 2
Fore
SplineSet
794 818 m 0
 952 818 948 848 988 848 c 0
 1012 848 1030 834 1030 826 c 0
 1030 812 1024 822 948 754 c 1
 220 84 l 1
 254 88 274 90 302 90 c 0
 520 90 702 -130 930 -130 c 0
 1058 -130 1136 -60 1136 -30 c 0
 1136 -26 1136 -20 1142 -20 c 0
 1148 -20 1166 -58 1166 -66 c 1
 1166 -66 1122 -178 998 -178 c 0
 762 -178 516 30 324 30 c 0
 192 30 156 -4 124 -4 c 0
 112 -4 96 4 84 10 c 0
 58 22 52 16 52 24 c 0
 52 32 68 44 70 46 c 2
 900 796 l 1
 852 786 796 782 766 782 c 0
 628 782 618 820 478 820 c 0
 432 820 402 810 372 782 c 0
 360 770 354 762 350 762 c 0
 346 762 344 764 344 768 c 0
 344 772 352 782 366 796 c 0
 428 860 498 862 538 862 c 0
 594 862 710 818 794 818 c 0
EndSplineSet
EndChar

StartChar: bracketleft
Encoding: 91 91 57
Width: 540
VWidth: 2000
Flags: W
HStem: -142 16<241.941 383.997> 998 16<799.936 933.633>
VStem: 44 106<-137 -87.9726>
LayerCount: 2
Fore
SplineSet
364 -126 m 0
 380 -126 384 -130 384 -134 c 0
 384 -138 380 -142 364 -142 c 2
 54 -142 l 2
 50 -142 44 -140 44 -134 c 0
 44 -126 82 -58 92 -38 c 2
 618 962 l 1
 632 992 644 1014 658 1014 c 2
 924 1014 l 2
 930 1014 934 1012 934 1008 c 0
 934 1002 926 998 914 998 c 0
 840 998 712 984 698 958 c 2
 168 -46 l 2
 156 -70 150 -84 150 -90 c 0
 150 -106 250 -126 364 -126 c 0
EndSplineSet
EndChar

StartChar: backslash
Encoding: 92 92 58
Width: 356
VWidth: 2000
Flags: W
LayerCount: 2
Fore
SplineSet
48 1064 m 1
 48 1068 70 1084 82 1084 c 2
 84 1084 l 1
 472 -116 l 1
 472 -120 446 -138 440 -138 c 1
 438 -136 l 1
 48 1064 l 1
EndSplineSet
EndChar

StartChar: asciicircum
Encoding: 94 94 60
Width: 506
VWidth: 2000
Flags: W
LayerCount: 2
Fore
SplineSet
436 856 m 0
 446 872 484 888 488 888 c 0
 490 888 490 886 494 876 c 0
 576 684 672 584 672 576 c 0
 672 564 626 544 616 544 c 1
 616 544 514 686 450 828 c 1
 396 760 336 680 272 580 c 0
 268 572 228 550 220 550 c 1
 220 550 218 550 218 552 c 0
 218 556 236 554 436 856 c 0
EndSplineSet
EndChar

StartChar: underscore
Encoding: 95 95 61
Width: 634
VWidth: 2000
Flags: W
HStem: -100 40<-26 645.312>
LayerCount: 2
Fore
SplineSet
602 -100 m 2
 -32 -100 l 2
 -38 -100 -40 -98 -40 -96 c 0
 -40 -92 -36 -92 -34 -90 c 0
 -20 -76 -24 -60 10 -60 c 2
 644 -60 l 2
 648 -60 650 -64 650 -66 c 0
 650 -88 622 -100 602 -100 c 2
EndSplineSet
EndChar

StartChar: grave
Encoding: 96 96 62
Width: 252
VWidth: 2000
Flags: W
HStem: 546 242
VStem: 282 130
LayerCount: 2
Fore
SplineSet
412 548 m 0
 412 546 412 546 410 546 c 0
 406 546 398 550 396 554 c 0
 340 646 320 682 284 738 c 0
 282 740 282 746 282 750 c 0
 282 766 290 788 302 788 c 0
 306 788 312 786 316 778 c 2
 402 570 l 2
 404 564 412 550 412 548 c 0
EndSplineSet
EndChar

StartChar: a
Encoding: 97 97 63
Width: 612
VWidth: 2000
Flags: W
HStem: -12 38<385 496.348> 0 34<115 224.799> 234 20G<787 789> 438 24<357.2 462.175>
VStem: 62 78<44.7013 198.198> 330 76<33.785 70> 536 26<280.899 343>
AnchorPoint: "above" 480 548 basechar 0
AnchorPoint: "below" 168 -100 basechar 0
AnchorPoint: "cedilla" 428 -2 basechar 0
LayerCount: 2
Fore
SplineSet
434 168 m 1x3e
 512 246 536 288 536 304 c 0
 536 310 532 312 528 312 c 0
 510 312 464 226 434 168 c 1x3e
414 438 m 0
 282 438 140 236 140 104 c 0
 140 70 150 34 196 34 c 0x7e
 250 34 304 68 334 90 c 1
 350 146 392 214 420 252 c 0
 444 286 488 340 520 352 c 1
 502 398 472 438 414 438 c 0
410 462 m 0
 480 462 518 420 536 356 c 1
 546 356 562 352 562 334 c 0
 562 272 512 228 474 188 c 0
 462 176 438 154 422 138 c 1
 414 112 406 84 406 68 c 0
 406 48 414 26 470 26 c 0
 575 26 738 185 780 248 c 0
 784 254 786 254 788 254 c 0
 790 254 792 252 792 250 c 0
 792 248 792 248 790 244 c 0
 716 146 650 90 558 36 c 0
 502 4 450 -12 410 -12 c 0xbe
 360 -12 330 10 330 52 c 0
 330 58 332 64 332 70 c 1
 264 28 196 0 146 0 c 0
 84 0 62 46 62 102 c 0
 62 252 248 462 410 462 c 0
EndSplineSet
Substitution2: "'ss02' Stilgruppe 2 lookup 6-1" uniE022
EndChar

StartChar: b
Encoding: 98 98 64
Width: 662
VWidth: 2000
Flags: W
HStem: -20 40<263.338 354.564> 458 40<482.744 609> 1380 48<906.584 996>
VStem: 136 74<72.7088 227.66> 610 68<312.399 430.932> 936 80<1262.17 1404.48>
AnchorPoint: "below" 176 -100 basechar 0
AnchorPoint: "above" 650 548 basechar 0
LayerCount: 2
Fore
SplineSet
282 350 m 1
 226 256 210 186 210 144 c 0
 210 76 262 20 320 20 c 0
 438 20 610 208 610 372 c 0
 610 442 552 458 520 458 c 0
 450 458 368 412 282 350 c 1
126 404 m 0
 148 420 300 530 342 564 c 1
 516 894 l 1
 612 1072 694 1260 858 1376 c 1
 906 1412 952 1428 982 1428 c 0
 1010 1428 1016 1396 1016 1384 c 0
 1016 1106 694 834 426 616 c 1
 298 380 l 1
 364 426 486 498 584 498 c 0
 634 498 678 464 678 408 c 0
 678 240 440 -20 272 -20 c 0
 194 -20 136 32 136 124 c 0
 136 204 158 250 328 538 c 1
 154 412 182 432 134 398 c 0
 128 394 126 392 124 392 c 0
 122 392 120 394 120 396 c 0
 120 398 120 400 126 404 c 0
442 648 m 1
 678 844 936 1086 936 1340 c 0
 936 1362 926 1380 910 1380 c 0
 846 1380 708 1164 588 932 c 2
 442 648 l 1
EndSplineSet
EndChar

StartChar: c
Encoding: 99 99 65
Width: 468
VWidth: 2000
Flags: W
HStem: -22 24<195.769 301.318> 234 20G<643 645> 428 40<336.328 424>
VStem: 68 76<35.9221 186.591> 394 66<369.984 419.287>
AnchorPoint: "below" 152 -100 basechar 0
AnchorPoint: "above" 408 548 basechar 0
AnchorPoint: "cedilla" 204 0 basechar 0
LayerCount: 2
Fore
SplineSet
144 120 m 0
 144 58 158 2 262 2 c 0
 340 2 460 74 538 142 c 0
 590 188 628 236 636 248 c 0
 640 254 642 254 644 254 c 0
 646 254 648 252 648 250 c 0
 648 248 648 248 646 244 c 0
 616 204 582 168 546 136 c 0
 488 84 360 -22 216 -22 c 0
 140 -22 68 10 68 90 c 0
 70 278 300 468 408 468 c 0
 440 468 460 444 460 410 c 0
 460 386 458 380 422 360 c 0
 410 354 400 350 394 350 c 0
 392 350 390 350 390 352 c 0
 390 354 394 360 394 374 c 0
 394 412 366 428 348 428 c 0
 264 428 144 224 144 120 c 0
EndSplineSet
EndChar

StartChar: d
Encoding: 100 100 66
Width: 682
VWidth: 2000
Flags: W
HStem: -8 34<462.87 551.563> 0 34<115 225.608> 234 20G<837 839> 438 24<357.2 462.039> 1302 28<1099.63 1153>
VStem: 62 78<44.7013 198.198> 378 66<40.3557 139.893> 1134 44<1185.01 1301.65>
AnchorPoint: "above" 450 548 basechar 0
AnchorPoint: "cedilla" 224 0 basechar 0
AnchorPoint: "below" 200 -100 basechar 0
AnchorPoint: "aboveright" 1244 1166 basechar 0
LayerCount: 2
Fore
SplineSet
530 326 m 1x3f
 476 214 l 1
 600 350 838 648 934 808 c 0
 998 916 1134 1184 1134 1274 c 0
 1134 1292 1128 1302 1116 1302 c 0
 1016 1302 832 946 772 822 c 2
 540 344 l 1
 542 336 542 330 542 326 c 0
 542 322 540 320 536 320 c 0
 534 320 532 322 530 326 c 1x3f
502 388 m 1
 484 416 456 438 414 438 c 0
 282 438 140 236 140 104 c 0
 140 70 150 34 196 34 c 0x7f
 250 34 326 80 386 130 c 1
 398 172 442 268 502 388 c 1
512 410 m 1
 702 792 l 2
 790 970 900 1198 1086 1310 c 0
 1110 1324 1128 1330 1142 1330 c 0
 1164 1330 1178 1312 1178 1280 c 0
 1178 1112 1070 930 960 772 c 1
 868 638 578 294 464 180 c 1
 450 144 444 118 444 90 c 0
 444 50 468 26 514 26 c 0
 621 26 787 183 830 248 c 0
 834 254 836 254 838 254 c 0
 840 254 842 252 842 250 c 0
 842 248 842 248 840 244 c 0
 766 146 700 90 608 36 c 0
 556 6 510 -8 472 -8 c 0xbf
 414 -8 378 26 378 78 c 0
 378 88 378 96 382 112 c 1
 278 26 196 0 146 0 c 0
 84 0 62 46 62 102 c 0
 62 252 248 462 410 462 c 0
 458 462 490 442 512 410 c 1
EndSplineSet
EndChar

StartChar: e
Encoding: 101 101 67
Width: 434
VWidth: 2000
Flags: W
HStem: -16 26<173.243 282.177> 234 20G<609 611> 438 28<345.141 411>
VStem: 60 78<34.1214 148.368> 382 64<385.796 437.645>
AnchorPoint: "below" 158 -100 basechar 0
AnchorPoint: "cedilla" 210 0 basechar 0
AnchorPoint: "above" 414 548 basechar 0
LayerCount: 2
Fore
SplineSet
156 190 m 1
 144 156 138 124 138 100 c 0
 138 36 168 10 236 10 c 0
 324 10 432 80 504 142 c 0
 556 188 594 236 602 248 c 0
 606 254 608 254 610 254 c 0
 612 254 614 252 614 250 c 0
 614 248 614 248 612 244 c 0
 538 148 438 68 344 20 c 1
 302 0 250 -16 196 -16 c 0
 126 -16 60 4 60 78 c 0
 60 94 64 110 68 128 c 1
 54 118 30 96 28 96 c 0
 26 96 26 98 26 100 c 0
 26 102 26 104 28 106 c 0
 36 114 56 130 72 142 c 1
 138 346 332 466 394 466 c 0
 428 466 446 452 446 426 c 0
 446 376 338 318 156 190 c 1
164 208 m 1
 310 314 382 374 382 416 c 0
 382 424 378 438 360 438 c 0
 290 438 206 316 164 208 c 1
EndSplineSet
EndChar

StartChar: f
Encoding: 102 102 68
Width: 400
VWidth: 2000
Flags: W
HStem: -1196 50<-809 -690.455> 1468 40<960.639 1099>
VStem: -884 64<-1041.58 -790.958> 1084 68<1307.39 1432.76>
AnchorPoint: "above" 1074 1576 basechar 0
LayerCount: 2
Fore
SplineSet
76 66 m 1
 -810 -584 -820 -816 -820 -896 c 0
 -820 -950 -800 -1146 -712 -1146 c 0
 -654 -1146 -516 -1040 -466 -960 c 1
 -314 -724 -120 -282 76 66 c 1
526 404 m 6
 532 408 534 410 536 410 c 4
 538 410 540 408 540 406 c 4
 540 404 540 402 534 398 c 4
 502 378 352 272 196 158 c 5
 -42 -284 -388 -920 -450 -994 c 0
 -558 -1124 -718 -1196 -758 -1196 c 0
 -860 -1196 -884 -1000 -884 -892 c 0
 -884 -562 -152 -74 98 108 c 1
 208 333 265 434 448 782 c 0
 758 1370 884 1508 1064 1508 c 0
 1134 1508 1152 1426 1152 1400 c 0
 1152 1346 1138 1316 1108 1268 c 0
 1104 1260 1086 1246 1068 1238 c 0
 1050 1230 1040 1228 1044 1236 c 0
 1074 1284 1084 1312 1084 1364 c 0
 1084 1420 1046 1468 1004 1468 c 0
 874 1468 778 1306 496 754 c 1
 212 190 l 5
 526 404 l 6
EndSplineSet
EndChar

StartChar: g
Encoding: 103 103 69
Width: 580
VWidth: 2000
Flags: W
HStem: -1066 38<-567.296 -392.239> -100 20G<115 122> 0 34<113 224.023> 438 26<344.018 441.586>
VStem: -822 68<-851.965 -657.197> 62 76<48.4175 197.206> 558 12<274.403 288>
AnchorPoint: "above" 478 548 basechar 0
LayerCount: 2
Fore
SplineSet
544 322 m 1
 514 376 460 438 388 438 c 0
 296 438 138 250 138 92 c 0
 138 62 164 34 196 34 c 0
 314 34 472 208 474 210 c 0
 498 234 524 284 544 322 c 1
-518 -1066 m 0
 -660 -1066 -822 -966 -822 -788 c 0
 -822 -366 -200 -176 100 -84 c 0
 104 -82 112 -80 118 -80 c 0
 126 -80 130 -84 130 -90 c 0
 130 -98 120 -104 110 -108 c 16
 -172 -196 -754 -338 -754 -748 c 0
 -754 -908 -620 -1028 -466 -1028 c 0
 -310 -1028 -134 -856 -10 -634 c 0
 148 -352 270 -140 460 178 c 1
 376 88 246 0 142 0 c 0
 84 0 62 44 62 104 c 0
 62 244 246 464 388 464 c 0
 466 464 518 402 550 332 c 1
 556 344 l 2
 572 376 582 362 598 374 c 0
 600 376 602 376 604 376 c 0
 606 376 606 376 606 372 c 0
 606 368 604 362 600 358 c 0
 592 350 578 322 564 298 c 1
 566 294 570 282 570 278 c 0
 570 274 570 272 566 272 c 0
 564 272 560 284 558 288 c 1
 558 286 66 -626 66 -626 c 2
 -40 -822 -238 -1066 -518 -1066 c 0
EndSplineSet
EndChar

StartChar: h
Encoding: 104 104 70
Width: 670
VWidth: 2000
Flags: W
HStem: -8 34<481.54 565.822> 234 20G<849 851> 468 40<498.461 595> 1380 48<906.584 996>
VStem: 52 82<-1.94531 57.1948> 428 82<26.8981 153.853> 576 70<358.299 461.337> 936 80<1262.17 1404.48>
AnchorPoint: "cedilla" 82 0 basechar 0
AnchorPoint: "below" 226 -100 basechar 0
AnchorPoint: "above" 998 1520 basechar 0
LayerCount: 2
Fore
SplineSet
442 648 m 1
 678 844 936 1086 936 1340 c 0
 936 1362 926 1380 910 1380 c 0
 846 1380 708 1164 588 932 c 2
 442 648 l 1
342 564 m 1
 516 894 l 2
 610 1072 694 1260 858 1376 c 1
 906 1412 952 1428 982 1428 c 0
 1010 1428 1016 1396 1016 1384 c 0
 1016 1106 694 834 426 616 c 1
 284 330 l 1
 310 352 466 508 574 508 c 0
 616 508 646 474 646 426 c 0
 646 322 510 184 510 60 c 0
 510 42 518 26 540 26 c 0
 588 26 686 92 744 142 c 0
 796 188 834 236 842 248 c 0
 846 254 848 254 850 254 c 0
 852 254 854 252 854 250 c 0
 854 248 854 248 852 244 c 0
 778 146 712 90 620 36 c 0
 568 6 526 -8 496 -8 c 0
 450 -8 428 20 428 66 c 0
 428 178 576 352 576 422 c 0
 576 444 560 468 532 468 c 0
 452 468 296 308 262 256 c 0
 212 182 148 78 134 6 c 0
 132 -2 126 -2 118 -2 c 0
 80 -2 80 -8 70 -8 c 0
 60 -8 52 -2 52 6 c 0
 52 20 132 176 172 248 c 1
 214 328 268 436 328 538 c 1
 154 412 182 432 134 398 c 0
 128 394 126 392 124 392 c 0
 122 392 120 394 120 396 c 0
 120 398 120 400 126 404 c 0
 148 420 300 530 342 564 c 1
EndSplineSet
Substitution2: "'ss02' Stilgruppe 2 lookup 6-1" uniE021
EndChar

StartChar: k
Encoding: 107 107 73
Width: 574
VWidth: 2000
Flags: W
HStem: -18 34<312.437 442.514> -10 21G<46 56> 234 20G<749 751> 406 44<493.476 604.469> 1380 48<906.584 996>
VStem: 182 68<72.4647 227> 936 80<1262.17 1404.48>
AnchorPoint: "above" 998 1520 basechar 0
AnchorPoint: "below" 146 -100 basechar 0
LayerCount: 2
Fore
SplineSet
442 648 m 1x3e
 678 844 936 1086 936 1340 c 0
 936 1362 926 1380 910 1380 c 0
 846 1380 708 1164 588 932 c 2
 442 648 l 1x3e
182 128 m 0
 182 134 184 144 184 144 c 1
 158 94 126 40 116 14 c 1
 110 2 96 2 84 -2 c 0
 76 -4 62 -10 50 -10 c 0x7e
 42 -10 34 -8 34 -2 c 0
 34 12 66 64 70 72 c 2
 168 248 l 1
 174 256 276 442 328 538 c 1
 154 412 182 432 134 398 c 0
 128 394 126 392 124 392 c 0
 122 392 120 394 120 396 c 0
 120 398 120 400 126 404 c 0
 148 420 300 530 342 564 c 1
 516 894 l 2
 610 1072 694 1260 858 1376 c 1
 906 1412 952 1428 982 1428 c 0
 1010 1428 1016 1396 1016 1384 c 0
 1016 1106 694 834 426 616 c 1
 254 274 l 1
 366 392 522 450 588 450 c 0
 600 450 620 448 620 444 c 0
 620 436 578 406 556 406 c 0
 554 406 546 410 528 410 c 0
 426 410 250 290 250 164 c 0
 250 120 260 16 384 16 c 0
 478 16 566 74 644 142 c 0
 696 188 734 236 742 248 c 0
 746 254 748 254 750 254 c 0
 752 254 754 252 754 250 c 0
 754 248 754 248 752 244 c 0
 722 204 692 170 656 138 c 1
 642 124 510 -18 344 -18 c 0xbe
 232 -18 182 40 182 128 c 0
EndSplineSet
EndChar

StartChar: l
Encoding: 108 108 74
Width: 436
VWidth: 2000
Flags: W
HStem: -22 28<157 274.374> 234 20G<613 615> 1380 48<900.584 990>
VStem: 94 76<19.345 145.725> 930 80<1262.17 1404.48>
AnchorPoint: "middleright" 456 400 basechar 0
AnchorPoint: "aboveright" 1084 1206 basechar 0
AnchorPoint: "below" 96 -100 basechar 0
AnchorPoint: "above" 998 1520 basechar 0
LayerCount: 2
Fore
SplineSet
436 648 m 5
 672 844 930 1086 930 1340 c 4
 930 1362 920 1380 904 1380 c 0
 840 1380 702 1164 582 932 c 2
 436 648 l 5
322 538 m 5
 148 412 182 432 134 398 c 4
 128 394 126 392 124 392 c 4
 122 392 120 394 120 396 c 4
 120 398 120 400 126 404 c 4
 148 420 294 530 336 564 c 5
 510 894 l 5
 602 1072 678 1260 852 1376 c 5
 900 1412 946 1428 976 1428 c 4
 1004 1428 1010 1396 1010 1384 c 4
 1010 1106 688 834 420 616 c 5
 284 350 l 6
 230 244 170 126 170 68 c 4
 170 36 192 6 228 6 c 4
 320 6 438 82 508 142 c 5
 560 188 598 236 606 248 c 4
 610 254 612 254 614 254 c 4
 616 254 618 252 618 250 c 4
 618 248 618 248 616 244 c 4
 542 146 476 90 384 36 c 4
 314 -4 232 -22 186 -22 c 4
 128 -22 94 8 94 60 c 4
 94 112 120 158 168 248 c 6
 322 538 l 5
EndSplineSet
EndChar

StartChar: m
Encoding: 109 109 75
Width: 736
VWidth: 2000
Flags: W
HStem: -364 22<635.368 729.455> -14 21G<23 30> 378 46<614.502 697.997> 432 28<196.033 266>
VStem: 238 66<341.825 431.055> 410 66<280.338 396.987> 468 66<-248.707 -10.5891> 662 92<328.217 403.678>
AnchorPoint: "below" 248 -100 basechar 0
AnchorPoint: "above" 536 548 basechar 0
LayerCount: 2
Fore
SplineSet
132 394 m 0xfd
 128 392 126 392 124 392 c 0
 120 392 120 394 120 396 c 0
 120 400 144 416 156 424 c 0
 180 440 218 460 246 460 c 0
 286 460 304 448 304 414 c 0
 304 374 278 332 260 302 c 1
 312 350 382 424 444 424 c 0
 466 424 476 400 476 372 c 0xfd
 476 334 450 284 450 284 c 1
 450 284 606 430 702 430 c 0
 734 430 754 414 754 384 c 0
 754 308 534 96 534 -142 c 0
 534 -232 578 -342 690 -342 c 0
 792 -342 950 -216 1010 -128 c 0
 1014 -122 1016 -122 1018 -122 c 0
 1020 -122 1022 -124 1022 -126 c 0
 1022 -128 1022 -128 1020 -132 c 0
 934 -248 788 -364 662 -364 c 0
 552 -364 468 -278 468 -154 c 0xfb
 468 96 662 286 662 356 c 0
 662 370 654 378 638 378 c 0
 582 378 484 296 442 246 c 0
 424 224 392 194 356 194 c 0
 354 194 350 196 350 200 c 0
 350 222 362 218 370 226 c 1
 370 226 410 312 410 344 c 0
 410 356 406 370 394 370 c 0
 356 370 282 294 254 264 c 0
 212 218 130 60 108 30 c 0
 98 16 82 14 64 4 c 0
 50 -4 34 -14 26 -14 c 0
 20 -14 18 -10 18 -4 c 0
 18 0 20 4 26 10 c 0
 54 44 126 176 168 248 c 0
 208 318 238 366 238 398 c 0
 238 424 224 432 208 432 c 0
 186 432 164 416 132 394 c 0xfd
EndSplineSet
EndChar

StartChar: n
Encoding: 110 110 76
Width: 628
VWidth: 2000
Flags: W
HStem: -20 40<408 507.717> 234 20G<803 805> 414 42<449.889 529.832> 428 28<191.481 269>
VStem: 238 68<348.742 427.728> 366 72<22.2468 108.735> 502 72<310.839 411.064>
AnchorPoint: "below" 204 -100 basechar 0
AnchorPoint: "above" 456 548 basechar 0
LayerCount: 2
Fore
SplineSet
214 428 m 4xde
 186 428 158 414 134 398 c 4
 128 394 126 392 124 392 c 4
 122 392 120 394 120 396 c 4
 120 398 120 400 126 404 c 4
 134 410 194 456 252 456 c 4xde
 286 456 306 434 306 408 c 4
 306 388 286 350 266 314 c 5
 376 408 464 452 516 452 c 4
 562 452 574 412 574 380 c 4
 574 308 438 130 438 58 c 4
 438 38 450 20 470 20 c 4
 548 20 626 78 688 132 c 4
 736 174 782 226 796 248 c 4
 800 254 802 254 804 254 c 4
 806 254 808 252 808 250 c 4
 808 248 808 248 806 244 c 4
 770 196 734 160 700 126 c 4
 590 20 476 -20 422 -20 c 4
 394 -20 366 -10 366 26 c 4
 366 124 502 286 502 364 c 4
 502 400 490 414 464 414 c 4xee
 410 414 254 286 248 274 c 6
 102 8 l 6
 96 -4 84 0 62 -8 c 4
 46 -14 46 -16 36 -16 c 4
 30 -16 24 -12 24 -6 c 4
 24 2 44 32 76 86 c 4
 104 134 124 166 168 248 c 4
 184 278 238 376 238 402 c 4
 238 416 230 428 214 428 c 4xde
EndSplineSet
Substitution2: "'ss02' Stilgruppe 2 lookup 6-1" uniE020
EndChar

StartChar: o
Encoding: 111 111 77
Width: 536
VWidth: 2000
Flags: W
HStem: -18 26<163.558 242.641> 420 22<337.964 391.278> 472 44<424 477.938>
VStem: 62 74<25.468 187.423> 390 54<365.156 402> 502 20<306.436 320 338.5 421.718>
AnchorPoint: "below" 132 -100 basechar 0
AnchorPoint: "cedilla" 182 0 basechar 0
AnchorPoint: "above" 478 548 basechar 0
LayerCount: 2
Fore
SplineSet
500 338 m 1
 502 354 502 370 502 384 c 0
 500 420 470 472 458 472 c 0
 446 472 444 444 444 432 c 1
 452 430 462 420 462 412 c 0
 462 406 452 400 450 400 c 0
 448 400 446 402 444 402 c 1
 444 374 470 346 500 338 c 1
496 320 m 1
 444 322 394 366 390 420 c 1
 266 420 136 224 136 82 c 0
 136 52 154 8 200 8 c 0
 324 8 466 176 496 320 c 1
670 398 m 4
 628 370 576 326 516 320 c 5
 484 156 330 -18 170 -18 c 0
 102 -18 62 14 62 84 c 0
 62 252 232 442 390 442 c 1
 392 466 406 516 442 516 c 0
 492 516 522 460 522 384 c 0
 522 368 520 352 518 336 c 5
 566 336 630 382 662 404 c 4
 668 408 670 410 672 410 c 4
 674 410 676 408 676 406 c 4
 676 404 676 402 670 398 c 4
EndSplineSet
EndChar

StartChar: p
Encoding: 112 112 78
Width: 524
VWidth: 2000
Flags: W
HStem: -50 40<120.199 314.229> 234 20G<699 701> 418 50<440.448 526>
VStem: 146 66<258.539 406.761> 490 78<332.907 412.522>
AnchorPoint: "above" 440 548 basechar 0
LayerCount: 2
Fore
SplineSet
148 176 m 1
 74 38 l 1
 298 82 490 288 490 360 c 0
 490 410 464 418 446 418 c 0
 394 418 232 278 148 176 c 1
156 -50 m 0
 114 -50 70 -38 38 -22 c 1
 -176 -416 -240 -594 -438 -948 c 0
 -496 -1052 -616 -1066 -624 -1066 c 0
 -630 -1066 -636 -1064 -636 -1060 c 0
 -636 -1048 -620 -1050 -584 -1022 c 0
 -550 -996 -502 -952 12 -4 c 1
 6 2 6 2 6 4 c 0
 6 12 24 24 28 24 c 1
 126 204 146 274 146 316 c 0
 146 344 144 380 126 386 c 0
 120 388 118 392 118 394 c 0
 118 398 128 402 136 408 c 0
 160 426 158 434 176 434 c 0
 200 434 212 378 212 346 c 0
 212 314 202 282 188 252 c 1
 334 396 450 468 516 468 c 0
 536 468 568 458 568 400 c 0
 568 284 344 84 98 20 c 1
 128 4 176 -10 216 -10 c 0
 404 -10 514 76 584 134 c 0
 638 180 684 236 692 248 c 0
 696 254 698 254 700 254 c 0
 702 254 704 252 704 250 c 0
 704 248 704 248 702 244 c 0
 668 198 632 158 594 124 c 0
 460 4 314 -50 156 -50 c 0
EndSplineSet
EndChar

StartChar: q
Encoding: 113 113 79
Width: 632
VWidth: 2000
Flags: W
HStem: -2 36<156.99 238.379> 234 20G<807 809> 442 22<362.399 444.367>
VStem: 66 74<47.6089 194.065> 444 28<302.708 351.129> 468 16<357.7 417.034> 504 94<286.531 338.457>
LayerCount: 2
Fore
SplineSet
800 248 m 1xf6
 804 254 806 254 808 254 c 0
 810 254 812 252 812 250 c 0
 812 248 812 248 810 244 c 0
 788 214 802 230 684 108 c 0
 372 -216 186 -396 114 -500 c 0
 50 -592 -190 -1026 -212 -1026 c 0
 -224 -1026 -244 -1000 -244 -988 c 0
 -244 -924 -116 -754 -74 -704 c 0
 -24 -644 38 -562 68 -506 c 0
 144 -362 398 62 476 210 c 1
 444 162 286 -2 160 -2 c 0
 106 -2 66 38 66 98 c 0
 66 252 256 464 396 464 c 0
 458 464 484 426 484 376 c 0xf6
 484 356 480 336 472 314 c 0
 470 308 460 302 454 302 c 0
 450 302 444 304 444 312 c 0xfa
 444 328 468 362 468 394 c 0
 468 424 436 442 406 442 c 0
 312 442 140 252 140 92 c 0
 140 62 164 34 200 34 c 0
 282 34 416 138 480 272 c 0
 490 292 500 332 504 334 c 0
 516 340 532 342 548 342 c 0
 574 342 598 334 598 320 c 0
 598 304 516 216 474 142 c 2
 180 -372 l 1
 298 -246 264 -280 710 158 c 0
 766 212 800 248 800 248 c 1xf6
EndSplineSet
EndChar

StartChar: r
Encoding: 114 114 80
Width: 440
VWidth: 2000
Flags: W
HStem: -18 21G<64 78> 346 24<448 511.1> 424 24<181.669 254>
VStem: 230 64<332.26 422.856> 412 66<370.322 417.763>
AnchorPoint: "below" 10 -100 basechar 0
AnchorPoint: "above" 394 548 basechar 0
LayerCount: 2
Fore
SplineSet
294 392 m 0
 294 362 246 284 238 268 c 1
 290 328 344 370 386 400 c 0
 438 436 490 460 550 484 c 0
 556 486 560 488 564 488 c 0
 566 488 568 486 568 484 c 0
 568 480 562 478 560 476 c 0
 552 472 478 426 478 388 c 0
 478 376 484 370 496 370 c 0
 516 370 544 388 566 404 c 0
 572 408 574 410 576 410 c 0
 578 410 580 408 580 406 c 0
 580 404 580 402 574 398 c 0
 522 360 496 346 460 346 c 0
 436 346 412 356 412 376 c 0
 412 390 416 398 424 408 c 1
 368 376 280 298 192 180 c 1
 114 36 86 -18 70 -18 c 0
 58 -18 58 -8 46 8 c 0
 42 14 34 20 34 32 c 0
 34 40 36 44 50 66 c 0
 72 100 84 104 112 142 c 1
 212 330 230 362 230 392 c 0
 230 410 218 424 200 424 c 0
 172 424 158 414 134 398 c 0
 128 394 126 392 124 392 c 0
 122 392 120 394 120 396 c 0
 120 398 120 400 126 404 c 0
 158 426 194 448 234 448 c 0
 274 448 294 422 294 392 c 0
EndSplineSet
EndChar

StartChar: s
Encoding: 115 115 81
Width: 504
VWidth: 2000
Flags: W
HStem: -28 16<128.519 203.007> 238 21G<169 171> 430 26<376.419 435.965>
VStem: 18 62<16.5977 71.6411> 458 76<248.936 410.979>
AnchorPoint: "cedilla" 164 -20 basechar 0
AnchorPoint: "below" 112 -100 basechar 0
AnchorPoint: "above" 462 548 basechar 0
LayerCount: 2
Fore
SplineSet
178 244 m 0
 174 238 172 238 170 238 c 0
 168 238 166 240 166 242 c 0
 166 244 166 244 168 248 c 0
 292 420 380 456 432 456 c 0
 496 456 534 398 534 334 c 0
 534 178 300 -28 154 -28 c 0
 112 -28 20 -8 18 30 c 0
 18 48 68 114 80 114 c 1
 80 114 82 114 82 110 c 0
 82 104 80 98 80 84 c 0
 80 36 106 -12 164 -12 c 0
 270 -12 458 184 458 336 c 0
 458 368 454 430 406 430 c 0
 320 430 198 272 178 244 c 0
EndSplineSet
EndChar

StartChar: t
Encoding: 116 116 82
Width: 460
VWidth: 2000
Flags: W
HStem: -18 22<195.332 320.06> 234 20G<635 637> 468 26<454.445 532.719>
VStem: 110 76<26.8118 166.916>
AnchorPoint: "aboveright" 604 686 basechar 0
AnchorPoint: "above" 542 922 basechar 0
AnchorPoint: "below" 172 -100 basechar 0
AnchorPoint: "cedilla" 192 0 basechar 0
LayerCount: 2
Fore
SplineSet
126 404 m 0
 134 410 148 420 156 426 c 0
 168 434 220 444 280 454 c 1
 442 754 l 2
 456 782 486 818 520 820 c 0
 530 820 536 818 536 812 c 0
 536 802 520 778 502 748 c 0
 466 686 410 584 348 464 c 1
 498 488 518 494 536 494 c 0
 540 494 542 494 542 492 c 0
 542 484 514 468 506 468 c 0
 486 468 398 452 336 442 c 1
 240 242 l 1
 212 180 186 120 186 84 c 0
 186 38 218 4 260 4 c 0
 374 4 430 52 516 128 c 0
 568 174 620 236 628 248 c 0
 632 254 634 254 636 254 c 0
 638 254 640 252 640 250 c 0
 640 248 640 248 638 244 c 0
 606 202 576 168 544 138 c 0
 444 42 370 -18 224 -18 c 0
 168 -18 110 12 110 86 c 0
 110 134 134 188 168 248 c 1
 264 426 l 1
 224 418 142 404 134 398 c 0
 128 394 126 392 124 392 c 0
 122 392 120 394 120 396 c 0
 120 398 120 400 126 404 c 0
EndSplineSet
EndChar

StartChar: u
Encoding: 117 117 83
Width: 642
VWidth: 2000
Flags: W
HStem: -20 44<139.812 226.619 430.84 531.58> 234 20G<817 819> 424 24<183.046 256>
VStem: 74 76<31.7766 114.892> 234 68<338.189 423.285> 384 68<22.2468 113.918>
AnchorPoint: "below" 238 -100 basechar 0
AnchorPoint: "cedilla" 438 0 basechar 0
AnchorPoint: "above" 450 548 basechar 0
LayerCount: 2
Fore
SplineSet
810 248 m 0
 814 254 816 254 818 254 c 0
 820 254 822 252 822 250 c 0
 822 248 822 248 820 244 c 0
 750 132 578 -20 436 -20 c 0
 408 -20 384 -10 384 26 c 0
 384 46 390 72 400 98 c 1
 328 44 220 -16 144 -16 c 0
 124 -16 74 -6 74 52 c 0
 74 120 234 336 234 398 c 4
 234 416 224 424 206 424 c 4
 178 424 158 414 134 398 c 4
 128 394 126 392 124 392 c 4
 122 392 120 394 120 396 c 4
 120 398 120 400 126 404 c 4
 158 426 196 448 236 448 c 4
 276 448 302 434 302 390 c 4
 302 332 150 118 150 66 c 0
 150 32 184 24 204 24 c 0
 282 24 384 108 416 142 c 1
 446 208 546 386 564 408 c 1
 592 438 614 446 628 446 c 0
 632 446 636 442 636 438 c 0
 636 420 570 292 486 184 c 1
 464 136 452 96 452 58 c 0
 452 38 464 20 484 20 c 0
 628 20 770 188 810 248 c 0
EndSplineSet
EndChar

StartChar: v
Encoding: 118 118 84
Width: 426
VWidth: 2000
Flags: W
HStem: -24 21G<102 109> 426 26<185.458 262>
VStem: 222 70<328.748 425.57>
AnchorPoint: "below" 76 -100 basechar 0
AnchorPoint: "above" 398 548 basechar 0
LayerCount: 2
Fore
SplineSet
244 452 m 0
 280 452 292 422 292 396 c 0
 292 332 208 182 174 90 c 1
 288 236 432 432 622 542 c 0
 642 554 674 570 682 570 c 0
 684 570 686 568 686 564 c 0
 686 560 674 556 630 530 c 1
 380 374 168 20 136 -12 c 0
 128 -20 112 -24 106 -24 c 0
 98 -24 92 -2 92 10 c 0
 92 66 134 170 168 248 c 1
 186 292 222 374 222 400 c 0
 222 420 210 426 200 426 c 0
 184 426 158 414 134 398 c 0
 128 394 126 392 124 392 c 0
 122 392 120 394 120 396 c 0
 120 398 120 400 126 404 c 0
 134 410 186 452 244 452 c 0
EndSplineSet
EndChar

StartChar: w
Encoding: 119 119 85
Width: 758
VWidth: 2000
Flags: W
HStem: -24 26<431.435 523.666> -4 21G<67 81> 222 46<345.212 424> 316 30<686.486 771.167> 442 30<215.708 289>
VStem: 262 70<374.718 441.498> 388 64<10.5 219.55> 612 58<114.166 320.783>
AnchorPoint: "below" 242 -100 basechar 0
AnchorPoint: "above" 452 548 basechar 0
LayerCount: 2
Fore
SplineSet
892 398 m 0xbf
 858 376 776 316 700 316 c 0
 686 316 674 318 660 322 c 1
 666 294 670 262 670 232 c 0
 670 30 522 -24 470 -24 c 0xbf
 394 -24 388 30 388 90 c 0
 388 136 388 222 362 222 c 0
 334 222 184 92 158 68 c 0
 124 36 90 -4 72 -4 c 0x7f
 62 -4 56 6 56 20 c 0
 56 72 122 186 160 248 c 0
 188 294 262 398 262 422 c 0
 262 430 252 442 240 442 c 0
 200 442 158 414 134 398 c 0
 128 394 126 392 124 392 c 0
 122 392 120 394 120 396 c 0
 120 398 120 400 126 404 c 0
 128 406 214 472 272 472 c 0
 306 472 332 452 332 412 c 0
 332 358 218 240 132 68 c 1
 172 110 338 268 400 268 c 0
 448 268 452 160 452 106 c 0
 452 56 454 2 498 2 c 0
 572 2 612 98 612 206 c 0
 612 280 594 330 572 384 c 1
 570 386 532 428 532 440 c 0
 532 458 584 478 590 478 c 0
 600 478 626 432 640 396 c 1
 670 366 704 346 746 346 c 0
 800 346 850 382 884 404 c 0
 890 408 892 410 894 410 c 0
 896 410 898 408 898 406 c 0
 898 404 898 402 892 398 c 0xbf
EndSplineSet
EndChar

StartChar: x
Encoding: 120 120 86
Width: 448
VWidth: 2000
Flags: W
HStem: -6 42<313.701 382.653> 234 20G<623 625> 440 20G<183 192>
VStem: 118 80<313.238 423.138>
AnchorPoint: "above" 330 548 basechar 0
LayerCount: 2
Fore
SplineSet
616 248 m 0
 620 254 622 254 624 254 c 0
 626 254 628 252 628 250 c 0
 628 248 628 248 626 244 c 0
 616 230 584 180 502 106 c 0
 414 28 358 -6 326 -6 c 0
 286 -6 270 32 244 78 c 1
 180 2 94 -96 46 -142 c 1
 -50 -238 -154 -334 -248 -406 c 1
 -274 -424 -274 -416 -308 -422 c 0
 -320 -424 -336 -428 -346 -428 c 0
 -348 -428 -350 -426 -350 -424 c 0
 -350 -422 -346 -420 -332 -410 c 0
 -220 -334 -94 -244 26 -124 c 1
 86 -66 158 6 232 98 c 1
 178 200 118 356 118 404 c 0
 118 412 148 428 156 434 c 0
 180 450 178 460 188 460 c 0
 196 460 194 448 198 416 c 0
 210 324 232 234 264 144 c 1
 326 234 380 326 410 374 c 0
 424 396 432 418 440 420 c 0
 454 424 468 426 474 426 c 0
 478 426 484 426 484 422 c 0
 484 418 480 418 476 414 c 0
 432 360 404 290 276 120 c 1
 296 74 320 36 356 36 c 0
 382 36 440 76 496 122 c 1
 540 160 590 210 616 248 c 0
EndSplineSet
EndChar

StartChar: y
Encoding: 121 121 87
Width: 604
VWidth: 2000
Flags: W
HStem: -1010 40<-409.705 -292.88> -16 40<142 239.999> 234 20G<779 781> 426 22<184.237 260>
VStem: -564 68<-890.594 -728.233> 82 76<30.2883 124.559> 232 68<330.988 425.636>
AnchorPoint: "above" 450 548 basechar 0
LayerCount: 2
Fore
SplineSet
244 -166 m 1
 -174 -412 -496 -552 -496 -812 c 0
 -496 -912 -412 -970 -326 -970 c 0
 -190 -970 -70 -758 244 -166 c 1
240 448 m 0
 280 448 300 424 300 394 c 0
 300 362 258 288 224 220 c 0
 192 156 158 100 158 58 c 0
 158 32 192 24 212 24 c 0
 268 24 344 72 394 114 c 1
 504 322 l 1
 534 388 528 418 572 422 c 0
 592 424 606 426 616 426 c 0
 620 426 622 424 622 422 c 0
 622 412 566 340 536 284 c 2
 332 -94 l 1
 492 8 l 2
 576 62 694 138 772 248 c 0
 776 254 778 254 780 254 c 0
 782 254 784 252 784 250 c 0
 784 248 784 248 782 244 c 0
 734 180 694 124 500 -2 c 2
 316 -122 l 1
 66 -586 -126 -1010 -386 -1010 c 0
 -512 -1010 -564 -916 -564 -848 c 0
 -564 -536 -184 -396 260 -136 c 1
 378 84 l 1
 286 10 198 -16 152 -16 c 0
 132 -16 82 -6 82 52 c 0
 82 100 128 170 168 248 c 0
 192 294 232 364 232 398 c 0
 232 416 224 426 208 426 c 0
 180 426 158 414 134 398 c 0
 128 394 126 392 124 392 c 0
 122 392 120 394 120 396 c 0
 120 398 120 400 126 404 c 0
 158 426 192 448 240 448 c 0
EndSplineSet
EndChar

StartChar: z
Encoding: 122 122 88
Width: 478
VWidth: 2000
Flags: W
HStem: -748 24<-403.218 -299.536> 140 12<228 264.604> 234 20G<653 655> 340 44<200.745 349.945> 428 20G<194 197 508 514>
VStem: -516 74<-696.288 -540.865> 116 70<385 431> 304 74<8.89643 121.911>
AnchorPoint: "below" -454 -848 basechar 0
AnchorPoint: "above" 362 548 basechar 0
LayerCount: 2
Fore
SplineSet
274 -34 m 1
 204 -56 136 -68 30 -116 c 0
 -200 -218 -442 -434 -442 -634 c 0
 -442 -684 -408 -724 -366 -724 c 0
 -56 -724 188 -230 274 -34 c 1
372 24 m 1
 430 50 490 90 548 142 c 0
 600 188 638 236 646 248 c 0
 650 254 652 254 654 254 c 0
 656 254 658 252 658 250 c 0
 658 248 658 248 656 244 c 0
 620 198 586 158 550 126 c 0
 510 90 442 40 364 2 c 1
 272 -258 -50 -748 -382 -748 c 0
 -444 -748 -516 -716 -516 -640 c 0
 -516 -406 -180 -180 -6 -106 c 0
 84 -68 192 -38 286 -8 c 1
 296 14 304 50 304 80 c 0
 304 118 284 140 216 140 c 1
 192 118 152 80 114 80 c 0
 106 80 104 82 104 86 c 0
 104 116 172 142 198 148 c 1
 264 208 406 316 432 390 c 1
 354 360 282 340 222 340 c 0
 152 340 116 376 116 394 c 0
 116 400 134 410 160 426 c 0
 184 440 192 448 196 448 c 0
 198 448 198 446 198 446 c 1
 198 440 186 438 186 424 c 0
 186 414 210 384 308 384 c 0
 350 384 410 400 458 420 c 0
 488 432 504 442 512 442 c 0
 516 442 516 440 516 438 c 0
 516 422 486 388 472 372 c 0
 406 298 296 208 228 152 c 1
 290 152 378 146 378 72 c 0
 378 58 376 40 372 24 c 1
EndSplineSet
EndChar

StartChar: braceleft
Encoding: 123 123 89
Width: 540
VWidth: 2000
Flags: W
HStem: -142 16<312.748 383.997> 416 50<192.976 281.553> 998 16<818.4 933.633>
VStem: 122 70<-54.8997 71.5209> 300 64<296.266 399.484>
LayerCount: 2
Fore
SplineSet
364 -126 m 0
 380 -126 384 -130 384 -134 c 0
 384 -138 380 -142 364 -142 c 0
 258 -142 122 -122 122 -20 c 0
 122 140 300 200 300 348 c 0
 300 372 274 416 254 416 c 0
 240 416 234 410 192 410 c 0
 182 410 180 422 180 428 c 0
 180 434 210 466 242 466 c 0
 268 466 292 458 306 458 c 0
 328 458 378 494 408 530 c 0
 524 672 494 838 676 958 c 1
 738 996 824 1014 924 1014 c 0
 930 1014 934 1012 934 1008 c 0
 934 1002 926 998 914 998 c 0
 830 998 770 996 706 950 c 0
 562 848 590 624 436 508 c 0
 406 486 342 454 330 448 c 1
 358 430 364 402 364 372 c 0
 364 248 192 174 192 4 c 0
 192 -68 280 -126 364 -126 c 0
EndSplineSet
EndChar

StartChar: bar
Encoding: 124 124 90
Width: 524
VWidth: 2000
Flags: W
VStem: 324 38<-92.6979 973.455>
LayerCount: 2
Fore
SplineSet
324 -100 m 2
 324 962 l 2
 324 968 330 968 344 974 c 0
 358 980 356 984 360 984 c 0
 362 984 362 982 362 980 c 2
 362 -82 l 2
 362 -88 354 -88 340 -94 c 0
 326 -100 330 -104 326 -104 c 0
 324 -104 324 -102 324 -100 c 2
EndSplineSet
EndChar

StartChar: asciitilde
Encoding: 126 126 92
Width: 640
VWidth: 2000
Flags: W
HStem: 260 28<457 564.515> 390 32<287.375 349.495>
VStem: 624 52<352.769 411.841>
LayerCount: 2
Fore
SplineSet
206 300 m 0
 204 296 190 292 178 286 c 0
 170 282 162 272 158 272 c 1
 158 272 156 272 156 274 c 0
 156 276 168 296 174 304 c 0
 212 358 282 422 344 422 c 0
 436 422 462 288 552 288 c 0
 598 288 624 348 624 392 c 0
 624 402 656 420 672 420 c 0
 676 420 676 416 676 414 c 0
 670 340 588 260 502 260 c 0
 412 260 390 390 300 390 c 0
 260 390 224 338 206 300 c 0
EndSplineSet
EndChar

StartChar: cent
Encoding: 162 162 94
Width: 618
VWidth: 2000
Flags: W
HStem: 84 32<314.753 421.735> 688 30<536.145 607.345>
VStem: 134 100<169.932 338.698> 684 76<599.394 658.886>
LayerCount: 2
Fore
SplineSet
294 132 m 1
 608 684 l 1
 594 688 582 688 566 688 c 0
 406 688 234 400 234 250 c 0
 234 202 258 150 294 132 c 1
294 84 m 1
 98 -272 l 1
 94 -282 80 -296 74 -296 c 0
 72 -296 72 -294 72 -290 c 0
 72 -282 74 -274 78 -266 c 0
 140 -142 206 -24 268 84 c 1
 202 88 134 144 134 226 c 0
 134 440 382 714 628 718 c 1
 712 864 l 2
 760 948 802 988 842 988 c 0
 844 988 846 988 846 986 c 0
 846 974 788 924 752 868 c 2
 656 716 l 1
 708 706 760 668 760 628 c 0
 760 602 752 606 726 594 c 0
 704 584 692 572 680 572 c 0
 676 572 674 574 674 580 c 0
 674 586 684 590 684 620 c 0
 684 642 664 664 632 676 c 1
 526 502 422 322 314 124 c 1
 330 118 350 116 370 116 c 0
 448 116 532 156 592 206 c 0
 652 256 690 336 696 336 c 0
 698 336 702 336 702 332 c 0
 702 308 642 226 598 190 c 0
 512 118 418 86 294 84 c 1
EndSplineSet
EndChar

StartChar: sterling
Encoding: 163 163 95
Width: 904
VWidth: 2000
Flags: W
HStem: -304 50<898.677 1102.81> -24 42<141 236.184> 256 54<304.148 388.431> 444 32<428.577 575.006> 458 22<660 820.423> 736 21G<1025 1029> 836 48<894.326 1029>
VStem: 94 60<-1 86.0869> 1024 78<769.783 799.672>
LayerCount: 2
Fore
SplineSet
156 -24 m 0xef80
 126 -24 94 -18 94 16 c 0
 94 112 278 310 368 310 c 0
 408 310 434 248 446 214 c 1
 502 292 542 374 578 454 c 1
 514 450 458 448 420 444 c 0
 416 444 414 446 414 450 c 0
 414 454 456 476 462 476 c 0xf780
 502 476 544 476 588 478 c 1
 612 530 750 884 994 884 c 0
 1064 884 1102 826 1102 786 c 0
 1102 776 1084 774 1066 762 c 1
 1046 750 1032 736 1026 736 c 0
 1024 736 1022 736 1022 740 c 0
 1022 742 1024 750 1024 756 c 0
 1024 788 980 836 922 836 c 0
 804 836 786 726 660 480 c 1
 762 484 864 494 944 504 c 0
 946 504 948 504 948 500 c 0
 948 494 920 468 892 466 c 1
 820 464 732 462 648 458 c 1
 604 376 546 282 458 178 c 1
 542 -44 800 -254 1026 -254 c 0
 1120 -254 1172 -226 1218 -182 c 0
 1238 -162 1244 -142 1254 -142 c 0
 1256 -142 1258 -144 1258 -148 c 0
 1258 -156 1252 -172 1230 -198 c 0
 1172 -266 1080 -304 970 -304 c 0
 796 -304 520 -206 412 126 c 1
 328 42 230 -24 156 -24 c 0xef80
334 256 m 0
 258 256 154 136 154 56 c 0
 154 36 166 18 192 18 c 0
 230 18 332 82 402 158 c 1
 394 190 372 256 334 256 c 0
EndSplineSet
EndChar

StartChar: currency
Encoding: 164 164 96
Width: 880
VWidth: 2000
Flags: W
HStem: 164 34<534.833 664.402> 742 40<520.508 662.791>
VStem: 284 68<380.931 566.488> 838 68<379.73 564.17>
LayerCount: 2
Fore
SplineSet
352 490 m 0
 352 342 468 198 624 198 c 0
 754 198 838 314 838 456 c 0
 838 604 722 742 568 742 c 2
 564 742 l 2
 424 742 352 616 352 490 c 0
894 768 m 0
 898 768 912 764 912 760 c 0
 912 750 880 734 828 686 c 1
 876 634 906 566 906 490 c 0
 906 412 876 342 828 288 c 1
 844 270 910 204 910 196 c 0
 910 182 878 164 864 164 c 0
 846 164 804 218 782 244 c 1
 720 194 640 164 562 164 c 0
 498 164 436 184 384 230 c 1
 340 196 312 160 304 160 c 0
 300 160 296 164 296 170 c 0
 296 178 354 230 370 242 c 1
 312 300 284 378 284 456 c 0
 284 538 316 604 360 656 c 1
 324 702 278 740 278 748 c 0
 278 752 288 758 300 768 c 0
 310 776 318 784 332 784 c 0
 346 784 362 746 406 700 c 1
 458 742 546 782 618 782 c 0
 692 782 762 750 816 700 c 1
 874 750 884 768 894 768 c 0
EndSplineSet
EndChar

StartChar: yen
Encoding: 165 165 97
Width: 776
VWidth: 2000
Flags: W
HStem: -32 21G<250 256> 344 36<246.143 464 578 828.916> 470 30<284.974 518 598 620 643.021 658.89 684 890.622> 848 38<353.989 471.652>
VStem: 558 72<538.208 764.966>
LayerCount: 2
Fore
SplineSet
620 470 m 1
 588 470 l 1
 580 446 572 424 562 400 c 1
 620 470 l 1
434 886 m 0
 532 886 630 826 630 670 c 0
 630 634 618 570 598 500 c 1
 646 500 l 1
 780 652 1028 894 1164 894 c 0
 1172 894 1198 892 1198 888 c 0
 1198 874 1002 860 684 500 c 1
 776 500 864 502 888 502 c 0
 892 502 894 498 894 496 c 0
 894 474 864 466 844 466 c 0
 786 466 724 468 656 470 c 1
 628 438 602 406 578 376 c 1
 698 376 796 378 830 378 c 0
 834 378 838 376 838 372 c 0
 838 366 830 364 822 356 c 0
 812 346 804 342 782 342 c 0
 752 342 694 348 556 348 c 1
 534 320 514 294 500 270 c 1
 442 154 382 44 360 10 c 0
 346 -12 328 0 280 -18 c 0
 260 -26 260 -32 252 -32 c 0
 248 -32 242 -30 242 -26 c 0
 242 -20 270 8 290 40 c 0
 368 166 424 266 464 348 c 1
 366 346 296 344 258 344 c 0
 252 344 248 346 248 350 c 0
 248 355 245 364 245 371 c 0
 245 376 247 380 252 380 c 0
 286 380 266 376 386 376 c 2
 478 376 l 1
 494 412 508 444 518 472 c 1
 494 472 470 472 446 472 c 0
 396 472 328 468 278 468 c 0
 272 468 270 470 270 472 c 0
 270 476 276 476 282 482 c 0
 296 496 292 506 316 506 c 0
 344 506 432 502 528 500 c 1
 554 578 558 628 558 666 c 0
 558 814 454 848 396 848 c 0
 370 848 314 842 254 782 c 0
 242 770 236 762 232 762 c 0
 228 762 226 764 226 768 c 0
 226 772 234 782 248 796 c 0
 314 864 396 886 434 886 c 0
EndSplineSet
EndChar

StartChar: brokenbar
Encoding: 166 166 98
Width: 524
VWidth: 2000
Flags: W
VStem: 324 38<-92.6979 385.455 509.302 973.455>
LayerCount: 2
Fore
SplineSet
324 502 m 2
 324 962 l 2
 324 968 330 968 344 974 c 0
 358 980 356 984 360 984 c 0
 362 984 362 982 362 980 c 2
 362 520 l 2
 362 514 354 514 340 508 c 0
 326 502 330 498 326 498 c 0
 324 498 324 500 324 502 c 2
324 374 m 2
 324 380 330 380 344 386 c 0
 358 392 356 396 360 396 c 0
 362 396 362 394 362 392 c 2
 362 -82 l 2
 362 -88 354 -88 340 -94 c 0
 326 -100 330 -104 326 -104 c 0
 324 -104 324 -102 324 -100 c 2
 324 374 l 2
EndSplineSet
EndChar

StartChar: section
Encoding: 167 167 99
Width: 576
VWidth: 2000
Flags: W
HStem: -24 40<215.465 334.806> 714 21G<739 745> 852 32<543.205 647.853>
VStem: 44 68<101.761 163> 276 56<466.404 553.219> 380 46<634.009 746.265> 446 60<148.999 243.048> 558 40<316.898 426.01> 736 54<738.25 778.193>
LayerCount: 2
Fore
SplineSet
506 240 m 1
 542 268 558 324 558 364 c 0
 558 460 420 516 386 624 c 1
 356 606 332 574 332 536 c 0
 332 410 494 394 506 240 c 1
506 224 m 1
 506 150 402 -24 246 -24 c 0
 118 -24 44 60 44 108 c 0
 44 116 48 124 52 128 c 0
 88 156 120 194 122 194 c 0
 126 194 128 192 128 188 c 0
 128 186 112 172 112 154 c 0
 112 110 184 16 302 16 c 0
 412 16 446 132 446 170 c 0
 446 320 276 378 276 486 c 0
 276 544 330 604 384 636 c 1
 382 646 380 656 380 668 c 0
 380 762 478 884 638 884 c 0
 706 884 790 834 790 770 c 0
 790 760 750 714 740 714 c 0
 738 714 736 716 736 720 c 0
 736 776 662 852 586 852 c 0
 492 852 426 786 426 694 c 0
 426 592 598 530 598 388 c 0
 598 332 554 266 506 224 c 1
EndSplineSet
EndChar

StartChar: dieresis
Encoding: 168 168 100
Width: 352
VWidth: 2000
Flags: W
HStem: 566 106<301.62 352.087 453.62 504.087>
VStem: 280 92<585.469 650.082> 432 92<585.469 650.082>
AnchorPoint: "above" 364 548 mark 0
LayerCount: 2
Fore
SplineSet
280 602 m 0
 280 630 310 672 342 672 c 0
 358 672 372 656 372 636 c 0
 372 608 346 566 312 566 c 0
 292 566 280 580 280 602 c 0
432 602 m 0
 432 630 462 672 494 672 c 0
 510 672 524 656 524 636 c 0
 524 608 498 566 464 566 c 0
 444 566 432 580 432 602 c 0
EndSplineSet
EndChar

StartChar: copyright
Encoding: 169 169 101
Width: 1072
VWidth: 2000
Flags: W
HStem: -24 32<495.103 682.521> 144 22<564.911 663.271> 676 36<681.365 814.821> 860 26<681.58 862.897>
VStem: 206 84<202.345 449.589> 396 66<249.827 443.39> 886 50<601.43 623.957> 1074 82<409.699 664.835>
LayerCount: 2
Fore
SplineSet
290 328 m 1
 290 162 394 8 596 8 c 0
 856 8 1074 246 1074 522 c 0
 1074 728 968 860 766 860 c 0
 502 860 292 590 290 328 c 1
796 886 m 0
 1012 886 1156 744 1156 548 c 0
 1156 250 868 -24 556 -24 c 0
 340 -24 206 120 206 316 c 0
 206 602 486 886 796 886 c 0
734 676 m 0
 592 676 462 506 462 332 c 0
 462 242 534 166 614 166 c 0
 736 166 828 284 840 284 c 0
 844 284 844 281 844 272 c 0
 844 266 844 258 844 246 c 0
 844 224 704 144 582 144 c 0
 470 144 396 220 396 328 c 0
 396 542 618 712 774 712 c 0
 876 712 936 646 936 634 c 0
 936 616 924 614 904 590 c 0
 900 586 896 578 892 578 c 0
 888 578 886 584 886 588 c 0
 876 636 802 676 734 676 c 0
EndSplineSet
EndChar

StartChar: ordfeminine
Encoding: 170 170 102
Width: 444
VWidth: 2000
Flags: W
HStem: 352 38<431 525.633> 366 30<219 309.191> 692 20G<598 609> 716 18<405.828 485.03>
VStem: 162 74<403.304 536.393> 384 74<392.98 422> 618 16<456.687 473.156>
LayerCount: 2
Fore
SplineSet
392 446 m 1x7e
 416 526 458 598 518 668 c 1
 508 698 482 716 448 716 c 0
 348 716 236 558 236 458 c 0
 236 436 246 396 278 396 c 0
 312 396 358 424 392 446 c 1x7e
598 690 m 0
 562 654 540 624 510 574 c 0
 490 540 458 476 458 428 c 0
 458 406 470 390 496 390 c 0
 540 390 590 418 618 468 c 0
 618 470 626 474 630 474 c 0
 632 474 634 474 634 472 c 0
 634 434 532 352 452 352 c 0xbe
 410 352 384 374 384 408 c 0
 384 412 386 418 386 422 c 1
 354 400 294 366 242 366 c 0
 196 366 162 402 162 450 c 0
 162 582 324 734 448 734 c 0
 486 734 520 720 534 682 c 1
 544 692 560 700 566 702 c 0
 574 706 590 712 606 712 c 0
 612 712 612 708 612 706 c 0
 612 702 604 696 598 690 c 0
EndSplineSet
EndChar

StartChar: guillemotleft
Encoding: 171 171 103
Width: 626
VWidth: 2000
Flags: W
HStem: -54 43G<282 288 450 454> 428 20G<679 688>
VStem: 208 56<139.441 217.544> 364 54<137.994 219.764>
LayerCount: 2
Fore
SplineSet
686 448 m 0
 690 448 692 448 692 440 c 0
 692 438 688 432 680 426 c 0
 440 244 418 224 418 204 c 0
 418 160 514 -8 514 -16 c 0
 514 -24 456 -32 452 -32 c 0
 448 -32 446 -32 444 -28 c 0
 440 -22 364 150 364 182 c 0
 364 194 368 208 380 218 c 0
 578 364 672 448 686 448 c 0
560 478 m 0
 562 478 566 474 566 470 c 0
 566 466 556 456 552 454 c 0
 264 224 264 230 264 212 c 0
 264 180 346 -16 346 -36 c 0
 346 -44 330 -44 314 -48 c 0
 300 -52 292 -54 284 -54 c 0
 280 -54 278 -54 276 -50 c 0
 258 -14 208 182 208 194 c 0
 208 202 210 208 214 212 c 1
 320 284 548 478 560 478 c 0
EndSplineSet
EndChar

StartChar: logicalnot
Encoding: 172 172 104
Width: 716
VWidth: 2000
Flags: W
HStem: 304 46<178.3 578>
LayerCount: 2
Fore
SplineSet
514 346 m 0
 534 346 650 348 664 348 c 0
 674 348 676 344 676 340 c 0
 676 336 624 238 588 174 c 0
 586 170 514 160 514 160 c 1
 508 160 500 160 508 176 c 0
 524 206 554 256 578 310 c 1
 452 310 282 304 172 304 c 0
 170 304 168 304 168 306 c 0
 168 312 188 350 200 350 c 0
 248 350 374 346 514 346 c 0
EndSplineSet
EndChar

StartChar: uni00AD
Encoding: 173 173 105
Width: 496
VWidth: 2000
Flags: W
HStem: 302 46<302.498 525.998> 306 46<185.432 509.902>
LayerCount: 2
Fore
SplineSet
440 346 m 0x40
 460 346 518 348 532 348 c 0
 534 348 536 348 536 346 c 0
 536 342 532 338 526 324 c 0
 520 310 520 302 514 302 c 0x80
 488 302 394 310 298 310 c 0
 236 310 188 306 172 306 c 0
 170 306 168 306 168 308 c 0
 168 312 178 318 184 328 c 0
 192 342 194 352 200 352 c 0
 248 352 326 346 440 346 c 0x40
EndSplineSet
EndChar

StartChar: registered
Encoding: 174 174 106
Width: 1072
VWidth: 2000
Flags: W
HStem: -24 32<495.103 682.9> 26 32<888.937 1026.82> 710 24<784.384 888> 860 26<681.58 862.897>
VStem: 206 84<202.345 449.589> 880 82<609.78 693.072> 1074 82<409.738 664.835>
LayerCount: 2
Fore
SplineSet
584 490 m 1
 722 522 880 566 880 638 c 0
 880 668 866 710 808 710 c 0
 728 710 648 606 584 490 c 1
796 886 m 0
 1012 886 1156 744 1156 548 c 0
 1156 360 1042 184 880 78 c 1
 906 64 934 58 968 58 c 0
 1044 58 1088 114 1108 114 c 0
 1114 114 1116 112 1116 108 c 0
 1116 76 1022 26 946 26 c 0
 910 26 872 34 836 50 c 1
 750 4 654 -24 556 -24 c 0
 340 -24 206 120 206 316 c 0
 206 602 486 886 796 886 c 0
862 734 m 0
 914 734 962 702 962 662 c 0
 962 554 720 492 576 462 c 1
 688 286 784 142 854 92 c 1
 986 186 1074 346 1074 522 c 0
 1074 728 968 860 766 860 c 0
 502 860 292 590 290 328 c 1
 290 162 394 8 596 8 c 0
 672 8 744 28 808 64 c 1
 740 104 622 292 546 408 c 1
 490 294 452 194 442 194 c 0
 404 194 380 186 368 186 c 0
 356 186 354 190 354 194 c 1
 582 594 l 1
 638 674 772 734 862 734 c 0
EndSplineSet
EndChar

StartChar: macron
Encoding: 175 175 107
Width: 330
VWidth: 2000
Flags: W
HStem: 642 30<226.226 573.543>
LayerCount: 2
Fore
SplineSet
234 672 m 0
 268 672 300 670 336 670 c 0
 420 670 508 672 558 672 c 0
 570 672 574 666 574 660 c 0
 574 644 548 642 536 642 c 0
 506 642 482 644 434 644 c 0
 394 644 316 642 240 642 c 0
 230 642 226 652 226 660 c 0
 226 666 230 672 234 672 c 0
EndSplineSet
EndChar

StartChar: degree
Encoding: 176 176 108
Width: 334
VWidth: 2000
Flags: W
HStem: 620 28<355.299 430.645> 852 32<358.51 430.275>
VStem: 258 48<687.318 803.929> 480 50<697.006 810.394>
LayerCount: 2
Fore
SplineSet
306 766 m 0
 306 692 346 648 408 648 c 0
 456 648 480 706 480 742 c 0
 480 794 444 852 376 852 c 0
 328 852 306 806 306 766 c 0
258 738 m 0
 258 818 350 884 424 884 c 0
 468 884 530 848 530 766 c 0
 530 688 450 620 366 620 c 0
 312 620 258 668 258 738 c 0
EndSplineSet
EndChar

StartChar: acute
Encoding: 180 180 110
Width: 316
VWidth: 2000
Flags: W
HStem: 546 160
VStem: 236 280
LayerCount: 2
Fore
SplineSet
258 562 m 2
 496 700 l 2
 502 704 508 706 512 706 c 0
 516 706 516 702 516 698 c 0
 516 688 506 666 496 662 c 0
 416 628 250 546 242 546 c 0
 240 546 236 546 236 548 c 0
 236 550 244 554 258 562 c 2
EndSplineSet
EndChar

StartChar: paragraph
Encoding: 182 182 112
Width: 670
VWidth: 2000
Flags: W
HStem: -32 21G<244 250> 332 48<401.934 444> 802 52<856.209 919.996> 846 40<566.812 726>
VStem: 200 72<490.152 623.04>
LayerCount: 2
Fore
SplineSet
444 332 m 1xe8
 334 340 200 384 200 540 c 0
 200 656 354 886 750 886 c 0xd8
 870 886 912 854 944 854 c 0
 946 854 948 852 948 850 c 0
 948 846 934 838 920 824 c 0
 906 810 900 802 892 802 c 0
 884 802 870 828 786 840 c 1
 696 678 634 550 544 370 c 1
 590 370 664 370 772 404 c 0
 776 406 778 406 780 406 c 0
 782 406 784 406 784 404 c 0
 784 402 782 400 778 398 c 0
 744 382 630 342 524 332 c 1
 462 210 388 62 364 4 c 0
 354 -20 322 0 274 -18 c 0
 254 -26 254 -32 246 -32 c 0
 242 -32 236 -30 236 -26 c 0
 236 -20 262 20 270 34 c 0
 328 128 396 246 444 332 c 1xe8
272 576 m 0
 272 452 374 400 472 380 c 1
 562 542 582 566 726 846 c 1
 338 846 272 684 272 576 c 0
EndSplineSet
EndChar

StartChar: periodcentered
Encoding: 183 183 113
Width: 438
VWidth: 2000
Flags: W
HStem: 322 106<311.62 362.087>
VStem: 290 92<341.469 406.082>
AnchorPoint: "middleright" 336 374 mark 0
LayerCount: 2
Fore
SplineSet
290 358 m 0
 290 386 320 428 352 428 c 0
 368 428 382 412 382 392 c 0
 382 364 356 322 322 322 c 0
 302 322 290 336 290 358 c 0
EndSplineSet
EndChar

StartChar: cedilla
Encoding: 184 184 114
Width: 400
VWidth: 2000
Flags: W
HStem: -290 10<98.6977 147.9> -146 52<118 180.467>
VStem: 196 38<-238.724 -164.649>
AnchorPoint: "cedilla" 160 0 mark 0
LayerCount: 2
Fore
SplineSet
172 0 m 0
 172 -2 134 -66 118 -94 c 1
 210 -94 234 -146 234 -182 c 0
 234 -234 186 -290 116 -290 c 0
 58 -290 22 -248 22 -228 c 0
 22 -224 40 -216 48 -216 c 0
 56 -216 68 -280 122 -280 c 0
 166 -280 196 -244 196 -206 c 0
 196 -148 132 -146 92 -146 c 0
 74 -146 78 -154 72 -154 c 0
 68 -154 60 -154 60 -150 c 0
 60 -148 114 -68 152 0 c 0
 154 2 160 2 166 2 c 0
 168 2 172 2 172 0 c 0
EndSplineSet
EndChar

StartChar: uni00B9
Encoding: 185 185 115
Width: 366
VWidth: 2000
Flags: W
HStem: 726 12<203.396 269.676>
VStem: 194 322
LayerCount: 2
Fore
SplineSet
216 738 m 0
 282 738 354 766 422 824 c 1
 434 838 452 858 472 870 c 0
 482 876 496 886 508 886 c 0
 514 886 516 882 516 876 c 0
 516 860 498 830 468 802 c 1
 414 724 324 522 308 490 c 0
 296 464 302 474 258 466 c 0
 248 464 238 462 230 462 c 0
 222 462 218 464 218 468 c 0
 218 474 224 482 236 496 c 1
 282 544 334 660 400 780 c 1
 338 748 276 726 236 726 c 0
 224 726 194 732 194 738 c 0
 194 740 196 742 198 742 c 0
 202 742 208 738 216 738 c 0
EndSplineSet
EndChar

StartChar: ordmasculine
Encoding: 186 186 116
Width: 396
VWidth: 2000
Flags: W
HStem: 370 36<289.396 385.273> 686 38<343.369 444.49>
VStem: 176 58<454.995 578.354> 498 64<518.93 636.152>
LayerCount: 2
Fore
SplineSet
234 526 m 0
 234 456 286 406 356 406 c 0
 454 406 498 508 498 566 c 0
 498 638 444 686 378 686 c 0
 280 686 234 584 234 526 c 0
176 494 m 0
 176 620 318 724 430 724 c 0
 506 724 562 668 562 600 c 0
 562 474 414 370 302 370 c 0
 236 370 176 420 176 494 c 0
EndSplineSet
EndChar

StartChar: Aring
Encoding: 197 197 124
Width: 980
VWidth: 2000
Flags: W
HStem: -14 22<-49.5476 -8.65771> -8 34<745 868.907> 234 20G<1155 1157> 286 32<529.994 700.107> 308 34<404 511.345> 1026 24<876.678 940.274>
VStem: 692 88<52.6477 294.405> 808 34<908.756 992.066> 966 36<925.723 1006.68>
AnchorPoint: "above" 1022 1200 basechar 0
LayerCount: 2
Fore
SplineSet
404 342 m 1x2f80
 438 342 l 2x2f80
 516 342 596 318 666 318 c 0x3780
 676 318 690 318 706 320 c 1
 732 526 806 798 806 802 c 0
 806 806 806 808 804 808 c 0
 800 808 786 794 776 780 c 1
 404 342 l 1x2f80
808 936 m 0
 808 998 864 1050 928 1050 c 0
 970 1050 1002 1022 1002 982 c 0
 1002 932 960 882 908 870 c 1
 892 782 822 564 792 332 c 1
 880 354 926 408 936 408 c 0
 940 408 942 408 942 402 c 0
 942 392 862 332 790 314 c 1
 784 262 780 216 780 178 c 0
 780 62 806 26 844 26 c 0
 898 26 992 92 1050 142 c 0
 1102 188 1140 236 1148 248 c 0
 1152 254 1154 254 1156 254 c 0
 1158 254 1160 252 1160 250 c 0
 1160 248 1160 248 1158 244 c 0
 1084 146 1018 90 926 36 c 0
 874 6 824 -8 786 -8 c 0
 704 -8 692 48 692 154 c 0
 692 202 696 254 702 296 c 1
 630 288 606 286 582 286 c 0x7780
 508 286 434 308 392 308 c 0
 384 308 378 308 372 306 c 1
 260 178 160 70 102 22 c 1
 78 4 54 -2 16 -6 c 0
 0 -8 -18 -14 -38 -14 c 0
 -44 -14 -50 -12 -50 -6 c 0
 -50 2 -42 6 -34 8 c 0xaf80
 -16 14 12 28 30 44 c 0
 198 190 398 378 746 784 c 1
 834 884 l 1
 818 896 808 914 808 936 c 0
908 1026 m 0
 868 1026 842 988 842 948 c 0
 842 918 870 890 898 890 c 0
 934 890 966 920 966 964 c 0
 966 990 944 1026 908 1026 c 0
EndSplineSet
EndChar

StartChar: AE
Encoding: 198 198 125
Width: 1360
VWidth: 2000
Flags: W
HStem: -24 42<897.401 1085> -14 22<-49.5476 -8.65771> 286 32<529.994 700.107> 308 34<404 511.345> 730 21G<1477 1483> 862 24<1208.92 1356.06>
VStem: 696 88<116.133 294.023> 1010 68<658.958 754.402> 1304 40<182.606 268.615> 1472 48<760.047 783.444>
AnchorPoint: "above" 1102 1000 basechar 0
LayerCount: 2
Fore
SplineSet
806 426 m 1x5fc0
 922 518 1082 542 1082 554 c 0
 1082 556 1082 562 1070 570 c 0
 1026 600 1010 646 1010 684 c 0
 1010 764 1108 886 1308 886 c 0
 1352 886 1520 868 1520 806 c 0
 1520 786 1506 780 1492 746 c 0
 1488 738 1486 730 1480 730 c 0
 1474 730 1474 736 1472 742 c 0
 1460 784 1398 862 1286 862 c 0
 1104 862 1078 776 1078 736 c 0
 1078 688 1108 626 1154 600 c 1
 1184 586 1194 582 1194 576 c 0
 1194 558 1190 540 1152 536 c 0
 848 500 784 336 784 204 c 0
 784 64 912 18 1000 18 c 0
 1196 18 1304 140 1304 250 c 0
 1304 262 1300 270 1300 276 c 0
 1300 278 1300 282 1304 282 c 0
 1306 282 1316 274 1328 266 c 1
 1338 258 1344 256 1344 244 c 0
 1344 170 1206 -24 956 -24 c 0
 764 -24 696 64 696 208 c 0
 696 236 698 264 702 296 c 1
 630 288 606 286 582 286 c 0xafc0
 508 286 434 308 392 308 c 0
 384 308 378 308 372 306 c 1
 260 178 160 70 102 22 c 1
 78 4 54 -2 16 -6 c 0
 0 -8 -18 -14 -38 -14 c 0
 -44 -14 -50 -12 -50 -6 c 0
 -50 2 -42 6 -34 8 c 0
 -16 14 12 28 30 44 c 0
 198 190 398 378 746 784 c 0
 818 868 822 862 876 884 c 0
 888 888 910 902 920 902 c 0
 924 902 928 898 928 894 c 2
 928 892 l 2
 928 874 908 840 906 830 c 1
 876 750 834 584 806 426 c 1x5fc0
404 342 m 1x1fc0
 438 342 l 2x1fc0
 516 342 596 318 666 318 c 0x2fc0
 676 318 690 318 706 320 c 1
 732 526 806 798 806 802 c 0
 806 806 806 808 804 808 c 0
 800 808 786 794 776 780 c 1
 404 342 l 1x1fc0
EndSplineSet
EndChar

StartChar: Eth
Encoding: 208 208 135
Width: 1370
VWidth: 2000
Flags: W
HStem: -20 26<716.12 863.342> -16 42<201.369 304.488> 296 56<352.053 448> 444 48<472.839 658.847> 452 48<702.434 890.715> 582 21<388 394> 868 18<682.071 822> 1006 24<702.322 805.365>
VStem: 130 56<41.4607 130.934> 336 56<607.914 684.229> 840 80<884.385 985.748> 1170 86<361.671 620.414>
LayerCount: 2
Fore
SplineSet
916 500 m 0x2ff0
 918 500 920 498 920 496 c 0
 920 488 902 480 884 470 c 0
 868 460 856 452 848 452 c 0x2ff0
 694 448 616 452 448 444 c 0
 446 444 444 444 444 446 c 0
 444 456 504 492 520 492 c 0x37f0
 608 496 846 500 916 500 c 0x2ff0
EndSplineSet
Refer: 34 68 N 1 0 0 1 0 0 2
EndChar

StartChar: multiply
Encoding: 215 215 142
Width: 826
VWidth: 2000
Flags: W
LayerCount: 2
Fore
SplineSet
484 244 m 1
 346 118 266 24 230 24 c 0
 228 24 224 28 224 30 c 0
 224 56 412 220 460 270 c 1
 434 298 222 492 222 514 c 0
 222 524 232 528 242 538 c 0
 250 546 256 550 264 550 c 0
 274 550 502 308 502 308 c 1
 604 408 698 516 722 526 c 0
 732 530 740 532 748 532 c 0
 766 532 778 524 778 516 c 0
 778 514 524 280 524 280 c 1
 554 242 740 66 762 38 c 0
 766 32 768 28 768 24 c 0
 768 18 764 14 752 14 c 0
 744 14 734 16 728 18 c 0
 710 24 484 244 484 244 c 1
EndSplineSet
EndChar

StartChar: Oslash
Encoding: 216 216 143
Width: 960
VWidth: 2000
Flags: W
HStem: -24 60<372.986 569.357> 696 21<887 893> 852 34<642.151 798.338>
VStem: 154 82<184.991 382.094> 880 56<736.006 784.713> 1008 62<485.604 721.867>
AnchorPoint: "above" 782 1000 basechar 0
LayerCount: 2
Fore
SplineSet
1206 774 m 0
 1206 762 1202 770 1036 668 c 2
 210 156 l 1
 132 106 80 76 68 76 c 0
 64 76 56 80 56 86 c 0
 56 96 62 90 208 178 c 1
 1032 692 l 2
 1104 736 1166 780 1198 780 c 0
 1202 780 1206 778 1206 774 c 0
EndSplineSet
Refer: 45 79 N 1 0 0 1 0 0 2
EndChar

StartChar: Thorn
Encoding: 222 222 149
Width: 716
VWidth: 2000
Flags: W
HStem: -26 21G<94 98> 658 56<682.426 801.085> 850 36<356.866 452.687>
VStem: 474 82<699.024 831.694> 844 84<507.287 614.611>
LayerCount: 2
Fore
SplineSet
280 194 m 1
 372 218 844 332 844 548 c 0
 844 602 808 658 734 658 c 0
 556 658 370 360 280 194 c 1
422 476 m 1
 526 608 648 714 790 714 c 0
 868 714 928 672 928 588 c 0
 928 324 348 186 266 162 c 1
 240 112 216 58 198 6 c 0
 192 -10 194 -10 142 -14 c 0
 102 -18 100 -26 96 -26 c 0
 92 -26 86 -24 86 -20 c 0
 86 -14 96 -4 116 34 c 0
 474 712 474 742 474 778 c 0
 474 830 438 850 400 850 c 0
 374 850 314 842 254 782 c 0
 242 770 236 762 232 762 c 0
 228 762 226 764 226 768 c 0
 226 772 234 782 248 796 c 0
 314 864 396 886 434 886 c 0
 518 886 556 840 556 786 c 0
 556 708 478 570 422 476 c 1
EndSplineSet
EndChar

StartChar: germandbls
Encoding: 223 223 150
Width: 666
VWidth: 2000
Flags: W
HStem: -794 32<-546 -443.754> -28 16<290.519 360.07> 442 24<206.031 267.335> 1124 40<817.764 903>
VStem: -608 68<-743.5 -706.812> 180 62<16.5977 71.6411> 454 72<451 568.432> 612 84<248.962 393.062> 860 66<1016.04 1121.32>
LayerCount: 2
Fore
SplineSet
134 398 m 1
 128 394 126 392 124 392 c 0
 122 392 120 394 120 396 c 0
 120 398 120 400 126 404 c 0
 138 412 206 466 248 466 c 0
 258 466 270 464 282 460 c 1
 330 548 424 728 540 890 c 0
 676 1080 818 1164 890 1164 c 0
 916 1164 926 1126 926 1108 c 0
 926 1040 890 984 854 932 c 1
 736 778 526 652 526 538 c 0
 526 454 696 498 696 334 c 0
 696 178 462 -28 316 -28 c 0
 274 -28 182 -8 180 30 c 0
 180 48 230 114 242 114 c 1
 242 114 244 114 244 110 c 0
 244 104 242 98 242 84 c 0
 242 36 268 -12 326 -12 c 0
 424 -12 612 168 612 320 c 0
 612 468 454 408 454 494 c 0
 454 624 618 680 822 950 c 0
 852 990 860 1024 860 1072 c 0
 860 1096 846 1124 830 1124 c 0
 782 1124 728 1068 612 906 c 1
 418 632 242 236 8 -188 c 0
 -126 -432 -294 -794 -520 -794 c 0
 -572 -794 -608 -754 -608 -722 c 0
 -608 -716 -588 -708 -576 -702 c 0
 -546 -686 -544 -680 -540 -680 c 0
 -538 -680 -536 -682 -536 -684 c 0
 -536 -686 -540 -688 -540 -692 c 0
 -540 -736 -506 -762 -472 -762 c 0
 -336 -762 -170 -416 -54 -192 c 2
 268 434 l 1
 250 440 238 442 226 442 c 0
 190 442 136 398 134 398 c 1
EndSplineSet
EndChar

StartChar: ae
Encoding: 230 230 157
Width: 738
VWidth: 2000
Flags: W
HStem: -8 20<462 586.766> 0 34<113 209.695> 234 20G<913 915> 438 24<359.059 463.915 643.857 715>
VStem: 62 76<44.7013 198.198> 368 74<39.1607 151.042> 686 64<385.796 437.645>
AnchorPoint: "above" 564 548 basechar 0
LayerCount: 2
Fore
SplineSet
532 374 m 1x7e
 598 434 666 466 698 466 c 0
 732 466 750 452 750 426 c 0
 750 376 642 318 460 190 c 1
 448 156 442 124 442 100 c 0
 442 48 472 12 540 12 c 0
 628 12 736 80 808 142 c 0
 860 188 898 236 906 248 c 0
 910 254 912 254 914 254 c 0
 916 254 918 252 918 250 c 0
 918 248 918 248 916 244 c 0
 886 204 850 168 812 134 c 0
 660 0 576 -8 478 -8 c 0xbe
 446 -8 368 12 368 78 c 0
 368 94 368 106 372 124 c 1
 326 84 218 0 144 0 c 0
 82 0 62 46 62 102 c 0
 62 252 250 462 412 462 c 0
 476 462 512 428 532 374 c 1x7e
518 360 m 1
 500 402 470 438 416 438 c 0
 284 438 138 236 138 104 c 0
 138 70 148 34 194 34 c 0x7e
 220 34 266 50 376 142 c 1
 406 234 460 306 518 360 c 1
468 208 m 1
 614 314 686 374 686 416 c 0
 686 424 682 438 664 438 c 0
 594 438 510 316 468 208 c 1
EndSplineSet
EndChar

StartChar: eth
Encoding: 240 240 167
Width: 518
VWidth: 2000
Flags: W
HStem: -16 24<136.705 226.209> 404 34<334.121 418.47>
VStem: 58 78<25.6638 177.815> 470 44<412 589.598>
LayerCount: 2
Fore
SplineSet
470 412 m 1
 470 608 392 788 320 904 c 1
 186 832 198 832 184 832 c 0
 172 832 164 846 164 852 c 0
 164 860 208 872 306 922 c 1
 274 970 242 1012 206 1048 c 0
 200 1054 194 1056 194 1060 c 0
 194 1064 226 1086 242 1086 c 0
 250 1086 262 1084 268 1078 c 0
 304 1042 338 998 366 950 c 1
 456 988 470 996 480 996 c 0
 488 996 496 994 496 990 c 0
 496 986 490 984 484 982 c 0
 450 970 412 950 376 932 c 1
 466 774 514 578 514 430 c 0
 514 122 278 -16 164 -16 c 0
 110 -16 58 14 58 84 c 0
 58 252 286 438 402 438 c 0
 438 438 456 426 470 412 c 1
462 316 m 1
 452 370 412 404 368 404 c 0
 268 404 136 222 136 106 c 0
 136 46 154 8 200 8 c 0
 276 8 428 130 462 316 c 1
EndSplineSet
EndChar

StartChar: divide
Encoding: 247 247 174
Width: 652
VWidth: 2000
Flags: W
HStem: 144 86<302.453 365.508> 300 48<425.376 650.231> 308 46<186.423 520.763> 424 86<454.453 517.508>
VStem: 288 90<156.598 215.358> 440 90<436.598 495.358>
LayerCount: 2
Fore
SplineSet
344 230 m 0x9c
 364 230 378 218 378 200 c 0
 378 170 352 144 322 144 c 0
 302 144 288 156 288 174 c 0
 288 202 318 230 344 230 c 0x9c
496 510 m 0
 516 510 530 498 530 480 c 0
 530 450 504 424 474 424 c 0
 454 424 440 436 440 454 c 0
 440 482 470 510 496 510 c 0
538 348 m 0xdc
 558 348 644 350 658 350 c 0
 660 350 662 350 662 348 c 0
 662 344 658 340 652 326 c 0
 646 312 646 300 640 300 c 0xdc
 614 300 408 308 312 308 c 0
 254 308 188 304 172 304 c 0
 170 304 168 304 168 306 c 0
 168 310 178 318 184 328 c 0
 192 342 194 354 200 354 c 0xbc
 248 354 424 348 538 348 c 0xdc
EndSplineSet
EndChar

StartChar: oslash
Encoding: 248 248 175
Width: 536
VWidth: 2000
Flags: W
HStem: -18 26<163.558 242.641> 420 22<337.964 391.278> 472 44<424 477.938> 580 20G<667 673>
VStem: 62 74<25.468 187.423> 390 54<365.156 402> 502 20<306.436 320 338.5 421.718>
AnchorPoint: "above" 478 548 basechar 0
LayerCount: 2
Fore
SplineSet
674 582 m 2
 44 -106 l 2
 38 -112 26 -118 16 -118 c 0
 14 -118 12 -118 12 -116 c 0
 12 -114 14 -110 18 -106 c 2
 650 586 l 2
 660 596 664 600 670 600 c 0
 676 600 680 596 680 592 c 0
 680 590 678 586 674 582 c 2
EndSplineSet
Refer: 77 111 N 1 0 0 1 0 0 2
EndChar

StartChar: thorn
Encoding: 254 254 181
Width: 524
VWidth: 2000
Flags: W
HStem: -50 40<120.199 314.229> 234 20G<699 701> 418 50<440.448 526> 716 21G<263 265> 752 28<332.019 409>
VStem: 378 68<678.913 751.728> 490 78<333.703 412.522>
LayerCount: 2
Fore
SplineSet
378 726 m 0
 378 740 370 752 354 752 c 0
 326 752 298 738 274 722 c 0
 268 718 266 716 264 716 c 0
 262 716 260 718 260 720 c 0
 260 722 260 724 266 728 c 0
 268 730 334 780 392 780 c 0
 426 780 446 758 446 732 c 0
 446 710 440 706 336 518 c 2
 188 252 l 1
 334 396 450 468 516 468 c 0
 536 468 568 458 568 400 c 0
 568 304 372 92 98 20 c 1
 128 4 176 -10 216 -10 c 0
 404 -10 514 76 584 134 c 0
 638 180 684 236 692 248 c 0
 696 254 698 254 700 254 c 0
 702 254 704 252 704 250 c 0
 704 248 704 248 702 244 c 0
 668 198 632 158 594 124 c 0
 460 4 314 -50 156 -50 c 0
 114 -50 70 -38 38 -22 c 1
 -176 -416 -240 -594 -438 -948 c 0
 -496 -1052 -616 -1066 -624 -1066 c 0
 -630 -1066 -636 -1064 -636 -1060 c 0
 -636 -1048 -620 -1050 -584 -1022 c 0
 -550 -996 -502 -952 12 -4 c 1
 6 2 6 2 6 4 c 0
 6 12 24 24 28 24 c 1
 128 206 206 370 290 536 c 0
 344 644 378 708 378 726 c 0
148 176 m 1
 74 38 l 1
 298 82 490 288 490 360 c 0
 490 410 464 418 446 418 c 0
 394 418 232 278 148 176 c 1
EndSplineSet
EndChar

StartChar: dcroat
Encoding: 273 273 200
Width: 682
VWidth: 2000
Flags: W
HStem: -8 34<462.87 551.563> 0 34<115 225.608> 234 20<837 839> 438 24<357.2 462.039> 724 40<537.348 734.503> 732 40<674.12 862.593> 1302 28<1099.63 1153>
VStem: 62 78<44.7013 198.198> 378 66<40.3557 139.893> 1134 44<1185.01 1301.65>
LayerCount: 2
Fore
SplineSet
876 772 m 0x37c0
 878 772 880 770 880 768 c 0
 880 766 846 732 816 732 c 0x37c0
 664 728 696 732 528 724 c 0
 526 724 524 724 524 726 c 0
 524 736 558 764 574 764 c 0x3bc0
 662 768 806 772 876 772 c 0x37c0
EndSplineSet
Refer: 66 100 N 1 0 0 1 0 0 2
EndChar

StartChar: eogonek
Encoding: 281 281 208
Width: 434
VWidth: 2000
Flags: W
HStem: -226 16<68 133.799> -16 26<173.231 281.792> 234 20G<609 611> 438 28<345.141 411>
VStem: 0 62<-195.206 -113.515> 60 78<33.8485 148.368> 382 64<385.796 437.645>
LayerCount: 2
Fore
SplineSet
156 190 m 1xf6
 144 156 138 124 138 100 c 0xf6
 138 36 168 10 236 10 c 0
 324 10 432 80 504 142 c 0
 556 188 594 236 602 248 c 0
 606 254 608 254 610 254 c 0
 612 254 614 252 614 250 c 0
 614 248 614 248 612 244 c 0
 538 148 438 68 344 20 c 1
 302 0 252 -16 192 -16 c 1
 124 -54 62 -92 62 -152 c 0
 62 -184 90 -210 126 -210 c 0
 146 -210 162 -202 166 -202 c 0
 170 -202 174 -202 174 -204 c 0
 174 -208 114 -226 86 -226 c 0
 50 -226 0 -218 0 -170 c 0xfa
 0 -108 60 -74 174 -16 c 1
 112 -12 60 12 60 78 c 0
 60 94 64 110 68 128 c 1
 54 118 30 96 28 96 c 0
 26 96 26 98 26 100 c 0
 26 102 26 104 28 106 c 0
 36 114 56 130 72 142 c 1
 138 346 332 466 394 466 c 0
 428 466 446 452 446 426 c 0
 446 376 338 318 156 190 c 1xf6
164 208 m 1
 310 314 382 374 382 416 c 0
 382 424 378 438 360 438 c 0
 290 438 206 316 164 208 c 1
EndSplineSet
EndChar

StartChar: Hbar
Encoding: 294 294 221
Width: 1144
VWidth: 2000
Flags: W
HStem: -24 48<739 905.431> 234 20<1219 1221> 368 36<442 675.335> 606 34<320.829 701.409> 636 28<993.685 1142.19> 858 28<364.362 466.07>
VStem: 496 78<703.874 837.045> 678 100<42.0022 161.151>
LayerCount: 2
Fore
SplineSet
1108 636 m 0xef
 928 612 600 606 510 606 c 0
 434 606 332 610 314 610 c 0
 310 610 308 610 308 612 c 0
 308 620 358 642 364 642 c 0
 458 642 464 640 528 640 c 0xf7
 1050 640 1098 664 1152 664 c 0
 1156 664 1158 664 1158 662 c 0
 1158 656 1122 638 1108 636 c 0xef
EndSplineSet
Refer: 38 72 N 1 0 0 1 0 0 2
EndChar

StartChar: hbar
Encoding: 295 295 222
Width: 670
VWidth: 2000
Flags: W
HStem: -8 34<481.54 565.822> 234 20<849 851> 468 40<498.461 595> 1028 40<453.348 650.503> 1036 40<590.12 778.593> 1380 48<906.584 996>
VStem: 52 82<-1.94531 57.1948> 428 82<26.8981 153.853> 576 70<358.299 461.337> 936 80<1262.17 1404.48>
LayerCount: 2
Fore
SplineSet
792 1076 m 0xefc0
 794 1076 796 1074 796 1072 c 0
 796 1070 762 1036 732 1036 c 0xefc0
 580 1032 612 1036 444 1028 c 0
 442 1028 440 1028 440 1030 c 0
 440 1040 474 1068 490 1068 c 0xf7c0
 578 1072 722 1076 792 1076 c 0xefc0
EndSplineSet
Refer: 70 104 N 1 0 0 1 0 0 2
EndChar

StartChar: dotlessi
Encoding: 305 305 232
Width: 374
VWidth: 2000
Flags: W
HStem: -8 34<151.991 261.314> 234 20G<549 551> 426 22<185.07 256>
VStem: 88 80<36.1547 148.474> 236 68<331.983 424.116>
AnchorPoint: "above" 370 612 basechar 0
LayerCount: 2
Fore
SplineSet
124 392 m 4
 122 392 120 394 120 396 c 4
 120 398 120 400 126 404 c 4
 158 426 196 448 236 448 c 4
 276 448 304 430 304 386 c 0
 304 330 168 164 168 78 c 0
 168 38 196 26 238 26 c 0
 288 26 376 84 434 132 c 1
 480 172 528 226 542 248 c 0
 546 254 548 254 550 254 c 0
 552 254 554 252 554 250 c 0
 554 248 554 248 552 244 c 0
 516 196 480 158 444 126 c 1
 412 96 286 -8 180 -8 c 0
 124 -8 88 20 88 66 c 0
 88 174 236 328 236 390 c 0
 236 408 224 426 206 426 c 4
 178 426 158 414 134 398 c 4
 128 394 126 392 124 392 c 4
EndSplineSet
EndChar

StartChar: IJ
Encoding: 306 306 233
Width: 1668
VWidth: 2000
Flags: W
HStem: -848 28<455.667 546.362> -12 18<203 318.682> 234 0G<158 161 1531 1533> 776 20<442.637 548 1088.64 1194> 950 24<491.547 570.611 1137.55 1216.61>
VStem: 76 70<87.4158 189.887> 318 78<-758.982 -516.355> 340 56<815.803 893.698> 602 46<854.179 931.1> 986 56<815.803 893.698> 1248 46<854.179 931.1>
LayerCount: 2
Fore
SplineSet
1004 -58 m 1xfee0
 922 -78 842 -100 774 -134 c 0
 514 -268 398 -400 396 -642 c 0
 396 -752 434 -820 502 -820 c 0
 584 -820 642 -758 698 -676 c 0
 846 -456 924 -254 1004 -58 c 1xfee0
146 162 m 0
 146 90 212 6 282 6 c 0
 358 6 412 84 470 208 c 0
 590 460 704 648 820 810 c 1
 774 796 630 778 576 776 c 1
 540 730 436 630 370 574 c 0
 366 570 350 558 346 558 c 0
 344 558 342 560 342 562 c 0
 342 566 348 574 358 582 c 0
 398 614 508 726 548 776 c 1
 458 776 340 784 340 844 c 0xfde0
 340 926 500 974 564 974 c 0
 608 974 648 960 648 918 c 0
 648 884 614 832 592 798 c 1
 666 802 746 812 812 836 c 0
 838 846 912 856 938 856 c 0
 944 856 946 854 946 850 c 0
 946 844 926 838 918 826 c 0
 806 666 734 546 650 386 c 1
 892 462 1072 624 1194 776 c 1
 1104 776 986 784 986 844 c 0
 986 926 1146 974 1210 974 c 0
 1254 974 1294 960 1294 918 c 0
 1294 884 1260 832 1238 798 c 1
 1312 802 1392 812 1458 836 c 0
 1484 846 1558 856 1584 856 c 0
 1590 856 1592 854 1592 850 c 0
 1592 844 1574 838 1564 826 c 0
 1408 638 1340 478 1220 224 c 2
 1110 -10 l 1
 1176 6 1238 22 1296 52 c 0
 1342 76 1390 112 1426 142 c 1
 1478 188 1516 236 1524 248 c 0
 1528 254 1530 254 1532 254 c 0
 1534 254 1536 252 1536 250 c 0
 1536 248 1536 248 1534 244 c 0
 1460 146 1396 88 1302 38 c 0
 1240 4 1168 -18 1096 -36 c 1
 986 -264 864 -500 744 -668 c 0
 688 -746 594 -848 470 -848 c 0
 376 -848 318 -780 318 -636 c 0
 318 -460 452 -244 770 -104 c 0
 856 -66 938 -46 1016 -30 c 1
 1048 50 1082 128 1122 208 c 1
 1192 360 1284 534 1374 670 c 2
 1466 810 l 1
 1420 796 1276 778 1222 776 c 1
 1152 688 944 464 638 364 c 1
 568 224 l 2
 512 110 416 -12 242 -12 c 0
 164 -12 76 42 76 136 c 0
 76 144 88 154 100 166 c 0
 132 198 156 234 160 234 c 0
 162 234 166 234 166 230 c 0
 166 226 146 216 146 162 c 0
564 796 m 1
 582 822 602 856 602 882 c 0
 602 926 568 950 524 950 c 0
 472 950 396 926 396 854 c 0
 396 796 484 796 564 796 c 1
1210 796 m 1
 1228 822 1248 856 1248 882 c 0
 1248 926 1214 950 1170 950 c 0
 1118 950 1042 926 1042 854 c 0
 1042 796 1130 796 1210 796 c 1
EndSplineSet
EndChar

StartChar: ij
Encoding: 307 307 234
Width: 722
VWidth: 2000
Flags: W
HStem: -1000 28<-413.716 -289.778> -8 34<151.991 261.314> 234 20G<549 551 897 899> 426 22<185.07 256> 432 20G<668 690> 630 106<379.62 430.087 753.62 804.087>
VStem: -652 80<-823.918 -616.294> 88 80<36.1547 148.474> 236 68<331.983 424.116> 358 92<649.469 714.082> 732 92<649.469 714.082>
LayerCount: 2
Fore
SplineSet
394 -50 m 1xe7e0
 -470 -266 -572 -584 -572 -718 c 0
 -572 -850 -484 -972 -336 -972 c 0
 -164 -972 2 -748 82 -606 c 2
 394 -50 l 1xe7e0
608 394 m 0
 620 418 652 452 684 452 c 0xefe0
 696 452 714 442 714 426 c 0xf7e0
 714 414 706 402 702 394 c 1
 686 370 674 350 660 332 c 1
 600 218 540 104 474 -10 c 1
 516 0 552 12 586 24 c 0
 680 60 734 92 792 142 c 0
 844 188 882 236 890 248 c 0
 894 254 896 254 898 254 c 0
 900 254 902 252 902 250 c 0
 902 248 902 248 900 244 c 0
 826 146 744 78 628 26 c 0
 576 2 520 -16 462 -32 c 1
 134 -598 l 2
 30 -776 -152 -1000 -388 -1000 c 0
 -532 -1000 -652 -894 -652 -744 c 0
 -652 -264 194 -78 406 -28 c 1
 476 100 538 242 608 394 c 0
EndSplineSet
Refer: 601 775 N 1 0 0 1 380 64 2
Refer: 71 105 N 1 0 0 1 0 0 2
EndChar

StartChar: kgreenlandic
Encoding: 312 312 239
Width: 574
VWidth: 2000
Flags: W
HStem: -18 34<312.437 442.514> -4 21G<50 60> 234 20G<749 751> 406 44<493.476 604.469> 428 20<182.711 260>
VStem: 244 60<345.929 424.344>
LayerCount: 2
Fore
SplineSet
304 392 m 0x6c
 304 368 278 320 254 274 c 1
 366 392 522 450 588 450 c 0
 600 450 620 448 620 444 c 0
 620 436 578 406 556 406 c 0
 554 406 546 410 528 410 c 0
 426 410 250 290 250 164 c 0
 250 120 260 16 384 16 c 0
 478 16 566 74 644 142 c 0
 696 188 734 236 742 248 c 0
 746 254 748 254 750 254 c 0
 752 254 754 252 754 250 c 0
 754 248 754 248 752 244 c 0
 722 204 692 170 656 138 c 1
 642 124 510 -18 344 -18 c 0xb4
 232 -18 182 40 182 128 c 0
 182 134 184 144 184 144 c 1
 158 94 130 46 120 20 c 1
 114 8 100 4 90 4 c 0
 82 4 66 -4 54 -4 c 0
 46 -4 40 0 40 12 c 0
 40 18 44 22 50 32 c 1
 70 76 114 152 168 248 c 0
 214 330 244 380 244 396 c 0
 244 414 224 428 206 428 c 0
 176 428 156 410 132 394 c 0
 128 392 126 392 124 392 c 0
 120 392 120 394 120 396 c 0
 120 400 144 416 156 424 c 0
 182 442 212 448 240 448 c 0
 280 448 304 436 304 392 c 0x6c
EndSplineSet
EndChar

StartChar: Lslash
Encoding: 321 321 248
Width: 768
VWidth: 2000
Flags: W
HStem: -304 50<895.627 1102.81> -24 42<141 238.947> 256 54<304.148 384.619> 400 48<378.003 437.766> 644 20G<848 862> 848 38<574.155 668.172>
VStem: 94 60<-1 86.0869> 680 78<705.569 838.806>
LayerCount: 2
Fore
SplineSet
654 550 m 0
 728 594 836 664 860 664 c 0
 864 664 866 660 866 658 c 0
 866 648 856 642 664 530 c 0
 490 428 374 400 360 400 c 0
 356 400 354 402 354 404 c 0
 354 412 392 440 422 448 c 0
 514 472 582 508 654 550 c 0
EndSplineSet
Refer: 42 76 N 1 0 0 1 0 0 2
EndChar

StartChar: lslash
Encoding: 322 322 249
Width: 436
VWidth: 2000
Flags: W
HStem: -22 28<157 274.374> 234 20<613 615> 1380 48<900.584 990>
VStem: 94 76<19.345 145.725> 930 80<1262.17 1404.48>
LayerCount: 2
Fore
SplineSet
542 958 m 0
 716 1058 778 1132 816 1132 c 0
 820 1132 820 1130 820 1130 c 1
 820 1122 674 1012 552 942 c 1
 446 880 338 838 326 838 c 0
 322 838 320 838 320 840 c 0
 320 848 348 876 364 882 c 0
 432 908 490 928 542 958 c 0
EndSplineSet
Refer: 74 108 N 1 0 0 1 0 0 2
EndChar

StartChar: Eng
Encoding: 330 330 257
Width: 910
VWidth: 2000
Flags: W
HStem: -576 40<94 235.785> -32 21G<90 98> 294 34<149 195> 798 74<1118.58 1175.66> 808 64<577.786 659>
VStem: 34 68<-495.506 -359.596> 170 70<248 291.435> 594 82<96 807.997>
LayerCount: 2
Fore
SplineSet
678 -30 m 0xf7
 498 -402 314 -576 134 -576 c 0
 54 -576 34 -508 34 -470 c 0
 34 -388 70 -270 232 -154 c 1
 258 -134 330 -90 336 -90 c 0
 340 -90 340 -92 340 -94 c 0
 340 -102 292 -124 244 -166 c 0
 160 -240 102 -342 102 -424 c 0
 102 -458 122 -536 200 -536 c 0
 282 -536 382 -502 604 -56 c 1
 600 -24 594 18 594 72 c 2
 598 760 l 2
 598 804 598 808 592 808 c 0
 580 808 570 788 562 772 c 2
 174 36 l 2
 158 4 138 4 118 -10 c 0
 102 -20 104 -32 92 -32 c 0
 88 -32 86 -30 86 -28 c 0
 86 -22 110 26 130 76 c 1
 148 124 170 180 170 230 c 0
 170 262 164 294 154 294 c 0
 144 294 136 284 128 284 c 0
 126 284 124 288 124 290 c 0
 124 292 140 300 156 310 c 0
 170 318 180 328 188 328 c 0
 202 328 224 314 232 292 c 0
 236 280 240 264 240 248 c 1
 548 814 l 1
 562 844 596 872 648 872 c 0xef
 670 872 682 858 682 812 c 2
 676 96 l 1
 776 312 1012 750 1064 802 c 1
 1084 820 1130 874 1182 874 c 0
 1208 874 1230 860 1230 852 c 0
 1230 842 1224 838 1208 824 c 0
 1184 802 1158 774 1152 774 c 0
 1148 774 1146 778 1146 780 c 0
 1146 788 1136 798 1122 798 c 0
 1102 798 1086 788 1070 764 c 0
 932 566 736 90 678 -30 c 0xf7
EndSplineSet
EndChar

StartChar: eng
Encoding: 331 331 258
Width: 628
VWidth: 2000
Flags: W
HStem: -360 40<-26.3888 72.6593> -28 21G<71 86> 414 42<449.889 529.832> 428 28<192.019 269>
VStem: -122 50<-280.181 -204.32> 238 68<348.742 427.728> 502 72<295.962 411.064>
LayerCount: 2
Fore
SplineSet
168 248 m 0xee
 184 278 238 376 238 402 c 0
 238 416 230 428 214 428 c 0
 186 428 158 414 134 398 c 0
 128 394 126 392 124 392 c 0
 122 392 120 394 120 396 c 0
 120 398 120 400 126 404 c 0
 128 406 194 456 252 456 c 0xde
 286 456 306 434 306 408 c 0
 306 388 286 350 266 314 c 1
 376 408 464 452 516 452 c 0
 562 452 574 412 574 380 c 0
 574 278 396 -32 336 -118 c 1
 260 -224 122 -360 -22 -360 c 0
 -104 -360 -122 -296 -122 -268 c 0
 -122 -242 -108 -218 -88 -182 c 1
 -80 -170 -72 -144 -64 -144 c 0
 -58 -144 -58 -148 -58 -152 c 0
 -58 -162 -72 -204 -72 -228 c 0
 -72 -264 -34 -320 44 -320 c 0
 96 -320 188 -290 302 -100 c 0
 316 -78 502 248 502 364 c 0
 502 400 490 414 464 414 c 0
 410 414 254 286 248 274 c 0
 244 266 202 190 202 188 c 2
 132 58 l 1
 102 8 92 -28 80 -28 c 0
 62 -28 38 -2 38 14 c 0
 38 34 82 88 168 248 c 0xee
EndSplineSet
EndChar

StartChar: oe
Encoding: 339 339 266
Width: 794
VWidth: 2000
Flags: W
HStem: -16 26<160.707 251.263 533.243 642.177> 234 20G<969 971> 420 22<337.964 391.027> 438 28<701.431 771> 472 44<424 478.197>
VStem: 62 74<25.468 187.423> 390 54<342.628 402> 420 78<34.1214 159.54> 502 20<305.285 421.59> 742 64<378.912 437.645>
AnchorPoint: "above" 610 548 basechar 0
LayerCount: 2
Fore
SplineSet
550 264 m 1xdcc0
 598 266 654 294 684 320 c 0
 726 356 742 392 742 416 c 0
 742 424 738 438 720 438 c 0
 660 438 594 352 550 264 c 1xdcc0
442 516 m 0
 498 516 522 451 522 384 c 0
 522 350 516 316 506 282 c 1
 582 384 690 466 754 466 c 0
 788 466 806 452 806 426 c 0
 806 384 734 326 706 306 c 0
 670 280 610 254 542 250 c 1
 514 192 498 134 498 100 c 0
 498 36 528 10 596 10 c 0
 684 10 792 80 864 142 c 0
 916 188 954 236 962 248 c 0
 966 254 968 254 970 254 c 0
 972 254 974 252 974 250 c 0
 974 248 974 248 972 244 c 0
 898 148 798 68 704 20 c 1
 662 0 610 -16 556 -16 c 0
 486 -16 420 4 420 78 c 0xddc0
 420 96 422 114 428 134 c 1
 362 46 268 -18 170 -18 c 0
 102 -18 62 14 62 84 c 0
 62 252 232 442 390 442 c 1xeec0
 392 466 406 516 442 516 c 0
480 262 m 1
 430 290 396 360 390 420 c 1xeec0
 266 420 136 224 136 82 c 0
 136 52 154 8 200 8 c 0
 308 8 430 134 480 262 c 1
488 288 m 1
 496 318 502 346 502 372 c 0
 502 428 466 472 458 472 c 0
 446 472 444 444 444 432 c 1
 452 430 462 420 462 412 c 0
 462 406 452 400 450 400 c 0
 448 400 446 402 444 402 c 1
 444 370 458 318 488 288 c 1
EndSplineSet
EndChar

StartChar: Tbar
Encoding: 358 358 285
Width: 728
VWidth: 2000
Flags: W
HStem: -28 21<150 211> 640 48<408.839 594.847> 648 48<638.434 826.715> 824 46<441.451 636 740 937.476> 1032 42<391.804 428.715> 1088 16<493.998 600.256>
VStem: 666 86<873.38 1021.58>
LayerCount: 2
Fore
SplineSet
852 696 m 0xbe
 854 696 856 694 856 692 c 0
 856 684 838 676 820 666 c 0
 804 656 792 648 784 648 c 0xbe
 630 644 552 648 384 640 c 0
 382 640 380 640 380 642 c 0
 380 652 440 688 456 688 c 0xde
 544 692 782 696 852 696 c 0xbe
EndSplineSet
Refer: 50 84 N 1 0 0 1 0 0 2
EndChar

StartChar: longs
Encoding: 383 383 309
Width: 320
VWidth: 2000
Flags: W
HStem: -794 32<-546 -443.754> 442 24<206.99 267.335> 1380 48<905.304 990>
VStem: -608 68<-743.5 -706.812> 952 70<1284.7 1387>
LayerCount: 2
Fore
SplineSet
1022 1376 m 0
 1022 1308 982 1246 946 1194 c 0
 934 1178 896 1160 884 1160 c 0
 882 1160 880 1160 880 1162 c 0
 880 1170 952 1242 952 1334 c 0
 952 1364 926 1380 910 1380 c 0
 826 1380 692 1128 558 880 c 0
 374 538 210 176 8 -188 c 1
 -126 -432 -294 -794 -520 -794 c 0
 -572 -794 -608 -754 -608 -722 c 0
 -608 -716 -588 -708 -576 -702 c 0
 -546 -686 -544 -680 -540 -680 c 0
 -538 -680 -536 -682 -536 -684 c 0
 -536 -686 -540 -688 -540 -692 c 0
 -540 -736 -506 -762 -472 -762 c 0
 -336 -762 -170 -416 -54 -192 c 2
 268 434 l 1
 250 440 238 442 226 442 c 0
 198 442 154 408 132 394 c 0
 128 392 126 392 124 392 c 0
 120 392 120 394 120 396 c 0
 120 400 144 416 156 424 c 0
 180 440 220 466 248 466 c 0
 258 466 270 464 282 460 c 1
 516 896 l 1
 656 1152 716 1276 858 1376 c 1
 906 1412 946 1428 976 1428 c 0
 1004 1428 1022 1398 1022 1376 c 0
EndSplineSet
EndChar

StartChar: uni0180
Encoding: 384 384 310
Width: 662
VWidth: 2000
Flags: W
HStem: -20 40<263.338 354.564> 458 40<482.744 609> 1028 40<453.348 650.503> 1036 40<590.12 778.593> 1380 48<906.584 996>
VStem: 136 74<72.7088 227.66> 610 68<312.399 430.932> 936 80<1262.17 1404.48>
LayerCount: 2
Fore
SplineSet
792 1076 m 0xdf
 794 1076 796 1074 796 1072 c 0
 796 1070 762 1036 732 1036 c 0xdf
 580 1032 612 1036 444 1028 c 0
 442 1028 440 1028 440 1030 c 0
 440 1040 474 1068 490 1068 c 0xef
 578 1072 722 1076 792 1076 c 0xdf
EndSplineSet
Refer: 64 98 N 1 0 0 1 0 0 2
EndChar

StartChar: uni0181
Encoding: 385 385 311
Width: 900
VWidth: 2000
Flags: W
HStem: -24 26<436.945 555.386> 476 16<661.516 748.456> 664 21G<379 402> 852 34<624.044 787.259>
VStem: 72 66<-129.12 -38.6429> 266 70<82.9194 150> 340 68<698 785.779> 810 90<251.943 427.217> 834 92<703.652 816.962>
LayerCount: 2
Fore
SplineSet
486 2 m 0xff
 612 2 810 142 810 370 c 1xff
 808 428 774 476 708 476 c 0
 632 476 606 442 574 442 c 0
 568 442 564 450 560 456 c 0
 558 460 552 462 552 468 c 0
 552 482 598 480 616 486 c 0
 712 518 834 648 834 762 c 0
 834 832 770 852 694 852 c 0
 680 852 670 852 652 850 c 1
 564 722 430 506 356 374 c 0
 290 256 228 148 180 40 c 0
 160 -4 138 -80 138 -146 c 0
 138 -156 138 -164 130 -164 c 0
 122 -164 110 -150 96 -132 c 1
 88 -120 72 -104 72 -96 c 0
 72 -76 150 100 326 384 c 1
 618 848 l 1
 524 838 408 812 408 758 c 0
 408 738 418 724 434 708 c 0
 442 700 452 702 452 696 c 0
 452 686 412 664 392 664 c 0
 366 664 340 688 340 708 c 0
 340 750 388 796 448 822 c 0
 544 864 644 886 750 886 c 0
 826 886 926 874 926 796 c 0xfe80
 926 654 770 520 660 486 c 1
 680 488 718 492 736 492 c 0
 820 492 900 458 900 340 c 0
 900 240 808 142 742 86 c 0
 678 32 588 -24 448 -24 c 0
 344 -24 266 52 266 124 c 0
 266 132 290 134 308 144 c 0
 330 156 336 164 340 164 c 0
 342 164 344 162 344 160 c 0
 344 156 336 152 336 148 c 0
 336 76 422 2 486 2 c 0xff
EndSplineSet
EndChar

StartChar: uni0182
Encoding: 386 386 312
Width: 900
VWidth: 2000
Flags: W
HStem: -32 32<415.618 549.591> 468 44<566.052 737.801> 798 44<620.069 881.304>
VStem: 72 66<-129.12 -43.8556> 266 70<72.8421 150> 808 88<260.927 405.531>
LayerCount: 2
Fore
SplineSet
326 384 m 0
 444 586 536 740 536 824 c 1
 496 836 488 840 488 852 c 0
 488 870 542 904 564 904 c 0
 582 904 588 878 604 870 c 0
 636 854 714 842 786 842 c 0
 960 842 1036 904 1052 904 c 0
 1054 904 1056 904 1056 902 c 0
 1056 882 896 798 718 798 c 0
 678 798 632 804 598 810 c 1
 546 684 480 594 384 424 c 1
 470 466 610 512 698 512 c 0
 806 512 896 476 896 356 c 0
 896 202 696 -32 438 -32 c 0
 326 -32 266 54 266 124 c 0
 266 132 290 134 308 144 c 0
 330 156 336 164 340 164 c 0
 342 164 344 162 344 160 c 0
 344 156 336 152 336 148 c 0
 336 96 374 0 482 0 c 0
 720 0 808 240 808 328 c 0
 808 428 732 468 630 468 c 0
 538 468 406 414 368 396 c 1
 302 278 228 148 180 40 c 0
 160 -4 138 -80 138 -146 c 0
 138 -156 138 -164 130 -164 c 0
 122 -164 110 -150 96 -132 c 1
 88 -120 72 -104 72 -96 c 0
 72 -76 158 96 326 384 c 0
EndSplineSet
EndChar

StartChar: uni018A
Encoding: 394 394 314
Width: 1194
VWidth: 2000
Flags: W
HStem: -20 26<716.12 863.342> -16 42<201.369 304.488> 296 56<352.053 448> 664 21G<379 402> 868 18<656.82 821.256> 1006 24<702.322 805.365>
VStem: 130 56<41.4607 130.934> 340 70<698 760.056> 840 80<884.385 985.748> 1170 86<361.671 620.414>
LayerCount: 2
Fore
SplineSet
480 186 m 1x7fc0
 440 242 404 296 360 296 c 0
 276 296 186 162 186 90 c 0
 186 52 206 26 266 26 c 0
 314 26 400 68 480 186 c 1x7fc0
558 240 m 1
 608 152 640 6 778 6 c 0xbfc0
 1016 6 1170 286 1170 516 c 0
 1170 716 1072 820 904 854 c 1
 904 854 692 428 558 240 c 1
920 926 m 1
 918 910 916 892 910 874 c 1
 1142 836 1256 696 1256 468 c 0
 1256 212 1040 -20 780 -20 c 0xbfc0
 630 -20 582 54 498 162 c 1
 468 128 438 96 408 70 c 0
 344 16 270 -16 226 -16 c 0x7fc0
 178 -16 130 4 130 56 c 0
 130 166 314 352 428 352 c 0
 468 352 504 318 534 276 c 1
 662 504 774 744 822 866 c 1
 802 868 782 868 760 868 c 0
 624 868 410 814 410 752 c 0
 410 712 452 700 452 696 c 0
 452 686 412 664 392 664 c 0
 366 664 340 688 340 708 c 0
 340 814 582 886 766 886 c 0
 788 886 810 886 830 884 c 1
 836 898 838 914 840 928 c 1
 840 984 810 1006 740 1006 c 0
 672 1006 614 954 606 954 c 0
 602 954 600 956 600 960 c 0
 600 964 676 1030 774 1030 c 0
 828 1030 920 1012 920 926 c 1
EndSplineSet
EndChar

StartChar: uni018E
Encoding: 398 398 316
Width: 780
VWidth: 2000
Flags: W
HStem: -36 48<286.5 447.363> 214 20G<158 161> 500 68<576.75 639.393> 846 40<552.834 720.22>
VStem: 76 72<125.255 197> 456 40<746.01 793.881> 698 78<247.53 421.97> 786 70<652.665 784.967>
LayerCount: 2
Fore
SplineSet
496 742 m 0
 494 736 494 730 488 730 c 0
 482 730 480 738 476 746 c 0
 462 780 456 782 456 802 c 0
 456 852 586 886 674 886 c 0
 830 886 856 788 856 730 c 0
 856 616 740 566 700 548 c 1
 714 536 776 472 776 360 c 0
 776 128 512 -36 326 -36 c 0
 208 -36 76 26 76 136 c 0
 76 144 88 154 100 166 c 0
 132 198 156 234 160 234 c 0
 162 234 166 234 166 230 c 0
 166 226 148 206 148 188 c 0
 148 112 250 12 400 12 c 0
 618 12 698 206 698 318 c 0
 698 390 668 470 610 500 c 0
 588 512 560 500 560 518 c 0
 560 528 590 568 604 568 c 0
 622 568 638 560 658 560 c 0
 716 560 786 610 786 706 c 0
 786 784 738 846 638 846 c 0
 504 846 498 748 496 742 c 0
EndSplineSet
EndChar

StartChar: uni0191
Encoding: 401 401 318
Width: 768
VWidth: 2000
Flags: W
HStem: -300 48<-150 -1.7749> 404 40<311.077 434 542 708.25> 432 20G<542 733> 824 46<442.366 640 742 937.252> 1066 20<530.359 617.267>
VStem: 668 84<873.099 1025.7> 732 4<451.692 452>
AnchorPoint: "above" 706 932 basechar 0
LayerCount: 2
Fore
SplineSet
456 442 m 1xda
 534 584 604 726 640 828 c 1
 612 828 580 826 548 824 c 0
 302 812 304 762 292 762 c 0
 288 762 286 764 286 768 c 0
 286 772 294 782 308 796 c 0
 330 818 372 842 424 852 c 0
 488 864 566 868 654 870 c 1
 664 902 668 928 668 948 c 0
 668 996 656 1066 570 1066 c 0
 502 1066 470 1030 454 1016 c 0
 448 1010 442 1002 438 1002 c 0
 436 1002 432 1002 432 1006 c 0
 432 1010 442 1020 448 1026 c 0
 484 1060 532 1086 586 1086 c 0
 688 1086 752 1046 752 938 c 0
 752 920 750 898 742 872 c 1
 844 874 956 880 1076 894 c 0
 1104 898 1117 898 1123 898 c 0
 1127 898 1128 898 1130 898 c 0
 1133 898 1142 898 1142 894 c 0
 1142 893 1140 891 1136 888 c 0
 1094 860 1058 852 1006 846 c 0
 896 834 812 832 726 830 c 1
 694 742 634 614 542 444 c 1xdc
 732 450 732 452 732 452 c 2
 734 452 736 452 736 450 c 0
 736 446 730 440 720 432 c 0xba
 696 414 698 404 520 404 c 1
 352 100 280 -40 162 -166 c 0
 116 -216 12 -300 -112 -300 c 0
 -188 -300 -250 -238 -250 -198 c 0
 -250 -186 -234 -190 -210 -176 c 0
 -186 -162 -176 -150 -166 -150 c 0
 -156 -150 -150 -182 -144 -192 c 0
 -120 -234 -82 -252 -34 -252 c 0
 16 -252 70 -212 112 -158 c 0
 156 -102 252 76 434 402 c 1
 264 402 262 378 246 378 c 1
 246 378 244 378 244 380 c 0
 244 386 262 400 282 410 c 0
 312 426 334 442 456 442 c 1xda
EndSplineSet
EndChar

StartChar: florin
Encoding: 402 402 319
Width: 438
VWidth: 2000
Flags: W
HStem: -486 40<-269.778 -188.217> 924 38<683.134 778>
VStem: -370 68<-415.33 -300.89>
LayerCount: 2
Fore
SplineSet
140 96 m 1
 -120 -80 -302 -208 -302 -346 c 0
 -302 -426 -250 -446 -206 -446 c 0
 -112 -446 24 -142 140 96 c 1
238 160 m 1
 110 -66 -58 -486 -264 -486 c 0
 -318 -486 -370 -458 -370 -382 c 0
 -370 -224 -138 -72 156 130 c 1
 300 418 534 962 756 962 c 0
 800 962 826 944 826 928 c 0
 826 912 782 868 768 868 c 0
 758 868 760 924 712 924 c 0
 586 924 518 684 254 192 c 1
 406 298 574 412 594 424 c 0
 598 426 600 426 602 426 c 0
 604 426 606 424 606 422 c 0
 606 418 582 402 570 394 c 0
 538 374 394 274 238 160 c 1
EndSplineSet
EndChar

StartChar: Ohorn
Encoding: 416 416 320
Width: 960
VWidth: 2000
Flags: W
HStem: -24 60<372.986 569.357> 668 21G<879 886> 788 48<1048.42 1158.57> 852 34<642.151 800.934>
VStem: 154 82<185.948 382.862> 880 56<714 785.786> 1008 62<485.604 738.772> 1210 12<882.398 911.997>
AnchorPoint: "above" 840 1000 basechar 0
AnchorPoint: "cedilla" 438 0 basechar 0
AnchorPoint: "below" 388 -100 basechar 0
LayerCount: 2
Fore
SplineSet
154 250 m 0
 154 386 236 552 318 652 c 0
 436 796 600 886 768 886 c 0
 836 886 936 832 936 778 c 0
 936 762 922 742 910 720 c 1
 898 694 890 668 882 668 c 0
 876 668 872 672 872 678 c 0
 872 690 880 706 880 722 c 0
 880 774 828 852 726 852 c 0
 568 852 446 768 356 634 c 0
 294 542 236 422 236 306 c 0
 236 146 330 36 472 36 c 0
 732 36 1008 308 1008 594 c 0
 1008 652 996 714 980 758 c 0
 962 806 942 816 942 834 c 0
 942 840 978 888 994 888 c 0
 1028 888 1042 836 1094 836 c 0
 1146 836 1210 858 1210 904 c 0
 1210 908 1212 912 1216 912 c 0
 1220 912 1222 908 1222 904 c 0
 1222 842 1154 788 1074 788 c 0
 1064 788 1056 788 1048 790 c 1
 1062 738 1070 676 1070 630 c 0
 1070 272 692 -24 446 -24 c 0
 298 -24 154 74 154 250 c 0
EndSplineSet
EndChar

StartChar: ohorn
Encoding: 417 417 321
Width: 536
VWidth: 2000
Flags: W
HStem: -18 26<163.558 243.562> 400 42<392.313 457.669 522.596 649.883> 420 22<337.837 439.135>
VStem: 62 74<25.468 187.423> 424 90<452.394 490.595> 502 20<312.176 405.562> 696 12<487.927 517.997>
AnchorPoint: "above" 478 548 basechar 0
AnchorPoint: "cedilla" 182 0 basechar 0
AnchorPoint: "below" 132 -100 basechar 0
LayerCount: 2
Fore
SplineSet
522 406 m 1xb6
 522 384 l 2
 522 194 346 -18 170 -18 c 0
 102 -18 62 14 62 84 c 0
 62 252 232 442 390 442 c 0xb6
 446 442 462 420 462 412 c 0
 462 406 452 400 450 400 c 0xd6
 448 400 440 420 390 420 c 0
 266 420 136 224 136 82 c 0
 136 52 154 8 200 8 c 0
 328 8 502 202 502 384 c 0xb6
 502 394 500 404 496 414 c 1
 450 436 424 474 424 498 c 0
 424 508 430 516 442 516 c 0
 476 516 502 490 514 448 c 1xba
 528 440 548 436 578 436 c 0
 630 436 696 464 696 510 c 0
 696 514 698 518 702 518 c 0
 706 518 708 514 708 510 c 0
 708 448 640 398 570 398 c 0
 552 398 536 402 522 406 c 1xb6
EndSplineSet
EndChar

StartChar: uni0237
Encoding: 567 567 336
Width: 348
VWidth: 2000
Flags: W
HStem: -1000 28<-787.716 -663.806> 234 20G<523 525> 420 26<188.434 307>
VStem: -1026 80<-823.918 -603.727> 232 90<368.553 435.095>
AnchorPoint: "above" 370 612 basechar 0
LayerCount: 2
Fore
SplineSet
20 -42 m 1
 -106 -66 -236 -80 -350 -118 c 0
 -626 -210 -946 -416 -946 -718 c 0
 -946 -850 -858 -972 -710 -972 c 0
 -538 -972 -370 -748 -292 -606 c 2
 20 -42 l 1
298 446 m 0
 316 446 322 438 322 426 c 0
 322 390 166 94 106 -8 c 1
 176 8 318 58 420 146 c 0
 480 198 508 236 516 248 c 0
 520 254 522 254 524 254 c 0
 526 254 528 252 528 250 c 0
 528 248 528 248 526 244 c 0
 494 202 462 166 426 134 c 0
 342 60 232 6 96 -28 c 1
 -240 -598 l 2
 -346 -778 -526 -1000 -762 -1000 c 0
 -906 -1000 -1026 -894 -1026 -744 c 0
 -1026 -374 -636 -180 -358 -98 c 0
 -216 -56 -90 -46 30 -24 c 1
 30 -24 232 356 232 406 c 0
 232 418 214 420 202 420 c 0
 180 420 158 414 134 398 c 0
 128 394 126 392 124 392 c 0
 122 392 120 394 120 396 c 0
 120 398 120 400 126 404 c 0
 144 416 184 446 298 446 c 0
EndSplineSet
EndChar

StartChar: circumflex
Encoding: 710 710 337
Width: 452
VWidth: 2000
Flags: W
HStem: 544 166
VStem: 206 318
LayerCount: 2
Fore
SplineSet
464 710 m 4
 468 710 470 708 472 702 c 4
 483 669 524 615 524 571 c 0
 524 569 515 565 504 560 c 4
 496 556 486 544 482 544 c 4
 481 544 480 543 480 543 c 0
 480 543 480 543 480 544 c 4
 464 584 450 616 428 662 c 5
 236 556 l 6
 218 546 208 546 206 546 c 4
 204 546 204 548 204 548 c 5
 204 554 268 586 430 694 c 4
 438 700 454 710 464 710 c 4
EndSplineSet
EndChar

StartChar: uni02C9
Encoding: 713 713 339
Width: 460
VWidth: 2000
Flags: W
HStem: 602 28<228.107 581.805>
AnchorPoint: "above" 364 548 mark 0
LayerCount: 2
Fore
SplineSet
236 630 m 0
 344 630 494 628 566 628 c 0
 578 628 582 624 582 618 c 0
 582 602 554 600 524 600 c 0
 440 600 468 602 242 602 c 0
 232 602 228 610 228 618 c 0
 228 624 232 630 236 630 c 0
EndSplineSet
EndChar

StartChar: breve
Encoding: 728 728 340
Width: 452
VWidth: 2000
Flags: W
HStem: 580 28<376.934 447.904> 704 20G<350 357 611 620>
VStem: 300 48<627.481 703.467>
LayerCount: 2
Fore
SplineSet
380 580 m 0
 316 580 300 620 300 654 c 0
 300 668 304 682 310 698 c 0
 314 708 344 724 356 724 c 0
 358 724 358 722 358 722 c 1
 358 720 348 700 348 678 c 0
 348 632 384 608 426 608 c 0
 456 608 518 620 570 696 c 1
 574 700 604 722 618 722 c 2
 620 722 l 1
 620 710 498 580 380 580 c 0
EndSplineSet
EndChar

StartChar: dotaccent
Encoding: 729 729 341
Width: 432
VWidth: 2000
Flags: W
HStem: 566 106<373.62 424.087>
VStem: 352 92<585.469 650.082>
LayerCount: 2
Fore
SplineSet
352 602 m 0
 352 630 382 672 414 672 c 0
 430 672 444 656 444 636 c 0
 444 608 418 566 384 566 c 0
 364 566 352 580 352 602 c 0
EndSplineSet
EndChar

StartChar: ring
Encoding: 730 730 342
Width: 400
VWidth: 2000
Flags: W
HStem: 598 22<360.037 424.71> 756 24<368.678 432.274>
VStem: 300 34<638.634 722.066> 458 36<654.664 736.684>
AnchorPoint: "above" 364 548 mark 0
LayerCount: 2
Fore
SplineSet
400 756 m 0
 360 756 334 718 334 678 c 0
 334 648 362 620 390 620 c 0
 426 620 458 650 458 694 c 0
 458 720 436 756 400 756 c 0
300 666 m 0
 300 728 356 780 420 780 c 0
 462 780 494 752 494 712 c 0
 494 654 440 598 378 598 c 0
 334 598 300 626 300 666 c 0
EndSplineSet
EndChar

StartChar: ogonek
Encoding: 731 731 343
Width: 400
VWidth: 2000
Flags: W
HStem: -226 16<18 83.7994>
VStem: -50 62<-195.206 -114.627>
AnchorPoint: "cedilla" 160 0 mark 0
LayerCount: 2
Fore
SplineSet
166 6 m 0
 168 6 170 4 170 2 c 0
 170 -2 112 -32 96 -42 c 0
 62 -64 12 -100 12 -152 c 0
 12 -184 40 -210 76 -210 c 0
 96 -210 112 -202 116 -202 c 0
 120 -202 124 -202 124 -204 c 0
 124 -208 64 -226 36 -226 c 0
 0 -226 -50 -218 -50 -170 c 0
 -50 -112 12 -76 62 -48 c 0
 68 -44 164 6 166 6 c 0
EndSplineSet
EndChar

StartChar: tilde
Encoding: 732 732 344
Width: 492
VWidth: 2000
Flags: W
HStem: 546 34<414 503.704> 642 34<304.296 392>
AnchorPoint: "above" 364 548 mark 0
LayerCount: 2
Fore
SplineSet
360 676 m 0
 424 676 432 580 492 580 c 0
 518 580 558 618 584 650 c 0
 592 660 600 674 606 674 c 0
 608 674 610 672 610 670 c 0
 610 652 520 546 448 546 c 0
 380 546 372 642 316 642 c 0
 290 642 250 604 224 572 c 0
 216 562 208 548 202 548 c 0
 200 548 198 550 198 552 c 0
 198 570 288 676 360 676 c 0
EndSplineSet
EndChar

StartChar: hungarumlaut
Encoding: 733 733 345
Width: 478
VWidth: 2000
Flags: W
HStem: 546 160 546 174
VStem: 388 280
AnchorPoint: "above" 364 548 mark 0
LayerCount: 2
Fore
SplineSet
522 714 m 0x60
 528 718 534 720 538 720 c 0
 542 720 542 716 542 712 c 0
 542 702 530 684 520 678 c 0
 328 574 294 546 278 546 c 0
 276 546 274 548 274 550 c 0
 274 552 292 562 522 714 c 0x60
EndSplineSet
Refer: 110 180 S 1 0 0 1 152 0 2
EndChar

StartChar: uni0374
Encoding: 884 884 346
Width: 286
VWidth: 2000
Flags: W
HStem: -356 278
VStem: 206 40<-236.657 -144.66>
LayerCount: 2
Fore
SplineSet
194 -78 m 0
 222 -78 246 -140 246 -166 c 0
 246 -250 162 -322 108 -354 c 0
 104 -356 102 -356 102 -356 c 1
 98 -356 96 -354 96 -352 c 0
 96 -346 100 -340 108 -334 c 0
 154 -306 206 -256 206 -190 c 0
 206 -146 158 -126 158 -112 c 0
 158 -98 188 -78 194 -78 c 0
EndSplineSet
EndChar

StartChar: tonos
Encoding: 900 900 347
Width: 460
VWidth: 2000
Flags: W
HStem: 542 228
VStem: 332 236
AnchorPoint: "above" 364 548 mark 0
AnchorPoint: "greekabove" 364 548 mark 0
LayerCount: 2
Fore
SplineSet
338 552 m 5
 532 752 l 6
 540 760 552 770 554 770 c 4
 560 770 568 748 568 742 c 4
 568 736 566 732 560 728 c 4
 472 652 430 624 346 550 c 5
 344 546 338 542 336 542 c 4
 334 542 332 542 332 544 c 4
 332 546 338 552 338 552 c 5
EndSplineSet
EndChar

StartChar: Gamma
Encoding: 915 915 350
Width: 692
VWidth: 2000
Flags: W
HStem: -26 21G<34 52>
LayerCount: 2
Fore
SplineSet
300 756 m 0
 296 752 294 748 288 752 c 0
 282 756 286 760 290 766 c 0
 312 794 346 834 426 848 c 0
 582 876 772 850 1036 882 c 0
 1082 888 1086 890 1090 890 c 0
 1093 890 1102 890 1102 886 c 0
 1102 885 1100 883 1096 880 c 0
 1054 852 1018 844 966 838 c 0
 808 820 720 828 592 824 c 1
 550 746 516 676 396 438 c 0
 310 266 230 120 170 0 c 0
 164 -12 146 -20 138 -20 c 0
 122 -22 64 -26 40 -26 c 0
 28 -26 26 -26 26 -20 c 0
 26 -14 54 -18 78 18 c 0
 150 130 252 314 330 460 c 1
 340 476 458 704 504 820 c 1
 378 812 352 804 300 756 c 0
EndSplineSet
EndChar

StartChar: Delta
Encoding: 916 916 351
Width: 980
VWidth: 2000
Flags: W
HStem: 0 32<114.003 310.109>
VStem: 22 92<13 59.048> 846 90<70.7795 351.832>
LayerCount: 2
Fore
SplineSet
46 0 m 2
 28 0 22 8 22 18 c 0
 22 74 256 260 742 772 c 0
 818 852 822 860 876 882 c 0
 888 886 912 896 922 896 c 0
 926 896 930 892 930 884 c 0
 930 850 924 816 924 444 c 0
 924 262 936 102 936 100 c 0
 936 18 884 0 810 0 c 2
 46 0 l 2
846 98 m 0
 846 306 824 724 824 794 c 0
 824 798 820 800 818 800 c 0
 814 800 804 790 792 778 c 0
 740 720 114 48 114 40 c 0
 114 34 118 32 126 32 c 0
 846 32 846 68 846 98 c 0
EndSplineSet
EndChar

StartChar: Iota
Encoding: 921 921 356
Width: 494
VWidth: 2000
Flags: W
HStem: -18 21G<28 37> 868 18<476.277 543>
AnchorPoint: "greekabove" 346 800 basechar 0
LayerCount: 2
Fore
SplineSet
242 248 m 0
 302 358 552 816 552 844 c 0
 552 856 538 864 522 868 c 0
 500 874 476 872 476 878 c 0
 476 882 484 886 492 886 c 0
 518 886 550 882 610 882 c 0
 654 882 706 886 734 886 c 0
 742 886 744 880 744 878 c 0
 744 866 668 864 658 848 c 0
 502 590 424 448 284 168 c 0
 196 -8 236 -2 104 -10 c 0
 70 -12 40 -18 34 -18 c 0
 22 -18 18 -14 18 -10 c 0
 18 -6 22 0 30 0 c 0
 88 6 116 16 242 248 c 0
EndSplineSet
EndChar

StartChar: Lambda
Encoding: 923 923 358
Width: 980
VWidth: 2000
Flags: W
HStem: -14 22<-49.5476 -8.65771> -8 34<745 868.907> 234 20G<1155 1157>
VStem: 692 88<52.6477 363.064>
AnchorPoint: "greekabove" 560 800 basechar 0
AnchorPoint: "above" 940 1000 basechar 0
AnchorPoint: "cedilla" 790 0 basechar 0
AnchorPoint: "below" 356 -100 basechar 0
LayerCount: 2
Fore
SplineSet
906 830 m 1xb0
 844 664 780 322 780 178 c 0
 780 62 806 26 844 26 c 0
 898 26 992 92 1050 142 c 0
 1102 188 1140 236 1148 248 c 0
 1152 254 1154 254 1156 254 c 0
 1158 254 1160 252 1160 250 c 0
 1160 248 1160 248 1158 244 c 0
 1084 146 1018 90 926 36 c 0
 874 6 824 -8 786 -8 c 0x70
 704 -8 692 48 692 154 c 0
 692 380 806 738 806 802 c 0
 806 806 806 808 804 808 c 0
 800 808 788 792 776 780 c 1
 372 306 l 1
 260 178 160 70 102 22 c 1
 78 4 54 -2 16 -6 c 0
 0 -8 -18 -14 -38 -14 c 0
 -44 -14 -50 -12 -50 -6 c 0
 -50 2 -42 6 -34 8 c 0
 -16 14 12 28 30 44 c 0
 198 190 398 378 746 784 c 0
 818 868 822 862 876 884 c 0
 888 888 910 902 920 902 c 0
 924 902 928 898 928 894 c 2
 928 892 l 2
 928 874 908 840 906 830 c 1xb0
EndSplineSet
EndChar

StartChar: Xi
Encoding: 926 926 361
Width: 910
VWidth: 2000
Flags: W
HStem: -28 44<516.538 722.984> -16 21G<5 8> 44 44<123.016 323.724> 374 44<641.116 800.984> 422 44<387.016 546.884> 774 44<857.76 1038.98> 842 44<501.26 692.437>
LayerCount: 2
Fore
SplineSet
228 88 m 0x7e
 414 88 496 16 692 16 c 0
 752 16 770 26 814 56 c 0
 824 64 836 76 840 76 c 0
 842 76 844 74 844 72 c 0
 844 68 838 64 824 52 c 0
 732 -22 646 -28 618 -28 c 0xbe
 422 -28 340 44 154 44 c 0
 94 44 76 34 32 4 c 0
 22 -4 10 -16 6 -16 c 0
 4 -16 2 -14 2 -12 c 0
 2 -8 8 -4 22 8 c 0
 114 82 200 88 228 88 c 0x7e
696 374 m 0
 584 374 528 422 418 422 c 0
 358 422 340 412 296 382 c 0
 286 374 274 362 270 362 c 0
 268 362 266 364 266 366 c 0
 266 370 272 374 286 386 c 0
 378 460 464 466 492 466 c 0
 604 466 660 418 770 418 c 0
 830 418 848 428 892 458 c 0
 902 466 914 478 918 478 c 0
 920 478 922 476 922 474 c 0
 922 470 916 466 902 454 c 0
 810 380 724 374 696 374 c 0
388 796 m 0
 448 860 556 886 612 886 c 0
 768 886 854 818 1008 818 c 0
 1068 818 1086 828 1130 858 c 0
 1140 866 1152 878 1156 878 c 0
 1158 878 1160 876 1160 874 c 0
 1160 870 1154 866 1140 854 c 0
 1048 780 962 774 934 774 c 0
 778 774 696 842 538 842 c 0
 478 842 436 824 394 782 c 0
 382 770 376 762 372 762 c 0
 368 762 366 764 366 768 c 0
 366 772 374 782 388 796 c 0
EndSplineSet
EndChar

StartChar: Pi
Encoding: 928 928 363
Width: 848
VWidth: 2000
Flags: W
HStem: -28 34<512 637.31>
VStem: 492 106<-14.9496 60.1273>
LayerCount: 2
Fore
SplineSet
232 762 m 0
 228 762 226 764 226 768 c 0
 226 772 234 782 248 796 c 0
 270 818 312 842 364 852 c 0
 520 880 892 858 1156 890 c 0
 1202 896 1206 898 1210 898 c 0
 1213 898 1222 898 1222 894 c 0
 1222 893 1220 891 1216 888 c 0
 1153 846 1079 843 986 838 c 1
 652 168 l 2
 608 80 598 44 598 22 c 0
 598 12 608 6 622 6 c 0
 648 6 678 22 686 22 c 0
 688 22 692 20 692 18 c 0
 692 0 602 -28 518 -28 c 0
 506 -28 492 -18 492 -6 c 0
 492 38 532 86 614 248 c 0
 750 516 798 600 896 834 c 1
 792 830 684 830 590 828 c 1
 484 578 220 90 168 -2 c 0
 160 -16 156 -28 46 -28 c 0
 34 -28 32 -28 32 -22 c 0
 32 -16 60 -18 82 16 c 0
 212 216 400 564 508 824 c 1
 488 824 l 1
 242 812 244 762 232 762 c 0
EndSplineSet
EndChar

StartChar: Sigma
Encoding: 931 931 365
Width: 930
VWidth: 2000
Flags: W
HStem: -28 38<491.85 679.901> 0 58<88.5599 460.756> 216 20G<846 855> 686 21G<993 1001> 840 46<759.776 1035.14>
VStem: 432 90<632.054 830.613> 492 84<464 550.137> 812 66<124.623 216.225> 1036 94<787 881>
LayerCount: 2
Fore
SplineSet
32 -24 m 0x7b80
 28 -24 24 -22 24 -16 c 0
 24 12 210 242 444 418 c 0
 468 436 492 458 492 470 c 0x7b80
 492 490 432 662 432 822 c 0
 432 840 454 850 468 860 c 1
 482 872 490 886 516 886 c 2
 1112 886 l 2
 1126 886 1130 882 1130 880 c 0
 1130 866 1116 854 1100 824 c 0
 1060 750 1058 728 1034 714 c 0
 1010 700 1008 686 994 686 c 0
 992 686 990 688 990 692 c 0
 990 702 1036 760 1036 814 c 0
 1036 826 1018 840 972 840 c 0
 792 840 522 838 522 826 c 2
 522 798 l 2x7d80
 522 574 576 510 576 496 c 0
 576 480 550 468 506 438 c 0
 356 334 192 188 92 36 c 1
 162 46 268 58 310 58 c 0x7b80
 448 58 496 10 622 10 c 0
 802 10 812 130 812 158 c 0
 812 186 792 196 792 202 c 0
 792 214 842 236 850 236 c 0
 860 236 878 220 878 198 c 0
 878 100 750 -28 566 -28 c 0xbb80
 478 -28 392 0 304 0 c 0
 242 0 70 -24 32 -24 c 0x7b80
EndSplineSet
EndChar

StartChar: Phi
Encoding: 934 934 368
Width: 870
VWidth: 2000
Flags: W
HStem: 112 42<454.562 553.692> 864 16<672.006 712.029>
VStem: 178 72<269.265 420.267> 880 74<444.018 597.527>
LayerCount: 2
Fore
SplineSet
454 156 m 1
 466 154 478 154 490 154 c 0
 724 154 880 358 880 508 c 0
 880 596 828 664 744 694 c 1
 620 484 536 320 454 156 c 1
346 120 m 1
 244 144 178 218 178 320 c 0
 178 538 466 742 690 754 c 1
 710 794 722 824 722 832 c 0
 722 858 704 864 680 864 c 0
 674 864 672 868 672 872 c 0
 672 876 680 880 688 880 c 0
 736 880 740 878 796 878 c 0
 840 878 884 888 912 888 c 0
 920 888 922 880 922 878 c 0
 922 866 846 864 836 848 c 2
 776 748 l 1
 890 726 954 648 954 548 c 0
 954 326 664 120 434 112 c 1
 380 -6 396 -2 280 -10 c 0
 246 -12 216 -18 210 -18 c 0
 198 -18 194 -14 194 -10 c 0
 194 -6 198 0 206 0 c 0
 250 4 278 12 346 120 c 1
250 360 m 0
 250 274 300 206 378 174 c 1
 668 710 l 1
 668 710 650 712 640 712 c 0
 386 712 250 492 250 360 c 0
EndSplineSet
EndChar

StartChar: Psi
Encoding: 936 936 370
Width: 1046
VWidth: 2000
Flags: W
HStem: 270 52<511.281 530> 850 36<356.94 441.15> 868 18<752.277 819> 948 42<1174.65 1217.85>
VStem: 356 92<385.057 544.888> 456 86<697.732 838.265> 1228 66<847.644 937.263>
AnchorPoint: "greekabove" 186 800 basechar 0
LayerCount: 2
Fore
SplineSet
434 886 m 0xde
 510 886 542 840 542 786 c 0
 542 704 448 568 448 460 c 0
 448 396 488 342 558 322 c 1
 650 490 828 820 828 844 c 0
 828 856 814 864 798 868 c 0
 776 874 752 872 752 878 c 0
 752 882 760 886 768 886 c 0
 794 886 826 882 886 882 c 0
 930 882 982 886 1010 886 c 0xbe
 1018 886 1020 880 1020 878 c 0
 1020 866 944 864 934 848 c 0
 808 640 732 506 634 314 c 1
 754 324 968 416 1158 728 c 0
 1204 804 1226 844 1228 894 c 1
 1228 938 1190 948 1174 948 c 0
 1162 948 1160 944 1156 944 c 0
 1154 944 1152 946 1152 948 c 0
 1152 950 1154 954 1162 960 c 0
 1180 974 1204 990 1232 990 c 0
 1248 990 1294 982 1294 930 c 0
 1294 880 1268 834 1224 760 c 1
 1050 478 816 292 612 270 c 1
 560 168 l 2
 470 -8 512 -2 380 -10 c 0
 346 -12 316 -18 310 -18 c 0
 298 -18 294 -14 294 -10 c 0
 294 -6 298 0 306 0 c 0
 376 8 402 36 530 270 c 1
 444 280 356 354 356 444 c 0
 356 552 456 684 456 774 c 0
 456 808 452 850 394 850 c 0
 368 850 314 842 254 782 c 0
 242 770 236 762 232 762 c 0
 228 762 226 764 226 768 c 0
 226 772 234 782 248 796 c 0
 314 864 396 886 434 886 c 0xde
EndSplineSet
EndChar

StartChar: Omega
Encoding: 937 937 371
Width: 1204
VWidth: 2000
Flags: W
HStem: -108 44<1152.22 1293.43> -56 21G<734 743> -28 46<35.6567 316> 856 30<755.12 953.079>
VStem: 204 84<208.639 428.81> 1186 80<448.784 645.202>
AnchorPoint: "below" 554 -100 basechar 0
AnchorPoint: "greekabove" 440 800 basechar 0
LayerCount: 2
Fore
SplineSet
316 18 m 1
 242 106 204 194 204 308 c 0
 204 530 452 886 898 886 c 0
 1062 886 1266 786 1266 568 c 0
 1266 464 1222 294 890 44 c 1
 996 30 1136 -64 1278 -64 c 0
 1306 -64 1314 -52 1322 -52 c 0
 1324 -52 1326 -54 1326 -56 c 0
 1326 -62 1284 -108 1218 -108 c 0
 1100 -108 908 -10 828 -4 c 1
 796 -28 750 -56 736 -56 c 0
 732 -56 726 -52 726 -44 c 0
 726 -10 792 8 830 32 c 1
 1006 150 1186 298 1186 530 c 0
 1186 740 1016 856 856 856 c 0
 464 856 288 514 288 346 c 0
 288 116 440 48 440 14 c 0
 440 4 410 -8 388 -18 c 0
 370 -26 354 -34 340 -34 c 0
 294 -34 210 -28 0 -28 c 0
 -2 -28 -4 -26 -4 -26 c 1
 -4 -24 16 -16 32 -6 c 0
 52 6 64 18 70 18 c 0
 88 18 148 14 186 14 c 0
 230 14 272 16 316 18 c 1
EndSplineSet
EndChar

StartChar: alpha
Encoding: 945 945 379
Width: 686
VWidth: 2000
Flags: W
HStem: -4 38<123 237.266 481.998 588.742> 234 20G<861 863> 444 18<370.934 429.292>
VStem: 62 76<46.7057 186.338> 390 58<128.448 183.436> 446 58<285.938 438.723>
AnchorPoint: "above" 476 548 basechar 0
AnchorPoint: "below" 222 -100 basechar 0
LayerCount: 2
Fore
SplineSet
390 120 m 1xf8
 308 40 224 -4 150 -4 c 0
 96 -4 62 46 62 100 c 0
 62 238 272 462 422 462 c 0
 490 462 504 426 504 382 c 0xf4
 504 316 474 272 458 216 c 1
 524 286 602 376 634 416 c 0
 636 420 642 422 646 422 c 0
 648 422 648 422 650 420 c 1
 650 418 650 416 648 414 c 0
 612 368 528 266 452 184 c 1
 450 172 448 158 448 144 c 0
 448 102 466 30 540 30 c 0
 604 30 698 92 756 142 c 0
 808 188 846 236 854 248 c 0
 858 254 860 254 862 254 c 0
 864 254 866 252 866 250 c 0
 866 248 866 248 864 244 c 0
 790 146 724 90 632 36 c 0
 580 6 540 -4 494 -4 c 0
 428 -4 394 54 390 120 c 1xf8
390 146 m 1xf8
 394 238 446 308 446 390 c 0xf4
 446 418 438 444 400 444 c 0
 302 444 138 240 138 108 c 0
 138 64 152 34 202 34 c 0
 246 34 322 82 390 146 c 1xf8
EndSplineSet
EndChar

StartChar: beta
Encoding: 946 946 380
Width: 734
VWidth: 2000
Flags: W
HStem: -28 34<290.677 407.104> 454 46<441.905 557.501> 466 20<494.356 605> 832 60<666.145 805.171>
VStem: -422 82<-1399.22 -1314.9> 668 64<239.217 412.069> 788 64<689.326 810.866>
LayerCount: 2
Fore
SplineSet
706 832 m 0xbe
 292 832 -166 -646 -256 -968 c 0
 -322 -1204 -336 -1340 -340 -1382 c 0
 -342 -1396 -364 -1400 -380 -1404 c 0
 -396 -1408 -398 -1412 -416 -1412 c 0
 -420 -1412 -422 -1410 -422 -1406 c 0
 -422 -1398 -362 -1154 -310 -978 c 0
 -100 -274 336 892 766 892 c 0
 844 892 852 808 852 764 c 0
 852 690 744 516 618 480 c 1
 706 458 732 392 732 358 c 0
 732 78 440 -28 296 -28 c 0
 254 -28 188 -4 188 30 c 0
 188 44 190 60 190 72 c 1
 188 90 182 100 182 112 c 0
 182 114 184 120 188 120 c 0
 204 120 238 6 368 6 c 0
 538 6 668 166 668 330 c 0
 668 412 612 466 576 466 c 0xbe
 538 466 490 454 460 454 c 0
 448 454 436 456 436 464 c 0
 436 476 458 500 468 500 c 0xde
 496 500 506 486 560 486 c 0
 584 486 620 488 668 522 c 1
 722 562 788 662 788 748 c 0
 788 808 754 832 706 832 c 0xbe
EndSplineSet
EndChar

StartChar: gamma
Encoding: 947 947 381
Width: 492
VWidth: 2000
Flags: W
HStem: -764 48<-247.292 -170.011>
VStem: -330 70<-702.767 -584.002> 168 62<59.9915 390.211>
LayerCount: 2
Fore
SplineSet
142 -42 m 1
 -116 -338 -260 -528 -260 -648 c 0
 -260 -690 -240 -716 -196 -716 c 0
 -118 -716 -36 -618 16 -504 c 0
 102 -318 124 -178 142 -42 c 1
148 4 m 1
 156 52 168 172 168 244 c 0
 168 302 166 352 150 384 c 0
 146 392 142 396 138 396 c 0
 134 396 130 392 124 392 c 0
 122 392 120 394 120 396 c 0
 120 398 120 400 126 404 c 0
 142 414 176 436 182 436 c 0
 190 436 196 432 206 418 c 0
 220 398 230 344 230 274 c 0
 230 220 224 156 216 82 c 1
 444 348 584 466 710 552 c 1
 730 562 746 570 752 570 c 0
 756 570 756 566 756 564 c 0
 756 560 734 548 716 538 c 1
 490 382 304 138 206 30 c 1
 168 -162 126 -336 68 -458 c 0
 -36 -678 -176 -764 -238 -764 c 0
 -306 -764 -330 -724 -330 -662 c 0
 -330 -494 80 -72 148 4 c 1
EndSplineSet
EndChar

StartChar: delta
Encoding: 948 948 382
Width: 572
VWidth: 2000
Flags: W
HStem: -8 24<168.933 255.63> 1388 42<805.714 924.291>
VStem: 62 80<31.6509 202.144> 416 60<644.121 937.622> 468 56<254.655 445.66> 978 52<1210.43 1329.45>
LayerCount: 2
Fore
SplineSet
882 1430 m 0xf4
 976 1430 1030 1382 1030 1310 c 0
 1030 1262 984 1124 964 1124 c 0
 962 1124 960 1126 960 1128 c 0
 960 1146 978 1154 978 1216 c 0
 978 1350 926 1388 846 1388 c 0
 704 1388 476 1134 476 880 c 0xf4
 476 728 524 476 524 372 c 0xec
 524 202 380 -8 174 -8 c 0
 98 -8 62 32 62 100 c 0
 62 316 312 436 442 464 c 1
 438 484 416 660 416 780 c 0
 416 1168 750 1430 882 1430 c 0xf4
446 448 m 1
 282 408 142 276 142 100 c 0
 142 68 146 16 210 16 c 0
 374 16 468 208 468 312 c 0xec
 468 358 450 424 446 448 c 1
EndSplineSet
EndChar

StartChar: epsilon
Encoding: 949 949 383
Width: 454
VWidth: 2000
Flags: W
HStem: -20 30<180.544 294.522> 234 20G<629 631> 248 44<252.943 319.415> 440 28<296.196 397>
VStem: 48 76<51.9452 165.319> 182 52<310.693 389.307>
AnchorPoint: "above" 402 548 basechar 0
LayerCount: 2
Fore
SplineSet
254 10 m 0xbc
 388 10 566 164 622 248 c 0xbc
 626 254 628 254 630 254 c 0xdc
 632 254 634 252 634 250 c 0
 634 248 634 248 632 244 c 0
 558 148 458 68 364 20 c 1
 322 0 258 -20 204 -20 c 0
 120 -20 48 12 48 98 c 0
 48 190 166 256 206 272 c 1
 186 288 182 318 182 332 c 0
 182 404 280 468 372 468 c 0
 422 468 456 436 456 414 c 0
 456 410 410 384 406 384 c 0
 398 384 384 440 324 440 c 0
 274 440 234 424 234 364 c 0
 234 330 266 292 282 292 c 0
 292 292 310 296 320 296 c 0
 332 296 342 294 342 290 c 0
 342 282 328 274 316 268 c 1
 296 260 286 248 266 248 c 0
 258 248 256 250 248 250 c 0
 226 250 124 186 124 120 c 0
 124 44 180 10 254 10 c 0xbc
EndSplineSet
EndChar

StartChar: zeta
Encoding: 950 950 384
Width: 760
VWidth: 2000
Flags: W
HStem: -504 36<270.349 369.718> 234 20G<935 937> 1362 70<1309.2 1521.25>
VStem: 100 68<-372.351 -294.571> 124 76<37.2713 219.746> 522 78<-318.839 -210.598>
LayerCount: 2
Fore
SplineSet
406 -138 m 1xf4
 222 -234 168 -252 168 -322 c 0
 168 -358 244 -468 332 -468 c 0
 424 -468 520 -384 522 -282 c 1
 522 -212 474 -170 406 -138 c 1xf4
200 124 m 0xec
 200 -32 342 -38 456 -96 c 1
 592 -24 726 52 830 142 c 0
 882 188 920 236 928 248 c 0
 932 254 934 254 936 254 c 0
 938 254 940 252 940 250 c 0
 940 248 940 248 938 244 c 0
 906 202 874 166 840 136 c 1
 776 76 660 0 472 -102 c 1
 532 -130 600 -174 600 -242 c 0
 600 -368 418 -500 282 -504 c 1
 168 -504 100 -388 100 -358 c 0xf4
 100 -272 190 -232 388 -130 c 1
 284 -86 124 -58 124 96 c 0
 124 432 700 1160 1190 1370 c 1
 1060 1386 922 1428 922 1442 c 0
 922 1446 968 1478 976 1478 c 0
 978 1478 1102 1414 1278 1402 c 1
 1344 1422 1414 1432 1480 1432 c 0
 1530 1432 1564 1424 1564 1416 c 0
 1564 1394 1494 1362 1358 1362 c 0
 1304 1362 1268 1364 1228 1368 c 1
 796 1172 200 516 200 124 c 0xec
EndSplineSet
EndChar

StartChar: eta
Encoding: 951 951 385
Width: 580
VWidth: 2000
Flags: W
HStem: -16 21G<33 41> 414 38<461.914 537> 428 28<191.481 269>
VStem: 198 34<-758.203 -393.953> 238 68<346.553 427.728> 492 72<345.142 432.066>
AnchorPoint: "below" 58 -100 basechar 0
AnchorPoint: "above" 456 548 basechar 0
LayerCount: 2
Fore
SplineSet
266 312 m 1xbc
 314 346 374 388 430 418 c 0
 454 430 498 452 530 452 c 0
 544 452 564 446 564 414 c 0
 564 346 436 172 334 -94 c 0
 232 -362 232 -522 232 -568 c 0
 232 -704 264 -864 264 -880 c 0
 264 -890 258 -898 254 -898 c 0
 242 -898 198 -758 198 -556 c 0
 198 -366 236 -216 284 -80 c 0
 372 166 492 346 492 390 c 0
 492 400 492 414 478 414 c 0xdc
 460 414 432 402 402 386 c 0
 370 370 262 296 254 284 c 1
 250 276 202 188 202 186 c 2
 102 8 l 2
 94 -6 84 0 62 -8 c 0
 46 -14 46 -16 36 -16 c 0
 30 -16 24 -12 24 -6 c 0
 24 2 44 32 76 86 c 0
 104 134 124 166 168 248 c 0
 184 278 238 376 238 402 c 0
 238 416 230 428 214 428 c 0
 186 428 158 414 134 398 c 0
 128 394 126 392 124 392 c 0
 122 392 120 394 120 396 c 0
 120 398 120 400 126 404 c 0
 134 410 194 456 252 456 c 0
 286 456 306 434 306 408 c 0
 306 388 286 348 266 312 c 1xbc
EndSplineSet
EndChar

StartChar: theta
Encoding: 952 952 386
Width: 710
VWidth: 2000
Flags: W
HStem: -8 30<192 296.376> 336 24<667.798 746.788> 428 20<187.002 256> 1352 36<841.523 934>
VStem: 120 72<40.347 193.38> 244 66<336.509 424.248> 500 56<483.491 755.37> 924 56<1068.82 1332.01>
LayerCount: 2
Fore
SplineSet
240 448 m 0
 272 448 310 436 310 398 c 0
 310 304 192 222 192 106 c 0
 192 58 214 22 256 22 c 0
 364 22 494 170 610 350 c 1
 546 382 500 468 500 568 c 0
 500 784 622 1204 790 1338 c 0
 800 1346 858 1388 904 1388 c 0
 964 1388 980 1342 980 1230 c 0
 980 1046 852 670 664 374 c 1
 678 366 692 360 708 360 c 0
 768 360 816 390 836 404 c 0
 842 408 844 410 846 410 c 0
 848 410 850 408 850 406 c 0
 850 404 850 402 844 398 c 0
 788 360 738 336 670 336 c 0
 660 336 650 338 640 340 c 1
 502 130 356 -8 216 -8 c 0
 168 -8 120 24 120 100 c 0
 120 140 138 198 168 248 c 1
 200 304 244 358 244 394 c 0
 244 418 218 428 208 428 c 0
 180 428 158 414 134 398 c 0
 128 394 126 392 124 392 c 0
 122 392 120 394 120 396 c 0
 120 398 120 400 126 404 c 0
 134 410 182 448 240 448 c 0
636 394 m 1
 810 680 924 1030 924 1200 c 0
 924 1312 910 1352 856 1352 c 0
 838 1352 822 1340 808 1326 c 0
 696 1212 556 856 556 596 c 0
 556 514 590 436 636 394 c 1
EndSplineSet
EndChar

StartChar: kappa
Encoding: 954 954 388
Width: 574
VWidth: 2000
Flags: W
HStem: -12 32<382.255 484.07> 232 22<246.409 319> 426 22<185.07 256> 436 20G<550 564>
VStem: 234 64<333.787 425.022>
LayerCount: 2
Fore
SplineSet
236 448 m 0xe8
 276 448 298 426 298 396 c 0
 298 368 274 324 238 266 c 1
 518 448 l 2xe8
 528 454 544 456 556 456 c 0xd8
 572 456 574 454 574 448 c 0
 574 444 572 438 562 432 c 0
 458 370 336 300 246 248 c 1
 262 252 282 254 302 254 c 0
 336 254 374 216 386 192 c 0
 422 122 392 20 474 20 c 0
 531 20 714 206 742 248 c 0
 746 254 748 254 750 254 c 0
 752 254 754 252 754 250 c 0
 754 248 754 248 752 244 c 0
 686 158 513 -12 434 -12 c 0
 332 -12 372 100 326 176 c 1
 294 226 264 232 250 232 c 0
 238 232 226 228 216 226 c 1
 176 156 132 68 104 4 c 0
 98 -8 76 -6 60 -10 c 0
 50 -12 38 -16 32 -16 c 0
 28 -16 24 -16 24 -12 c 0
 24 4 56 48 88 104 c 0
 120 160 130 176 168 248 c 0
 204 316 234 372 234 396 c 0
 234 414 224 426 206 426 c 0
 178 426 158 414 134 398 c 0
 128 394 126 392 124 392 c 0
 122 392 120 394 120 396 c 0
 120 398 120 400 126 404 c 0
 158 426 196 448 236 448 c 0xe8
EndSplineSet
EndChar

StartChar: lambda
Encoding: 955 955 389
Width: 776
VWidth: 2000
Flags: W
HStem: -38 21G<3 10> -4 32<570.504 682.433> 234 20G<951 953> 1224 44<312.423 416.153>
VStem: 512 68<595.141 1030.12> 512 54<204.174 424 428.018 624.818>
LayerCount: 2
Fore
SplineSet
630 -4 m 0xf4
 512 -4 512 272 512 424 c 1
 12 -34 14 -38 6 -38 c 0
 0 -38 -2 -32 -2 -22 c 0
 -2 0 12 40 28 52 c 0
 202 184 382 332 512 444 c 1xf4
 512 798 l 2
 512 1120 448 1224 350 1224 c 0
 276 1224 232 1176 204 1098 c 1
 198 1086 160 1066 144 1066 c 0
 142 1066 138 1066 138 1068 c 0
 138 1102 264 1268 400 1268 c 0
 572 1268 580 952 580 826 c 0xf8
 580 756 566 576 566 406 c 0
 566 212 590 28 662 28 c 0
 712 28 810 112 846 142 c 1
 898 188 936 236 944 248 c 0
 948 254 950 254 952 254 c 0
 954 254 956 252 956 250 c 0
 956 248 956 248 954 244 c 0
 910 186 870 144 826 108 c 0
 782 72 680 -4 630 -4 c 0xf4
EndSplineSet
EndChar

StartChar: mu
Encoding: 956 956 390
Width: 618
VWidth: 2000
Flags: W
HStem: -16 40<112.581 213.418 407.094 508.365> 234 20G<788 795> 426 20G<295 301 597 606>
VStem: 52 64<48 120.1> 360 68<22.2468 113.918>
LayerCount: 2
Fore
SplineSet
188 24 m 0
 266 24 360 108 392 142 c 1
 422 208 522 386 540 408 c 1
 568 438 590 446 604 446 c 0
 608 446 612 442 612 438 c 0
 612 420 546 292 462 184 c 1
 440 136 428 96 428 58 c 0
 428 38 440 20 460 20 c 0
 622 20 782 254 794 254 c 0
 796 254 798 252 798 250 c 0
 798 242 750 190 696 132 c 1
 588 20 468 -20 412 -20 c 0
 384 -20 360 -10 360 26 c 0
 360 46 366 72 376 98 c 1
 304 44 204 -16 128 -16 c 0
 92 -16 72 -2 62 14 c 1
 -404 -670 -784 -880 -810 -880 c 0
 -812 -880 -812 -880 -812 -878 c 0
 -812 -860 -476 -736 52 48 c 1
 52 114 196 368 236 408 c 0
 248 420 264 430 268 432 c 0
 270 432 294 446 296 446 c 0
 306 446 308 444 308 432 c 0
 308 420 238 282 116 94 c 1
 116 80 118 24 188 24 c 0
EndSplineSet
EndChar

StartChar: nu
Encoding: 957 957 391
Width: 528
VWidth: 2000
Flags: W
HStem: -20 21G<104 113> 426 26<186.387 262> 582 20G<548 569>
VStem: 222 70<323.198 425.57> 564 64<430.125 562.711>
LayerCount: 2
Fore
SplineSet
292 396 m 0
 292 356 264 294 238 236 c 0
 214 182 188 118 166 60 c 1
 264 142 360 208 458 296 c 1
 508 344 564 414 564 486 c 0
 564 576 516 574 516 586 c 0
 516 590 538 602 558 602 c 0
 580 602 628 572 628 516 c 0
 628 424 556 350 478 282 c 0
 390 206 284 136 202 68 c 0
 148 22 118 -20 108 -20 c 0
 100 -20 92 -2 92 10 c 0
 92 66 140 174 168 248 c 1
 186 292 222 362 222 400 c 0
 222 420 210 426 200 426 c 0
 184 426 158 414 134 398 c 0
 128 394 126 392 124 392 c 0
 122 392 120 394 120 396 c 0
 120 398 120 400 126 404 c 0
 128 406 186 452 244 452 c 0
 280 452 292 422 292 396 c 0
EndSplineSet
EndChar

StartChar: xi
Encoding: 958 958 392
Width: 652
VWidth: 2000
Flags: W
HStem: -504 36<160.349 257.281> 234 20G<825 827> 718 48<746.655 804.021> 1362 70<1138.63 1299.13>
VStem: -10 68<-372.351 -303.659> 144 60<96.0919 283.956> 412 78<-312.625 -218.886> 586 62<843.538 1021.71>
LayerCount: 2
Fore
SplineSet
144 164 m 0
 144 364 318 562 520 678 c 0
 568 706 616 728 662 742 c 1
 612 778 586 848 586 916 c 0
 586 1148 886 1324 1022 1374 c 1
 926 1392 840 1434 840 1440 c 0
 840 1444 880 1478 886 1478 c 0
 896 1478 972 1416 1114 1402 c 1
 1166 1422 1222 1432 1272 1432 c 0
 1310 1432 1334 1424 1334 1416 c 0
 1332 1394 1278 1362 1174 1362 c 0
 1132 1362 1104 1364 1074 1368 c 1
 740 1254 648 1072 648 948 c 0
 648 846 698 784 746 762 c 1
 760 764 772 766 784 766 c 0
 802 766 820 762 820 756 c 0
 820 748 812 746 796 734 c 0
 784 726 760 718 736 718 c 0
 718 718 706 720 692 726 c 1
 638 718 582 694 528 664 c 0
 380 580 204 404 204 198 c 0
 204 60 302 -8 376 -80 c 1
 502 -12 624 58 720 142 c 0
 772 188 810 236 818 248 c 0
 822 254 824 254 826 254 c 0
 828 254 830 252 830 250 c 0
 830 248 830 248 828 244 c 0
 796 202 764 166 730 136 c 1
 668 78 560 6 386 -90 c 1
 442 -144 490 -188 490 -238 c 2
 490 -242 l 1
 484 -368 308 -500 172 -504 c 1
 58 -504 -10 -388 -10 -358 c 0
 -10 -278 128 -208 308 -116 c 1
 240 -40 144 32 144 164 c 0
412 -282 m 0
 412 -232 368 -184 316 -126 c 1
 158 -208 58 -258 58 -322 c 0
 58 -358 134 -468 222 -468 c 0
 314 -468 410 -384 412 -282 c 0
EndSplineSet
EndChar

StartChar: pi
Encoding: 960 960 394
Width: 686
VWidth: 2000
Flags: W
HStem: -40 30<443.377 531.546> 218 20G<853 855> 380 42<334.927 486> 420 28<172.5 238> 440 20G<690 693>
VStem: 18 56<-33.7984 8.90887> 366 54<6.4787 173.255>
LayerCount: 2
Fore
SplineSet
60 -42 m 0xee
 45 -42 18 -22 18 2 c 0
 18 22 50 46 150 232 c 0
 172 272 224 382 238 420 c 1
 164 420 152 410 134 398 c 0
 128 394 126 392 124 392 c 0
 122 392 120 394 120 396 c 0
 120 398 120 400 126 404 c 0
 156 426 182 448 240 448 c 0xd6
 324 448 420 422 516 422 c 0
 568 422 620 430 668 452 c 0
 680 458 688 460 692 460 c 0
 694 460 694 458 694 458 c 1
 694 446 588 390 540 382 c 1
 496 292 420 170 420 84 c 0
 420 16 448 -10 476 -10 c 0
 590 -10 722 104 748 126 c 0
 800 172 838 220 846 232 c 0
 850 238 852 238 854 238 c 0
 856 238 858 236 858 234 c 0
 858 232 858 232 856 228 c 0
 782 130 716 74 624 20 c 0
 572 -10 516 -40 458 -40 c 0
 436 -40 366 -30 366 74 c 0
 366 164 446 298 486 380 c 1
 424 382 350 398 298 408 c 1
 280 364 290 374 114 42 c 1
 102 22 78 -24 74 -34 c 0
 72 -40 66 -42 60 -42 c 0xee
EndSplineSet
EndChar

StartChar: rho
Encoding: 961 961 395
Width: 560
VWidth: 2000
Flags: W
HStem: -28 40<177.945 297.239> 426 44<394.045 512>
VStem: 496 68<231.637 395.843>
AnchorPoint: "above" 518 548 basechar 0
LayerCount: 2
Fore
SplineSet
116 198 m 0
 242 392 406 470 478 470 c 0
 546 470 564 392 564 346 c 0
 564 126 340 -28 208 -28 c 0
 112 -28 72 6 72 20 c 0
 72 24 84 24 100 34 c 1
 116 42 130 60 134 60 c 0
 142 60 180 12 256 12 c 0
 384 12 496 178 496 310 c 0
 496 376 472 426 416 426 c 0
 330 426 202 280 168 228 c 0
 -80 -148 -374 -770 -508 -1304 c 0
 -510 -1312 -544 -1310 -562 -1320 c 0
 -576 -1328 -598 -1340 -602 -1340 c 1
 -602 -1340 -604 -1340 -604 -1338 c 0
 -604 -1336 -262 -380 116 198 c 0
EndSplineSet
EndChar

StartChar: sigma1
Encoding: 962 962 396
Width: 516
VWidth: 2000
Flags: W
HStem: -142 40<73.2389 180.703> -76 20G<90 94> 420 40<365.577 491>
VStem: 96 72<128.92 235.313> 246 64<-48.0241 10.9698> 478 66<364 406>
LayerCount: 2
Fore
SplineSet
404 420 m 0
 268 420 168 282 168 182 c 0
 168 88 310 86 310 0 c 0
 310 -68 170 -142 102 -142 c 0
 56 -142 24 -106 24 -100 c 0
 24 -96 42 -86 60 -76 c 0
 74 -68 88 -56 92 -56 c 1
 92 -56 94 -56 94 -58 c 0
 94 -60 90 -64 90 -66 c 0
 90 -76 128 -102 162 -102 c 0
 176 -102 246 -96 246 -38 c 0
 246 44 96 58 96 154 c 0
 96 314 328 460 464 460 c 0
 518 460 544 416 544 406 c 0
 544 394 526 390 508 380 c 0
 492 370 486 360 482 360 c 0
 478 360 478 362 478 364 c 0
 478 386 442 420 404 420 c 0
EndSplineSet
EndChar

StartChar: sigma
Encoding: 963 963 397
Width: 606
VWidth: 2000
Flags: W
HStem: -18 26<163.558 243.194> 386 40<499.725 695.28> 420 28<334.608 428.504>
VStem: 62 74<25.468 186.918> 468 42<232.213 386.311>
AnchorPoint: "below" 772 -200 basechar 0
AnchorPoint: "above" 470 548 basechar 0
LayerCount: 2
Fore
SplineSet
498 394 m 1xd8
 504 378 510 362 510 312 c 0
 510 202 346 -18 170 -18 c 0
 102 -18 62 14 62 84 c 0
 62 228 204 448 426 448 c 0xb8
 480 448 540 426 638 426 c 0
 680 426 734 432 778 464 c 1
 788 470 794 476 798 476 c 0
 802 476 802 474 802 472 c 0
 802 470 724 386 578 386 c 0
 562 386 530 388 498 394 c 1xd8
390 420 m 0
 266 420 136 224 136 82 c 0
 136 52 154 8 200 8 c 0
 332 8 468 182 468 302 c 0
 468 402 414 420 390 420 c 0
EndSplineSet
EndChar

StartChar: tau
Encoding: 964 964 398
Width: 466
VWidth: 2000
Flags: W
HStem: -6 34<173 331.245> 232 20G<641 643> 418 42<320.995 516.984> 430 34<197.1 351.669>
VStem: 104 74<49.5003 161.269>
LayerCount: 2
Fore
SplineSet
634 246 m 0xe8
 638 252 640 252 642 252 c 0
 644 252 646 250 646 248 c 0
 646 246 646 246 644 242 c 0
 550 118 484 82 450 62 c 0
 350 4 278 -6 190 -6 c 0
 156 -6 104 26 104 76 c 0
 104 110 112 144 168 248 c 0
 196 300 246 390 268 428 c 1
 248 430 232 430 224 430 c 0
 192 430 166 418 132 394 c 0
 128 392 126 392 124 392 c 0
 120 392 120 394 120 396 c 0
 120 400 144 416 156 424 c 0
 180 440 222 464 258 464 c 0xd8
 312 464 402 460 438 460 c 0
 482 460 528 464 552 482 c 0
 558 486 562 490 564 490 c 0
 566 490 566 490 566 488 c 0
 566 482 550 460 526 444 c 0
 498 424 454 418 436 418 c 0
 410 418 372 420 334 422 c 1
 240 262 178 154 178 104 c 0
 178 66 206 28 248 28 c 0
 342 28 408 56 442 76 c 0
 550 138 614 216 634 246 c 0xe8
EndSplineSet
EndChar

StartChar: upsilon
Encoding: 965 965 399
Width: 646
VWidth: 2000
Flags: W
HStem: -20 34<237.412 347.748> 340 22<617.398 694.312> 428 20<188.306 256>
VStem: 124 72<46.9856 202.354> 244 66<336.127 425.572> 520 70<376.939 454.135> 540 58<223.103 346>
AnchorPoint: "above" 450 548 basechar 0
LayerCount: 2
Fore
SplineSet
782 398 m 0xfc
 756 380 690 340 648 340 c 0
 628 340 612 342 598 346 c 1
 598 106 398 -20 254 -20 c 0
 144 -20 124 72 124 112 c 0
 124 152 140 198 168 248 c 0
 186 280 244 354 244 394 c 0
 244 418 226 428 208 428 c 0
 184 428 158 414 134 398 c 0
 128 394 126 392 124 392 c 0
 122 392 120 394 120 396 c 0
 120 398 120 400 126 404 c 0
 134 410 184 448 240 448 c 0
 272 448 310 436 310 398 c 0
 310 340 258 274 226 220 c 0
 204 182 196 146 196 116 c 0
 196 32 256 14 302 14 c 0
 452 14 540 186 540 344 c 0xfa
 540 398 520 396 520 432 c 0
 520 452 570 466 586 466 c 0
 592 466 592 462 592 460 c 0
 592 444 590 438 590 418 c 0
 590 396 612 362 654 362 c 0
 692 362 740 380 774 404 c 0
 780 408 782 410 784 410 c 0
 786 410 788 408 788 406 c 0
 788 404 788 402 782 398 c 0xfc
EndSplineSet
EndChar

StartChar: phi
Encoding: 966 966 400
Width: 696
VWidth: 2000
Flags: W
HStem: -1042 36<141.382 275.76> -20 40<232.205 252> 408 40<569.999 658> 424 24<183.046 256>
VStem: -52 56<-862.65 -651.67> 124 74<49.8962 198.303> 234 68<334.675 423.285> 618 66<279.43 402.553>
LayerCount: 2
Fore
SplineSet
312 16 m 1xef
 496 16 618 238 618 348 c 0
 618 378 604 408 580 408 c 1
 540 406 474 324 312 16 c 1xef
302 390 m 4
 302 322 198 206 198 116 c 4
 198 62 228 30 272 20 c 5
 412 290 516 444 640 448 c 5xef
 676 448 684 410 684 384 c 4
 684 206 490 0 294 -18 c 5
 98 -408 4 -608 4 -756 c 4
 4 -890 92 -1006 224 -1006 c 4
 352 -1006 448 -900 470 -872 c 4
 480 -860 478 -858 484 -858 c 4
 486 -858 488 -860 488 -862 c 4
 488 -864 488 -866 486 -870 c 4
 456 -912 338 -1042 176 -1042 c 4
 34 -1042 -52 -916 -52 -784 c 4
 -52 -632 60 -396 252 -20 c 5
 180 -14 124 44 124 112 c 4
 124 152 142 198 168 248 c 4
 188 286 234 368 234 398 c 4
 234 416 224 424 206 424 c 4
 178 424 158 414 134 398 c 4
 128 394 126 392 124 392 c 4
 122 392 120 394 120 396 c 4
 120 398 120 400 126 404 c 4
 158 426 196 448 236 448 c 4xdf
 276 448 302 434 302 390 c 4
EndSplineSet
EndChar

StartChar: chi
Encoding: 967 967 401
Width: 526
VWidth: 2000
Flags: W
HStem: -502 22<557.482 676.222> 420 20G<187 194> 658 20G<721 723>
VStem: 120 76<346.86 414.022>
LayerCount: 2
Fore
SplineSet
272 132 m 1
 368 232 434 304 602 500 c 1
 688 602 714 666 716 672 c 0
 718 678 720 678 722 678 c 0
 724 678 728 676 728 674 c 2
 728 668 l 1
 710 626 714 620 596 472 c 0
 472 316 378 216 278 108 c 1
 304 -8 336 -130 386 -256 c 0
 448 -412 512 -480 624 -480 c 0
 688 -480 762 -432 818 -378 c 1
 866 -330 902 -280 910 -268 c 0
 914 -262 918 -260 920 -260 c 0
 924 -260 928 -260 928 -264 c 0
 928 -266 928 -266 926 -270 c 0
 858 -366 814 -420 720 -472 c 0
 668 -500 634 -502 596 -502 c 0
 458 -502 352 -414 306 -266 c 0
 280 -182 244 -56 218 44 c 1
 97 -91 -23 -227 -144 -362 c 0
 -152 -372 -190 -388 -210 -388 c 0
 -216 -388 -220 -386 -220 -382 c 0
 -220 -378 -216 -372 -208 -362 c 1
 -68 -218 73 -74 212 72 c 1
 136 376 130 392 124 392 c 4
 122 392 120 394 120 396 c 4
 120 398 120 400 126 404 c 4
 146 418 182 440 192 440 c 7
 196 440 196 438 196 434 c 4
 196 414 208 392 272 132 c 1
EndSplineSet
EndChar

StartChar: psi
Encoding: 968 968 402
Width: 742
VWidth: 2000
Flags: W
HStem: -912 54<-457.456 -339.001> 424 40<772.002 878.042> 424 24<183.046 256>
VStem: -564 76<-828.716 -747.602> 124 74<50.4861 198.303> 234 68<334.675 423.285>
LayerCount: 2
Fore
SplineSet
302 390 m 0xbc
 302 322 198 206 198 116 c 0
 198 54 238 20 294 16 c 1
 358 142 420 272 476 396 c 0
 478 402 500 414 516 420 c 0
 522 422 528 423 534 423 c 0
 544 423 552 420 552 417 c 0
 552 325 392 120 338 16 c 1
 446 22 514 64 594 216 c 0
 638 300 702 464 854 464 c 0
 886 464 916 434 916 430 c 0
 916 420 870 390 856 390 c 0
 854 390 852 392 852 392 c 1
 834 410 816 424 794 424 c 0xdc
 672 424 660 22 320 -16 c 1
 182 -270 82 -530 -84 -704 c 0
 -234 -860 -356 -912 -440 -912 c 0
 -498 -912 -564 -862 -564 -812 c 0
 -564 -756 -546 -746 -510 -726 c 0
 -492 -716 -474 -700 -466 -700 c 0
 -464 -700 -464 -702 -464 -704 c 0
 -464 -708 -488 -750 -488 -784 c 0
 -488 -840 -420 -858 -374 -858 c 0
 -288 -858 -202 -796 -106 -692 c 0
 40 -532 140 -284 276 -20 c 1
 164 -20 124 60 124 112 c 0
 124 152 142 198 168 248 c 0
 188 286 234 368 234 398 c 0
 234 416 224 424 206 424 c 0
 178 424 158 414 134 398 c 0
 128 394 126 392 124 392 c 0
 122 392 120 394 120 396 c 0
 120 398 120 400 126 404 c 0
 158 426 196 448 236 448 c 0
 276 448 302 434 302 390 c 0xbc
EndSplineSet
EndChar

StartChar: omega
Encoding: 969 969 403
Width: 738
VWidth: 2000
Flags: W
HStem: -26 34<429 518.536> -12 28<163 247.624> 324 36<700.004 774.647> 424 24<185.635 278>
VStem: 82 70<46.5312 203.489> 244 78<388.111 436> 334 66<63.8747 163.292> 644 58<149.5 324.267>
AnchorPoint: "below" 308 -100 basechar 0
AnchorPoint: "above" 516 548 basechar 0
LayerCount: 2
Fore
SplineSet
82 100 m 0x7f
 82 278 244 360 244 408 c 0
 244 418 238 424 230 424 c 0
 188 424 166 420 134 398 c 0
 128 394 126 392 124 392 c 0
 122 392 120 394 120 396 c 0
 120 398 120 400 126 404 c 0
 168 432 202 448 252 448 c 0
 304 448 322 444 322 428 c 0
 322 374 152 292 152 124 c 0
 152 60 184 16 224 16 c 0x7f
 252 16 292 30 334 90 c 1
 334 224 394 250 394 250 c 1
 400 254 426 264 430 264 c 0
 440 264 444 256 444 246 c 0
 444 220 430 174 400 128 c 1
 402 74 438 8 494 8 c 0
 602 8 644 162 644 234 c 0
 644 322 604 362 604 394 c 0
 604 404 650 432 666 432 c 0
 682 432 668 360 758 360 c 0
 800 360 854 398 864 404 c 0
 870 408 872 410 874 410 c 0
 876 410 878 408 878 406 c 0
 878 404 878 402 872 398 c 0
 852 384 774 324 698 324 c 1
 700 308 702 288 702 270 c 0
 702 40 512 -26 446 -26 c 0xbf
 412 -26 374 -14 352 26 c 0
 346 36 344 44 340 56 c 1
 302 24 238 -12 182 -12 c 0
 144 -12 82 16 82 100 c 0x7f
EndSplineSet
EndChar

StartChar: uni03D0
Encoding: 976 976 409
Width: 588
VWidth: 2000
Flags: W
HStem: -22 52<231 359.49> 392 34<133.861 181.333> 456 40<482.583 589.8> 1252 42<899.569 980>
VStem: 138 88<80.4042 231.618> 606 62<304.296 441.937> 938 74<1120 1251.37>
LayerCount: 2
Fore
SplineSet
162 426 m 3
 170 426 196 402 250 398 c 1
 434 710 458 750 480 790 c 0
 640 1074 746 1220 928 1286 c 0
 942 1292 962 1294 966 1294 c 0
 994 1294 1012 1276 1012 1232 c 0
 1012 1040 784 714 622 576 c 0
 594 552 550 518 504 488 c 1
 524 492 536 496 570 496 c 0
 616 496 668 480 668 414 c 0
 668 206 428 -22 270 -22 c 0
 192 -22 140 44 138 130 c 0
 138 166 146 206 166 244 c 1
 180 274 204 318 234 370 c 1
 168 370 136 392 124 392 c 0
 122 392 120 394 120 396 c 0
 120 398 120 400 126 404 c 0
 146 418 156 426 162 426 c 3
296 356 m 1
 262 292 226 236 226 168 c 0
 226 86 270 30 330 30 c 0
 466 30 606 236 606 358 c 0
 606 436 586 456 538 456 c 0
 476 456 346 410 296 356 c 1
596 586 m 1
 716 702 938 1046 938 1220 c 0
 938 1240 932 1252 918 1252 c 0
 834 1252 632 948 506 724 c 2
 330 412 l 1
 400 424 526 520 596 586 c 1
EndSplineSet
EndChar

StartChar: Upsilon1
Encoding: 978 978 411
Width: 840
VWidth: 2000
Flags: W
HStem: -32 21G<250 256> 720 21G<1107 1119> 838 48<1092.61 1210> 848 38<353.989 471.652>
VStem: 558 72<539.788 764.966> 1172 80<767 843>
AnchorPoint: "above" 850 1000 basechar 0
LayerCount: 2
Fore
SplineSet
500 270 m 0xec
 438 156 382 44 360 10 c 0
 346 -12 328 0 280 -18 c 0
 260 -26 260 -32 252 -32 c 0
 248 -32 242 -30 242 -26 c 0
 242 -20 270 8 290 40 c 0
 498 376 558 540 558 666 c 0
 558 814 454 848 396 848 c 0
 370 848 314 842 254 782 c 0
 242 770 236 762 232 762 c 0
 228 762 226 764 226 768 c 0
 226 772 234 782 248 796 c 0
 314 864 396 886 434 886 c 0xdc
 532 886 630 826 630 670 c 0
 630 616 604 502 562 400 c 1
 620 470 l 1
 808 692 914 770 1008 824 c 0
 1052 850 1130 886 1192 886 c 0
 1228 886 1252 854 1252 832 c 0
 1252 778 1130 720 1108 720 c 0
 1106 720 1104 722 1104 724 c 0
 1104 742 1172 746 1172 788 c 0
 1172 806 1156 838 1120 838 c 0
 1074 838 1044 824 1016 810 c 1
 932 762 804 640 654 468 c 1
 654 468 524 314 500 270 c 0xec
EndSplineSet
EndChar

StartChar: endash
Encoding: 8211 8211 416
Width: 966
VWidth: 2000
Flags: W
HStem: 300 50<744.585 964.231> 304 50<186.423 726.807>
LayerCount: 2
Fore
SplineSet
680 348 m 0x40
 700 348 958 350 972 350 c 0
 974 350 976 350 976 348 c 0
 976 344 972 340 966 326 c 0
 960 312 960 300 954 300 c 0x80
 928 300 614 308 518 308 c 0
 460 308 208 306 172 304 c 0
 170 304 168 304 168 306 c 0
 168 310 178 318 184 328 c 0
 192 342 194 354 200 354 c 0
 248 354 566 348 680 348 c 0x40
EndSplineSet
EndChar

StartChar: emdash
Encoding: 8212 8212 417
Width: 1366
VWidth: 2000
Flags: W
HStem: 300 50<1141.44 1364.23> 304 50<186.423 928.377>
LayerCount: 2
Fore
SplineSet
880 348 m 0x40
 900 348 1358 350 1372 350 c 0
 1374 350 1376 350 1376 348 c 0
 1376 344 1372 340 1366 326 c 0
 1360 312 1360 300 1354 300 c 0x80
 1328 300 814 308 718 308 c 0
 660 308 208 306 172 304 c 0
 170 304 168 304 168 306 c 0
 168 310 178 318 184 328 c 0
 192 342 194 354 200 354 c 0
 248 354 766 348 880 348 c 0x40
EndSplineSet
EndChar

StartChar: quoteleft
Encoding: 8216 8216 418
Width: 340
VWidth: 2000
Flags: W
VStem: 300 62<523.969 654.871>
LayerCount: 2
Fore
SplineSet
362 592 m 0
 362 520 410 504 410 500 c 0
 410 498 394 490 378 480 c 0
 362 470 352 462 344 462 c 0
 336 462 300 504 300 554 c 0
 300 638 348 738 450 826 c 0
 492 862 534 886 548 886 c 0
 550 886 552 886 552 884 c 0
 552 878 526 878 464 816 c 0
 406 758 362 680 362 592 c 0
EndSplineSet
EndChar

StartChar: bullet
Encoding: 8226 8226 424
Width: 508
VWidth: 2000
Flags: W
HStem: 184 316<267.677 402.25>
VStem: 176 314<269.312 404.287>
LayerCount: 2
Fore
SplineSet
346 500 m 0
 426 500 490 434 490 356 c 0
 490 224 382 184 318 184 c 0
 238 184 176 244 176 320 c 0
 176 416 250 500 346 500 c 0
EndSplineSet
EndChar

StartChar: exclamdbl
Encoding: 8252 8252 426
Width: 724
VWidth: 2000
Flags: W
HStem: -40 128<396.466 441.634> -8 128<190.466 235.634> 784 30<636.577 686.763> 820 36<934.859 990.188>
VStem: 154 122<32.7403 82.8618> 244 38<198.203 262.673> 360 122<0.740295 50.8618> 460 38<156.203 219.78>
LayerCount: 2
Fore
SplineSet
498 170 m 0x31
 496 164 488 156 476 156 c 0
 468 156 460 160 460 170 c 0
 460 180 526 350 594 468 c 0
 674 608 804 768 878 842 c 0
 892 856 926 856 948 856 c 0
 960 856 996 844 996 826 c 0
 996 820 994 818 992 818 c 0
 990 818 988 820 980 820 c 0
 896 820 724 588 642 454 c 0
 596 380 520 256 498 170 c 0x31
EndSplineSet
Refer: 12 46 N 1 0 0 1 248 -32 2
Refer: 451 33 N 1 0 0 1 0 0 2
EndChar

StartChar: fraction
Encoding: 8260 8260 427
Width: 628
VWidth: 2000
Flags: W
HStem: 880 14<892 893.222>
LayerCount: 2
Fore
SplineSet
-46 -110 m 0
 -50 -110 -52 -108 -52 -106 c 0
 -52 -100 -48 -96 -42 -92 c 1
 848 876 l 2
 858 888 870 894 880 894 c 0
 886 894 894 890 894 884 c 1
 894 884 894 880 892 880 c 1
 2 -92 l 2
 -6 -100 -32 -110 -46 -110 c 0
EndSplineSet
EndChar

StartChar: Euro
Encoding: 8364 8364 428
Width: 946
VWidth: 2000
Flags: W
HStem: -24 32<436.114 614.593> 218 20G<870 874> 344 36<129.985 234 336 740.916> 466 36<196.425 292 388 802.112> 734 21G<990 994> 842 44<761.727 921.048>
VStem: 212 100<122.552 343.938>
LayerCount: 2
Fore
SplineSet
1000 744 m 0
 998 738 996 734 992 734 c 0
 988 734 986 740 986 744 c 0
 976 792 912 842 842 842 c 0
 744 842 684 808 650 788 c 1
 550 722 452 622 388 502 c 1
 428 502 470 500 512 500 c 0
 626 500 768 502 800 502 c 0
 804 502 806 498 806 496 c 0
 806 474 776 466 756 466 c 0
 646 466 512 472 372 472 c 1
 358 440 346 408 336 376 c 1
 524 376 694 378 742 378 c 0
 746 378 750 376 750 372 c 0
 750 366 742 364 734 356 c 0
 726 348 716 342 706 342 c 0
 676 342 568 348 468 348 c 0
 428 348 378 346 328 346 c 1
 318 304 312 262 312 220 c 0
 312 98 398 8 514 8 c 0
 686 8 780 122 862 230 c 0
 866 236 868 238 872 238 c 0
 876 238 878 224 878 208 c 0
 878 186 872 150 868 144 c 0
 790 44 660 -24 480 -24 c 0
 330 -24 212 64 212 212 c 0
 212 256 220 300 234 346 c 1
 188 346 150 344 130 344 c 0
 124 344 120 346 120 350 c 0
 120 358 152 380 164 380 c 0
 192 380 184 376 246 376 c 1
 258 408 274 438 292 470 c 1
 256 468 220 468 190 468 c 0
 184 468 182 470 182 472 c 0
 182 476 188 476 194 482 c 0
 208 496 204 506 228 506 c 0
 242 506 272 506 312 504 c 1
 392 628 510 740 636 810 c 1
 726 862 816 886 906 886 c 0
 1016 886 1050 820 1050 808 c 0
 1050 790 1010 774 1000 744 c 0
EndSplineSet
EndChar

StartChar: trademark
Encoding: 8482 8482 429
Width: 1052
VWidth: 2000
Flags: W
HStem: 370 32<923.49 989.396> 460 15G<304 322 559 563> 688 21G<819 830> 770 38<290.399 380.312 751.408 803.591> 800 22<927.632 975.272> 812 18<509.494 619.868> 880 16<372.208 427.53>
VStem: 444 52<820.45 874.547> 644 52<701.859 801.889> 804 50<754 768.29> 842 62<415.832 547.907> 978 60<725.667 799.805>
LayerCount: 2
Fore
SplineSet
364 640 m 1xebd0
 388 688 408 730 432 792 c 1
 360 792 296 772 292 772 c 0
 288 772 286 780 286 784 c 0
 286 798 364 806 438 812 c 1
 440 820 444 834 444 844 c 0
 444 862 430 880 396 880 c 0
 372 880 350 852 336 852 c 0
 334 852 328 856 328 860 c 0
 328 878 388 896 408 896 c 0
 448 896 496 880 496 820 c 1
 538 824 574 830 604 830 c 0
 672 830 696 790 696 750 c 0
 696 746 696 738 692 728 c 1
 716 760 758 808 800 808 c 0
 824 808 854 802 854 754 c 1xf7d0
 882 786 926 822 972 822 c 0
 1002 822 1038 812 1038 774 c 0
 1038 726 904 550 904 478 c 0
 904 426 928 402 964 402 c 0
 1010 402 1054 462 1060 462 c 0
 1064 462 1066 460 1066 458 c 0
 1066 456 1066 456 1064 452 c 0
 1062 448 1006 370 932 370 c 0
 886 370 842 388 842 468 c 0
 842 572 978 730 978 780 c 0
 978 792 968 800 952 800 c 0xebb0
 920 800 872 756 850 718 c 0
 846 712 834 688 826 688 c 0
 812 688 778 694 778 698 c 0
 778 702 804 712 804 748 c 0
 804 758 798 770 776 770 c 0
 746 770 708 712 692 684 c 1
 672 652 566 454 560 454 c 0
 558 454 510 460 510 478 c 0
 510 488 568 570 590 610 c 0
 604 636 644 708 644 760 c 0
 644 786 622 812 592 812 c 0xf7d0
 556 812 492 800 492 800 c 1
 478 758 450 694 424 642 c 0
 400 594 336 460 308 460 c 0
 300 460 266 460 266 470 c 0
 266 476 328 572 364 640 c 1xebd0
EndSplineSet
EndChar

StartChar: estimated
Encoding: 8494 8494 431
Width: 886
VWidth: 2000
Flags: W
HStem: -12 46<365.625 541.806> 234 20G<849 851> 838 46<678.861 777>
VStem: 170 78<137.136 299.443> 744 78<776.615 849>
LayerCount: 2
Fore
SplineSet
274 372 m 1
 514 544 744 692 744 786 c 0
 744 818 720 838 686 838 c 0
 558 838 338 574 274 372 c 1
392 -12 m 0
 278 -12 170 62 170 172 c 0
 170 210 176 250 186 290 c 1
 186 290 64 190 44 190 c 0
 42 190 40 192 40 194 c 0
 40 198 156 286 192 312 c 1
 290 646 630 884 762 884 c 0
 792 884 822 866 822 832 c 0
 822 724 530 542 268 350 c 1
 256 306 248 262 248 216 c 0
 248 106 354 34 466 34 c 0
 582 34 656 64 744 142 c 0
 796 188 834 236 842 248 c 0
 846 254 848 254 850 254 c 0
 852 254 854 252 854 250 c 0
 854 248 854 248 852 244 c 0
 818 200 788 164 754 134 c 0
 602 -4 462 -12 392 -12 c 0
EndSplineSet
EndChar

StartChar: minus
Encoding: 8722 8722 432
Width: 736
VWidth: 2000
Flags: W
HStem: 304 50<186.423 345.25 564.391 735.998> 308 38<362.859 547.394>
LayerCount: 2
Fore
SplineSet
562 346 m 0x40
 612 346 728 350 742 350 c 0
 744 350 746 350 746 348 c 0
 746 344 742 340 736 326 c 0
 730 312 730 300 724 300 c 0
 698 300 444 308 348 308 c 0x40
 290 308 188 304 172 304 c 0
 170 304 168 304 168 306 c 0
 168 310 178 318 184 328 c 0
 192 342 194 354 200 354 c 0x80
 248 354 448 346 562 346 c 0x40
EndSplineSet
EndChar

StartChar: uni2219
Encoding: 8729 8729 433
Width: 438
VWidth: 2000
Flags: W
HStem: 310 134<313.774 367.118>
VStem: 276 128<348.325 405.119>
LayerCount: 2
Fore
SplineSet
276 350 m 0
 276 392 320 444 366 444 c 0
 390 444 404 428 404 404 c 0
 404 362 362 310 316 310 c 0
 292 310 276 326 276 350 c 0
EndSplineSet
EndChar

StartChar: spade
Encoding: 9824 9824 435
Width: 798
VWidth: 2000
Flags: W
HStem: -16 30<266.388 325.407> 204 682<500 646>
VStem: 122 716<306.141 432.301>
LayerCount: 2
Fore
SplineSet
630 658 m 0
 708 548 838 494 838 380 c 0
 838 274 722 204 646 204 c 0
 582 204 546 254 496 272 c 1
 504 148 554 104 586 58 c 0
 624 4 668 16 668 6 c 0
 668 0 664 -16 658 -16 c 0
 648 -16 560 -10 508 -10 c 0
 434 -10 288 -16 276 -16 c 0
 270 -16 266 -4 266 2 c 0
 266 12 288 8 300 14 c 1
 316 20 434 78 448 276 c 1
 384 268 338 216 266 216 c 0
 194 216 122 272 122 358 c 0
 122 488 270 520 404 746 c 0
 458 836 446 856 472 872 c 0
 482 878 486 886 500 886 c 0
 510 886 532 798 630 658 c 0
EndSplineSet
EndChar

StartChar: uni2661
Encoding: 9825 9825 436
Width: 946
VWidth: 2000
Flags: W
HStem: -28 21G<589.5 594> 594 21G<589.5 594> 846 40<319.104 436.601 790.822 907.623>
VStem: 138 68<552.973 713.54> 1034 68<554.674 718.482>
LayerCount: 2
Fore
SplineSet
890 886 m 0
 1010 886 1102 772 1102 652 c 0
 1102 416 750 280 652 8 c 0
 650 2 638 -8 620 -18 c 0
 608 -25 597 -28 591 -28 c 0
 588 -28 587 -27 586 -26 c 0
 576 2 564 26 550 52 c 0
 422 274 138 412 138 616 c 0
 138 774 294 886 410 886 c 0
 524 886 586 816 628 710 c 1
 692 838 798 886 890 886 c 0
654 632 m 0
 652 626 638 614 620 604 c 0
 608 597 597 594 591 594 c 0
 588 594 587 595 586 596 c 0
 572 644 530 846 350 846 c 0
 234 846 206 710 206 652 c 0
 206 432 511 302 630 64 c 1
 762 286 1034 412 1034 616 c 0
 1034 762 920 846 830 846 c 0
 760 846 706 820 654 632 c 0
EndSplineSet
EndChar

StartChar: uni2662
Encoding: 9826 9826 437
Width: 726
VWidth: 2000
Flags: W
HStem: -28 80<397 458.717> 812 80<446 509>
VStem: 120 78<391.749 431.937> 716 70<410.506 454.351>
LayerCount: 2
Fore
SplineSet
424 842 m 0
 432 852 440 856 460 870 c 0
 478 882 486 892 504 892 c 0
 514 892 512 854 646 646 c 1
 756 470 786 458 786 446 c 0
 786 436 782 430 776 422 c 0
 612 230 560 140 478 14 c 0
 460 -14 422 -28 402 -28 c 0
 392 -28 388 -8 378 10 c 0
 162 374 120 374 120 396 c 0
 120 410 148 434 274 610 c 0
 336 696 384 784 424 842 c 0
312 276 m 1
 386 174 450 52 456 52 c 0
 464 52 560 200 704 386 c 1
 712 398 716 406 716 414 c 0
 716 432 610 576 582 618 c 1
 534 694 460 812 452 812 c 0
 440 812 334 654 302 604 c 0
 200 446 198 450 198 428 c 0
 198 410 242 368 312 276 c 1
EndSplineSet
EndChar

StartChar: club
Encoding: 9827 9827 438
Width: 1052
VWidth: 2000
Flags: W
HStem: -16 32<366.142 430.564 706.829 767.106> 210 380<267.037 442.542 704.485 882.398>
VStem: 392 376<637.289 786.801> 548 48<165.98 284>
LayerCount: 2
Fore
SplineSet
788 210 m 0xe0
 644 210 672 276 596 284 c 1xd0
 602 152 642 102 682 56 c 1
 702 30 724 20 740 16 c 0
 752 12 768 12 768 6 c 0xe0
 768 0 764 -16 758 -16 c 0
 748 -16 660 -10 608 -10 c 0
 534 -10 388 -16 376 -16 c 0
 370 -16 366 -4 366 2 c 0
 366 12 388 8 400 14 c 0
 406 16 436 32 450 48 c 1
 496 92 542 156 548 286 c 1xd0
 494 280 464 210 362 210 c 0
 244 210 178 286 178 402 c 0
 178 518 258 590 340 590 c 0
 368 590 400 590 448 566 c 1
 412 612 392 650 392 698 c 0
 392 800 470 886 580 886 c 0
 696 886 768 808 768 712 c 0
 768 672 736 608 698 566 c 1
 748 592 782 594 812 594 c 0
 940 594 968 478 968 404 c 0
 968 276 900 210 788 210 c 0xe0
EndSplineSet
EndChar

StartChar: uni2664
Encoding: 9828 9828 439
Width: 798
VWidth: 2000
Flags: W
HStem: -10 20<266.142 312.228 366.012 528.946> 204 40<644.014 723.717> 216 40<258.501 344.025>
VStem: 122 68<320.373 432.628> 770 68<304.296 420.832>
LayerCount: 2
Fore
SplineSet
458 166 m 1x98
 438 84 366 20 366 18 c 0
 366 12 382 10 404 10 c 0
 430 10 536 18 536 22 c 0
 536 34 476 100 458 166 c 1x98
630 658 m 0
 708 548 838 494 838 380 c 0
 838 274 722 204 646 204 c 0xd8
 582 204 546 254 496 272 c 1
 504 148 554 104 586 58 c 0
 624 4 668 16 668 6 c 0
 668 0 664 -16 658 -16 c 0
 648 -16 560 -10 508 -10 c 0
 434 -10 288 -16 276 -16 c 0
 270 -16 266 -4 266 2 c 0
 266 12 288 8 300 14 c 1
 316 20 434 78 448 276 c 1
 384 268 338 216 266 216 c 0xb8
 194 216 122 272 122 358 c 0
 122 488 270 520 404 746 c 0
 458 836 446 856 472 872 c 0
 482 878 486 886 500 886 c 0
 510 886 532 798 630 658 c 0
472 796 m 1
 344 554 190 522 190 394 c 0
 190 314 256 256 326 256 c 0xb8
 382 256 432 318 524 318 c 0
 602 318 634 244 706 244 c 0
 764 244 770 322 770 344 c 0
 770 458 644 522 574 624 c 0
 528 690 494 740 472 796 c 1
EndSplineSet
EndChar

StartChar: heart
Encoding: 9829 9829 440
Width: 946
VWidth: 2000
Flags: W
HStem: -28 914<410 591>
VStem: 138 964<557.714 706.034>
LayerCount: 2
Fore
SplineSet
890 886 m 0
 1010 886 1102 772 1102 652 c 0
 1102 416 750 280 652 8 c 0
 650 2 638 -8 620 -18 c 0
 608 -25 597 -28 591 -28 c 0
 588 -28 587 -27 586 -26 c 0
 576 2 564 26 550 52 c 0
 422 274 138 412 138 616 c 0
 138 774 294 886 410 886 c 0
 524 886 586 816 628 710 c 1
 692 838 798 886 890 886 c 0
EndSplineSet
EndChar

StartChar: diamond
Encoding: 9830 9830 441
Width: 726
VWidth: 2000
Flags: W
HStem: -28 21G<419 434>
LayerCount: 2
Fore
SplineSet
422 842 m 0
 430 852 434 864 454 878 c 0
 472 890 474 892 492 892 c 0
 502 892 512 854 646 646 c 1
 756 470 774 430 774 418 c 0
 774 408 770 402 764 394 c 0
 618 186 580 140 498 14 c 0
 480 -14 444 -28 424 -28 c 0
 414 -28 410 -8 400 10 c 0
 184 374 138 400 138 422 c 0
 138 436 148 448 274 624 c 0
 336 710 382 784 422 842 c 0
EndSplineSet
EndChar

StartChar: uni2667
Encoding: 9831 9831 442
Width: 848
VWidth: 2000
Flags: W
HStem: -10 20<304.142 350.245 404.012 566.946 665.864 705.106> 210 38<248.313 375.392 672.744 789.052> 284 38<453.003 486 534 579.586> 558 32<213.532 321.02 653.901 763.136> 854 32<441.866 553.08>
VStem: 116 48<336.695 497.843> 330 44<653.374 787.182> 486 48<165.168 284> 642 64<638.688 780.907> 854 52<314.526 474.415>
LayerCount: 2
Fore
SplineSet
164 424 m 0
 164 336 224 248 320 248 c 0
 370 248 442 322 540 322 c 0
 618 322 656 250 736 250 c 0
 826 250 854 358 854 390 c 0
 854 488 780 558 700 558 c 0
 650 558 574 518 568 518 c 0
 564 518 562 520 562 524 c 0
 562 530 642 610 642 702 c 0
 642 796 568 854 476 854 c 0
 442 854 374 834 374 738 c 0
 374 650 458 558 458 556 c 0
 458 552 412 518 392 518 c 0
 382 518 294 558 254 558 c 0
 178 558 164 466 164 424 c 0
496 166 m 1
 476 84 404 20 404 18 c 0
 404 12 420 10 442 10 c 0
 468 10 574 18 574 22 c 0
 574 34 514 100 496 166 c 1
726 210 m 0
 582 210 610 276 534 284 c 1
 540 152 580 102 620 56 c 1
 640 30 662 20 678 16 c 0
 690 12 706 12 706 6 c 0
 706 0 702 -16 696 -16 c 0
 686 -16 598 -10 546 -10 c 0
 472 -10 326 -16 314 -16 c 0
 308 -16 304 -4 304 2 c 0
 304 12 326 8 338 14 c 0
 344 16 374 32 388 48 c 1
 434 92 480 156 486 286 c 1
 432 280 402 210 300 210 c 0
 182 210 116 286 116 402 c 0
 116 518 196 590 278 590 c 0
 306 590 338 590 386 566 c 1
 350 612 330 650 330 698 c 0
 330 800 408 886 518 886 c 0
 634 886 706 808 706 712 c 0
 706 672 674 608 636 566 c 1
 686 592 720 594 750 594 c 0
 878 594 906 478 906 404 c 0
 906 276 838 210 726 210 c 0
EndSplineSet
EndChar

StartChar: uni2766
Encoding: 10086 10086 443
Width: 992
VWidth: 2000
Flags: W
HStem: -298 16<354.519 431.088> 582 22<1033.78 1150.22> 664 12<1120.72 1194.7> 706 28<249.569 345.556> 714 18<1171.15 1252.56> 732 20<1287.63 1330.69> 816 12<991.155 1045.65> 826 36<524.63 612> 850 20<750.09 826.5> 930 12<431.333 501.171> 1182 20<485.959 604.682>
VStem: 132 80<799.217 827.25> 244 62<-253.402 -198.359> 316 34<996.724 1090.2> 520 38<507.164 610.441> 532 468<-180 424> 612 78<730.855 807.175> 900 26<679.493 754.885> 1292 42<718.45 731.999>
LayerCount: 2
Fore
SplineSet
378 982 m 1xe07d20
 406 1130 622 1152 622 1162 c 0
 622 1172 574 1182 532 1182 c 0
 442 1182 350 1120 350 1054 c 0
 350 1026 360 1002 378 982 c 1xe07d20
416 954 m 1
 432 946 452 942 472 942 c 0
 496 942 522 954 536 974 c 0
 562 1010 556 1066 590 1096 c 0
 626 1128 672 1130 672 1134 c 0
 672 1140 654 1144 640 1144 c 0
 560 1144 416 1098 416 954 c 1
1296 730 m 1
 1296 730 1296 732 1294 732 c 0xe67c20
 1286 732 1226 714 1192 714 c 0
 1076 714 1088 816 1024 816 c 0xea7c20
 1000 816 978 808 960 790 c 1
 1028 730 1084 676 1164 676 c 0
 1228 676 1296 724 1296 730 c 1
932 756 m 1
 924 732 926 722 926 722 c 1xe07c60
 926 652 1018 604 1108 604 c 0
 1208 604 1292 702 1292 710 c 0
 1292 712 1290 712 1288 712 c 0
 1286 712 1224 664 1148 664 c 0
 1062 664 986 712 932 756 c 1
548 1202 m 0
 660 1202 750 1142 750 1132 c 0
 750 1128 740 1128 736 1128 c 0
 574 1128 622 1034 556 968 c 0
 536 948 500 930 466 930 c 0
 450 930 432 932 416 936 c 1
 422 894 448 852 476 818 c 1
 514 842 554 862 596 862 c 0xf17ea0
 628 862 666 852 682 818 c 1
 746 866 770 870 798 870 c 0
 856 870 902 840 946 802 c 1
 970 824 1008 828 1040 828 c 0
 1132 828 1122 732 1212 732 c 0xeafea0
 1268 732 1318 752 1330 752 c 0xe47ea0
 1332 752 1334 752 1334 750 c 0
 1334 746 1330 738 1322 728 c 0
 1284 680 1202 582 1084 582 c 0
 970 582 900 632 900 706 c 0
 900 728 904 744 918 766 c 1
 860 812 838 850 786 850 c 0
 758 850 736 840 688 804 c 1
 690 796 690 790 690 780 c 0
 690 718 558 634 558 568 c 0xf0fee0
 558 542 562 510 614 470 c 1
 666 490 700 544 792 544 c 0
 878 544 1000 502 1000 346 c 0
 1000 94 814 194 586 -168 c 1
 540 -244 470 -298 380 -298 c 0
 338 -298 246 -278 244 -240 c 0
 244 -222 294 -156 306 -156 c 1
 306 -156 308 -156 308 -160 c 0
 308 -166 306 -172 306 -186 c 0
 306 -234 332 -282 390 -282 c 0
 462 -282 532 -212 532 -148 c 0xf0fd20
 532 48 152 80 152 324 c 0
 152 486 290 546 352 546 c 0
 460 546 496 472 556 464 c 1
 534 488 520 514 520 548 c 0
 520 636 612 664 612 756 c 0
 612 790 588 826 560 826 c 0xe17ea0
 492 826 394 706 274 706 c 0
 186 706 132 842 132 842 c 1
 132 844 134 846 136 846 c 0
 146 846 212 820 212 816 c 0
 224 762 246 734 302 734 c 0xf27ea0
 348 734 392 764 438 794 c 1
 398 842 378 904 376 950 c 1
 342 968 316 998 316 1042 c 0
 316 1122 452 1202 548 1202 c 0
EndSplineSet
EndChar

